<svg xmlns="http://www.w3.org/2000/svg" width="142.178" height="19.968" viewBox="0 0 142.178 19.968"><g id="Logo_StartSe" transform="translate(-160.999 -1103.242)"><g id="Grupo_385" transform="translate(160.999 1103.242)"><g id="Grupo_381" transform="translate(117.218 0)"><circle id="Elipse_1270" cx="0.998" cy="0.998" r="0.998" transform="translate(0)" fill="#0080ed"></circle><circle id="Elipse_1271" cx="0.998" cy="0.998" r="0.998" transform="translate(1.997 17.971)" fill="#0080ed"></circle><circle id="Elipse_1272" cx="0.998" cy="0.998" r="0.998" transform="translate(4.992)" fill="#0080ed"></circle><circle id="Elipse_1273" cx="0.998" cy="0.998" r="0.998" transform="translate(4.992 2.995)" fill="#0080ed"></circle><circle id="Elipse_1274" cx="0.998" cy="0.998" r="0.998" transform="translate(4.992 14.976)" fill="#0080ed"></circle><circle id="Elipse_1275" cx="0.998" cy="0.998" r="0.998" transform="translate(4.992 17.971)" fill="#0080ed"></circle><circle id="Elipse_1276" cx="0.998" cy="0.998" r="0.998" transform="translate(7.987)" fill="#0080ed"></circle><circle id="Elipse_1277" cx="0.998" cy="0.998" r="0.998" transform="translate(7.987 2.995)" fill="#0080ed"></circle><circle id="Elipse_1278" cx="0.998" cy="0.998" r="0.998" transform="translate(7.987 5.99)" fill="#0080ed"></circle><circle id="Elipse_1279" cx="0.998" cy="0.998" r="0.998" transform="translate(7.987 11.981)" fill="#0080ed"></circle><circle id="Elipse_1280" cx="0.998" cy="0.998" r="0.998" transform="translate(7.987 14.976)" fill="#0080ed"></circle><circle id="Elipse_1281" cx="0.998" cy="0.998" r="0.998" transform="translate(7.987 17.971)" fill="#0080ed"></circle><circle id="Elipse_1282" cx="0.998" cy="0.998" r="0.998" transform="translate(10.982)" fill="#0080ed"></circle><circle id="Elipse_1283" cx="0.998" cy="0.998" r="0.998" transform="translate(10.982 2.995)" fill="#0080ed"></circle><circle id="Elipse_1284" cx="0.998" cy="0.998" r="0.998" transform="translate(10.982 5.99)" fill="#0080ed"></circle><circle id="Elipse_1285" cx="0.998" cy="0.998" r="0.998" transform="translate(10.982 8.985)" fill="#0080ed"></circle><circle id="Elipse_1286" cx="0.998" cy="0.998" r="0.998" transform="translate(10.982 11.981)" fill="#0080ed"></circle><circle id="Elipse_1287" cx="0.998" cy="0.998" r="0.998" transform="translate(10.982 14.976)" fill="#0080ed"></circle><circle id="Elipse_1288" cx="0.998" cy="0.998" r="0.998" transform="translate(10.982 17.971)" fill="#0080ed"></circle><circle id="Elipse_1289" cx="0.998" cy="0.998" r="0.998" transform="translate(13.977)" fill="#0080ed"></circle><circle id="Elipse_1290" cx="0.998" cy="0.998" r="0.998" transform="translate(13.977 2.995)" fill="#0080ed"></circle><circle id="Elipse_1291" cx="0.998" cy="0.998" r="0.998" transform="translate(13.977 5.99)" fill="#0080ed"></circle><circle id="Elipse_1292" cx="0.998" cy="0.998" r="0.998" transform="translate(13.977 8.985)" fill="#0080ed"></circle><circle id="Elipse_1293" cx="0.998" cy="0.998" r="0.998" transform="translate(13.977 11.981)" fill="#0080ed"></circle><circle id="Elipse_1294" cx="0.998" cy="0.998" r="0.998" transform="translate(13.977 14.976)" fill="#0080ed"></circle><circle id="Elipse_1295" cx="0.998" cy="0.998" r="0.998" transform="translate(13.977 17.971)" fill="#0080ed"></circle><circle id="Elipse_1296" cx="0.998" cy="0.998" r="0.998" transform="translate(16.973 2.995)" fill="#0080ed"></circle><circle id="Elipse_1297" cx="0.998" cy="0.998" r="0.998" transform="translate(16.77 6.246) rotate(-13.282)" fill="#0080ed"></circle><circle id="Elipse_1298" cx="0.998" cy="0.998" r="0.998" transform="translate(16.973 8.985)" fill="#0080ed"></circle><circle id="Elipse_1299" cx="0.998" cy="0.998" r="0.998" transform="translate(16.973 11.981)" fill="#0080ed"></circle><circle id="Elipse_1300" cx="0.998" cy="0.998" r="0.998" transform="translate(16.973 14.976)" fill="#0080ed"></circle><circle id="Elipse_1301" cx="0.998" cy="0.998" r="0.998" transform="translate(19.968 5.99)" fill="#0080ed"></circle><circle id="Elipse_1302" cx="0.998" cy="0.998" r="0.998" transform="translate(19.821 9.158) rotate(-9.217)" fill="#0080ed"></circle><circle id="Elipse_1303" cx="0.998" cy="0.998" r="0.998" transform="matrix(0.973, -0.23, 0.23, 0.973, 19.765, 12.237)" fill="#0080ed"></circle><circle id="Elipse_1304" cx="0.998" cy="0.998" r="0.998" transform="translate(22.963 8.985)" fill="#0080ed"></circle></g><g id="Grupo_382" transform="translate(0 14.992)"><circle id="Elipse_1305" cx="2.488" cy="2.488" r="2.488" transform="translate(0 0)" fill="#0080ed"></circle></g><g id="Grupo_384" transform="translate(9.951 0.046)"><path id="Caminho_495" d="M2051.09,171.136l-1.182-.174c-2.262-.338-4.135-.718-4.135-1.957s1.486-2.035,3.786-2.035a11.98,11.98,0,0,1,5.344,1.312l.023.011a.781.781,0,0,0,1.023-.226c.323-.436.614-.908.9-1.366.141-.229.282-.458.427-.682a.9.9,0,0,0,.164-.7.846.846,0,0,0-.419-.509,16.212,16.212,0,0,0-7.549-1.734,11.075,11.075,0,0,0-5.976,1.546,5.355,5.355,0,0,0-2.6,4.629c0,3.139,2.154,4.969,6.585,5.6l1.331.188c2.759.393,4.253.825,4.253,1.984,0,1.225-1.564,2.048-3.89,2.048a11.916,11.916,0,0,1-6.024-1.642.844.844,0,0,0-1.148.141c-.292.352-1.473,2.006-1.568,2.212a.811.811,0,0,0,.31,1.042,16.387,16.387,0,0,0,8.414,2.131,11.5,11.5,0,0,0,6.1-1.54,5.494,5.494,0,0,0,2.7-4.8C2057.958,173.648,2055.647,171.806,2051.09,171.136Z" transform="translate(-2040.35 -163.071)" fill="#0080ed"></path><path id="Caminho_496" d="M2279.179,171.136l-1.182-.174c-2.262-.338-4.134-.718-4.134-1.957s1.486-2.035,3.785-2.035a11.983,11.983,0,0,1,5.345,1.312l.023.011a.779.779,0,0,0,1.022-.226c.323-.436.614-.908.9-1.365.141-.229.282-.458.428-.682a.9.9,0,0,0,.163-.7.84.84,0,0,0-.419-.509,16.21,16.21,0,0,0-7.549-1.734,11.073,11.073,0,0,0-5.976,1.546,5.355,5.355,0,0,0-2.6,4.629c0,3.139,2.154,4.969,6.585,5.6l1.332.188c2.758.393,4.252.825,4.252,1.984,0,1.225-1.563,2.048-3.89,2.048a11.917,11.917,0,0,1-6.024-1.642.843.843,0,0,0-1.147.141c-.292.352-1.474,2.006-1.568,2.212a.811.811,0,0,0,.31,1.042,16.387,16.387,0,0,0,8.414,2.131,11.493,11.493,0,0,0,6.1-1.54,5.493,5.493,0,0,0,2.7-4.8C2286.047,173.648,2283.737,171.806,2279.179,171.136Z" transform="translate(-2200.819 -163.071)" fill="#0080ed"></path><path id="Caminho_497" d="M2341.791,176.206a10.367,10.367,0,0,0-2.793-.357,7.7,7.7,0,0,0-8.27,7.968c0,5.008,3.276,8.12,8.549,8.12a10.08,10.08,0,0,0,6.078-1.935.951.951,0,0,0,.325-.652.856.856,0,0,0-.3-.629l-1.387-1.339a.815.815,0,0,0-.676-.232,1.35,1.35,0,0,0-.546.229l-.107.065a7.114,7.114,0,0,1-3.326.85c-2.408,0-4.078-1.111-4.4-2.913h11.141a.836.836,0,0,0,.836-.789c.009-.158.02-.619.02-.7a8.741,8.741,0,0,0-1.372-5.095A6.687,6.687,0,0,0,2341.791,176.206Zm1.145,5.835h-7.912a3.974,3.974,0,0,1,4.1-2.64C2341.269,179.4,2342.649,180.361,2342.936,182.041Z" transform="translate(-2244.642 -172.061)" fill="#0080ed"></path><path id="Caminho_498" d="M2112.332,179.119a5.748,5.748,0,0,0-.612.058l-.572.061a7.292,7.292,0,0,1-1.547.028.761.761,0,0,1-.612-.327,1.382,1.382,0,0,1-.144-.714l-.012-7h3.4a.852.852,0,0,0,.851-.851v-2.028a.814.814,0,0,0-.018-.172.851.851,0,0,0-.833-.68l-3.373,0c0-2.063,0-2.94,0-2.94a.852.852,0,0,0-.851-.851.885.885,0,0,0-.419.111l-2.64,1.54a.828.828,0,0,0-.393.715l0,12.82a3.81,3.81,0,0,0,3.867,4.267q.469.044.966.045c.382,0,.775-.02,1.176-.059a9.075,9.075,0,0,0,1.981-.346.837.837,0,0,0,.626-.787v-2.04A.852.852,0,0,0,2112.332,179.119Z" transform="translate(-2085.526 -163.516)" fill="#0080ed"></path><path id="Caminho_499" d="M2150.249,176.025h-2.555a.859.859,0,0,0-.858.858v.07a6.63,6.63,0,0,0-3.742-1.107h-.1a8.593,8.593,0,0,0-5.775,1.974,7.915,7.915,0,0,0-2.416,6.087,8.112,8.112,0,0,0,2.334,5.991,8.264,8.264,0,0,0,5.678,2.01H2143a7.333,7.333,0,0,0,3.833-1.221v.189a.859.859,0,0,0,.858.858h2.555a.859.859,0,0,0,.858-.858V176.883A.859.859,0,0,0,2150.249,176.025Zm-3.413,7.808v2.6a4.21,4.21,0,1,1,0-5.208Z" transform="translate(-2106.803 -172.059)" fill="#0080ed"></path><g id="Grupo_383" transform="translate(46.298 0.188)"><path id="Caminho_500" d="M2215.959,179.119a5.727,5.727,0,0,0-.611.058l-.573.061a7.29,7.29,0,0,1-1.547.028.761.761,0,0,1-.612-.327,1.383,1.383,0,0,1-.144-.714l-.011-7h3.4a.853.853,0,0,0,.851-.851v-2.028a.884.884,0,0,0-.018-.172.851.851,0,0,0-.833-.68l-3.373,0v-2.94a.852.852,0,0,0-.851-.851.885.885,0,0,0-.419.111l-2.64,1.54a.828.828,0,0,0-.393.715v1.414l-2.66.008a5.991,5.991,0,0,0-4.124,1.383,4.534,4.534,0,0,0-.618.672v-1.206a.859.859,0,0,0-.858-.858h-2.555a.859.859,0,0,0-.858.858v13.993a.859.859,0,0,0,.858.858h2.555a.859.859,0,0,0,.858-.858v-3.365q0-.715,0-1.43c0-.953,0-1.906,0-2.859a3.3,3.3,0,0,1,.336-1.508c.92-1.781,3.388-1.973,4.406-1.973l2.66,0,0,7.69a3.809,3.809,0,0,0,3.867,4.267q.468.044.966.045.573,0,1.176-.059a9.078,9.078,0,0,0,1.981-.346.838.838,0,0,0,.626-.787v-2.04A.852.852,0,0,0,2215.959,179.119Z" transform="translate(-2196.517 -163.704)" fill="#0080ed"></path><path id="Caminho_501" d="M2235.889,171.682v0h0Z" transform="translate(-2224.217 -169.316)" fill="#0080ed"></path></g></g></g></g></svg>