<svg xmlns="http://www.w3.org/2000/svg" width="233.038" height="52" viewBox="0 0 233.038 52"><g id="Untitled-1" transform="translate(-181.542 -243.302)"><path id="Path_8820" data-name="Path 8820" d="M579.156,261.733v17.262h-14.4V261.733h-9.286v42.8h9.286v-18.1h14.4v18.1h9.287v-42.8Zm-50.016,18.75V268.578h5.179c4.345,0,6.548,1.191,6.548,5.893,0,3.988-2.739,6.012-6.132,6.012Zm14.108,4.941c3.809-2.024,6.9-5.774,6.9-11.965,0-8.215-6.131-11.727-15.3-11.727H519.914v42.8h9.227V287.447h5.6L542,304.531h9.763Z" transform="translate(-173.863 -9.47)" fill="#2a488b"></path><g id="Group_6333" data-name="Group 6333" transform="translate(181.542 243.302)"><path id="Path_8821" data-name="Path 8821" d="M220.3,268.737l-.192.447c-.193.384-.384.768-1.791,4.093-3.134,7.354-8.7,18.931-13.687,31.785l-.128.384h-3.837l-13.175-32.169c-1.983-4.861-1.6-3.966-2.047-4.924-1.279-.256-.511-.128-3.9-.64v-4.669h20.913v4.669c-3.453.511-2.622.448-4.477.64l1.151,3.069c1.983,5.181,4.541,11.448,6.2,15.542l.064.063.319.9.193.383.128-.383c.831-2.047,3.773-9.337,6.012-15.988.384-1.088.768-2.238,1.088-3.39l-2.175-.32-2.686-.448v-4.732h16.308v4.732c-3.773.831-3.005.7-4.285.96" transform="translate(-181.542 -253.446)" fill="#231f20"></path><path id="Path_8822" data-name="Path 8822" d="M290.552,288.828c-.436,3.989-1.682,6.794-3.677,8.352a8.932,8.932,0,0,1-6.606,1.558,9.332,9.332,0,0,1-6.107-3.178c-3.241-3.677-4.675-9.972-3.926-17.325a11.246,11.246,0,0,1,3.989-7.978,7.991,7.991,0,0,1,5.983-1.62,9.041,9.041,0,0,1,6.419,3.49c3.053,3.677,4.549,10.1,3.926,16.7m11.654-5.172a21.1,21.1,0,0,0-5.858-15.02,22.355,22.355,0,0,0-15.954-6.232c-6.482,0-12.028,2.119-16.017,6.232a22.09,22.09,0,0,0,0,30.1c3.989,4.052,9.535,6.232,16.017,6.232,6.419,0,11.966-2.18,15.954-6.232a21.246,21.246,0,0,0,5.858-15.082" transform="translate(-221.062 -253.117)" fill="#231f20"></path><path id="Path_8823" data-name="Path 8823" d="M384.528,275.927c-1.808-4.114-4.425-7.292-10.845-7.167-7.353.061-9.847,8.226-9.847,11.9,0,13.587,8.289,17.2,12.651,17.2,5.3,0,8.663-3.677,9.723-5.048l3.677,3.865-.125.124a18.393,18.393,0,0,1-15.331,8.163,21.727,21.727,0,0,1-15.332-6.045,21.166,21.166,0,0,1-6.17-15.268c0-12.465,9.037-21.252,22-21.252,5.859,0,10.969,2.306,15.705,7.042l.187.125Z" transform="translate(-269.605 -253.117)" fill="#231f20"></path><path id="Path_8824" data-name="Path 8824" d="M456.689,252.464l1.621-2.743-9.848-6.419-11.03,5.859,1.683,2.8,8.662-3.3h.125Zm-1.933,14.086c-5.671,1.932-11.4,3.864-17.076,5.857a22.043,22.043,0,0,1-.062-5.36c.374-4.238,2.991-9.037,9.1-8.538,4.113.313,6.607,2.743,7.915,7.541Zm11.592,2.8v-.125c-2.244-9.037-6.856-16.577-18.7-16.639a19.507,19.507,0,0,0-14.21,5.484c-4.114,4.051-6.419,10.159-6.419,16.639,0,11.467,9.224,20.38,21.065,20.442,8.913,0,14.4-4.113,17.887-9.41l.124-.187-4.3-4.362c-2.181,3.8-7.978,7.354-11.281,6.98a11.713,11.713,0,0,1-11.591-9.535c2.119-.685,27.422-9.161,27.422-9.285" transform="translate(-307.676 -243.302)" fill="#231f20"></path></g></g></svg>