<svg width="285" height="533" viewBox="0 0 285 533" fill="none" xmlns="http://www.w3.org/2000/svg">
<mask id="mask0_21_411" style="mask-type:luminance" maskUnits="userSpaceOnUse" x="53" y="0" width="180" height="380">
<path d="M53.667 0.104126H232.334V379.333H53.667V0.104126Z" fill="white"/>
</mask>
<g mask="url(#mask0_21_411)">
<path d="M142.99 379.292C94.3128 379.292 54.7139 339.687 54.7139 291.016V88.375C54.7139 39.7031 94.3128 0.104126 142.99 0.104126C191.662 0.104126 231.266 39.7031 231.266 88.375V291.016C231.266 339.687 191.662 379.292 142.99 379.292ZM142.99 15.151C102.615 15.151 69.7607 48 69.7607 88.375V291.016C69.7607 331.391 102.615 364.24 142.99 364.24C183.365 364.24 216.214 331.391 216.214 291.016V88.375C216.214 48 183.365 15.151 142.99 15.151Z" fill="#210E5B"/>
</g>
<mask id="mask1_21_411" style="mask-type:luminance" maskUnits="userSpaceOnUse" x="0" y="182" width="285" height="266">
<path d="M0.864258 182H284.864V447.333H0.864258V182Z" fill="white"/>
</mask>
<g mask="url(#mask1_21_411)">
<path d="M142.989 446.417C64.8434 446.417 1.27051 372.891 1.27051 282.505V213.266C1.27051 196.12 15.2184 182.172 32.3695 182.172H62.2497C66.4007 182.172 69.7705 185.542 69.7705 189.698C69.7705 193.849 66.4007 197.224 62.2497 197.224H32.3695C23.5153 197.224 16.3226 204.417 16.3226 213.266V282.505C16.3226 322.313 29.6768 359.797 53.932 388.052C77.9007 415.984 109.526 431.365 142.989 431.365C176.448 431.365 208.088 415.984 232.047 388.052C256.297 359.786 269.651 322.313 269.651 282.505V213.266C269.651 204.417 262.458 197.224 253.609 197.224H223.729C219.573 197.224 216.203 193.849 216.203 189.698C216.203 185.542 219.573 182.172 223.729 182.172H253.609C270.755 182.172 284.703 196.12 284.703 213.266V282.505C284.703 372.891 221.13 446.417 142.989 446.417Z" fill="#210E5B"/>
</g>
<path d="M222.453 109.255H62.2399C58.0837 109.255 54.7139 105.885 54.7139 101.734C54.7139 97.5782 58.0837 94.2084 62.2399 94.2084H222.453C226.61 94.2084 229.979 97.5782 229.979 101.734C229.979 105.885 226.61 109.255 222.453 109.255Z" fill="#210E5B"/>
<path d="M222.453 141.948H62.2399C58.0837 141.948 54.7139 138.573 54.7139 134.422C54.7139 130.266 58.0837 126.896 62.2399 126.896H222.453C226.61 126.896 229.979 130.266 229.979 134.422C229.979 138.573 226.61 141.948 222.453 141.948Z" fill="#210E5B"/>
<mask id="mask2_21_411" style="mask-type:luminance" maskUnits="userSpaceOnUse" x="135" y="431" width="16" height="102">
<path d="M135 431.333H151V532.099H135V431.333Z" fill="white"/>
</mask>
<g mask="url(#mask2_21_411)">
<path d="M142.99 531.885C138.834 531.885 135.464 528.51 135.464 524.359V438.891C135.464 434.74 138.834 431.365 142.99 431.365C147.141 431.365 150.516 434.74 150.516 438.891V524.359C150.516 528.51 147.141 531.885 142.99 531.885Z" fill="#210E5B"/>
</g>
<mask id="mask3_21_411" style="mask-type:luminance" maskUnits="userSpaceOnUse" x="52" y="516" width="179" height="17">
<path d="M52.333 516.667H231V532.099H52.333V516.667Z" fill="white"/>
</mask>
<g mask="url(#mask3_21_411)">
<path d="M222.453 531.886H60.9635C56.8073 531.886 53.4375 528.511 53.4375 524.36C53.4375 520.203 56.8073 516.833 60.9635 516.833H222.464C226.62 516.833 229.99 520.203 229.99 524.36C229.99 528.511 226.609 531.886 222.453 531.886Z" fill="#210E5B"/>
</g>
<mask id="mask4_21_411" style="mask-type:luminance" maskUnits="userSpaceOnUse" x="133" y="0" width="18" height="110">
<path d="M133.667 0.104126H151V110H133.667V0.104126Z" fill="white"/>
</mask>
<g mask="url(#mask4_21_411)">
<path d="M142.344 109.255C142.329 109.255 142.318 109.255 142.297 109.255C138.141 109.229 134.792 105.833 134.823 101.682L135.464 7.57808C135.495 3.44267 138.855 0.104126 142.99 0.104126C143.011 0.104126 143.016 0.104126 143.037 0.104126C147.193 0.130167 150.542 3.52079 150.516 7.67704L149.87 101.781C149.839 105.917 146.48 109.255 142.344 109.255Z" fill="#210E5B"/>
</g>
<path d="M183.615 109.255C179.459 109.255 176.089 105.958 176.089 101.88V19.7396C176.089 15.6615 179.459 12.3646 183.615 12.3646C187.766 12.3646 191.141 15.6615 191.141 19.7396V101.88C191.141 105.958 187.766 109.255 183.615 109.255Z" fill="#210E5B"/>
<path d="M101.839 109.255C97.6875 109.255 94.3125 105.958 94.3125 101.88V19.7396C94.3125 15.6615 97.6875 12.3646 101.839 12.3646C105.995 12.3646 109.365 15.6615 109.365 19.7396V101.88C109.365 105.958 105.995 109.255 101.839 109.255Z" fill="#210E5B"/>
</svg>
