<svg width="311" height="450" viewBox="0 0 311 450" fill="none" xmlns="http://www.w3.org/2000/svg">
<mask id="mask0_21_411" style="mask-type:luminance" maskUnits="userSpaceOnUse" x="0" y="0" width="311" height="450">
<path d="M0.869629 0.46875H310.87V449.469H0.869629V0.46875Z" fill="white"/>
</mask>
<g mask="url(#mask0_21_411)">
<path d="M155.974 449.557C151.536 449.557 146.776 446.333 139.526 438.443C134.052 432.474 127.396 424.052 119.75 413.406C104.021 391.505 86.078 362.984 69.229 333.12C50.0728 299.146 33.7967 266.01 22.1769 237.302C8.19776 202.755 1.104 175.182 1.104 155.339C1.104 69.9375 70.578 0.46875 155.974 0.46875C241.375 0.46875 310.844 69.9375 310.844 155.339C310.844 175.172 303.739 202.755 289.729 237.302C278.094 265.979 261.802 299.109 242.599 333.109C225.76 362.943 207.807 391.453 192.073 413.401C166.14 449.557 159.531 449.557 155.974 449.557ZM155.974 13.5C77.7655 13.5 14.1405 77.125 14.1405 155.339C14.1405 188.589 37.4998 249.51 78.2134 322.484C94.3175 351.339 111.75 379.401 127.292 401.51C145.417 427.292 153.385 434.271 155.958 436.068C158.521 434.245 166.474 427.234 184.583 401.453C200.146 379.292 217.573 351.229 233.667 322.422C274.437 249.432 297.818 188.536 297.818 155.344C297.812 77.125 234.187 13.5 155.974 13.5Z" fill="white"/>
</g>
<path d="M155.974 231.854C108.297 231.854 69.5156 193.068 69.5156 145.396C69.5156 97.724 108.307 58.9375 155.974 58.9375C203.656 58.9375 242.432 97.724 242.432 145.396C242.432 193.068 203.656 231.854 155.974 231.854ZM155.974 71.9635C115.495 71.9635 82.5521 104.906 82.5521 145.385C82.5521 185.87 115.495 218.813 155.974 218.813C196.458 218.813 229.401 185.87 229.401 145.385C229.401 104.906 196.458 71.9635 155.974 71.9635Z" fill="white"/>
</svg>
