<svg width="535" height="463" viewBox="0 0 535 463" fill="none" xmlns="http://www.w3.org/2000/svg">
<mask id="mask0_21_411" style="mask-type:luminance" maskUnits="userSpaceOnUse" x="0" y="0" width="535" height="463">
<path d="M0.697754 0.359375H534.698V462.359H0.697754V0.359375Z" fill="white"/>
</mask>
<g mask="url(#mask0_21_411)">
<path d="M86.3539 462.349C85.3851 462.349 84.4164 462.172 83.4789 461.797C80.5153 460.62 78.557 457.76 78.5361 454.578L77.7653 336.042C34.9528 332.099 1.31738 295.995 1.31738 252.172V84.5833C1.31738 38.1458 39.1038 0.359375 85.5414 0.359375H449.646C496.078 0.359375 533.854 38.1458 533.854 84.5833V252.172C533.854 298.609 496.078 336.396 449.646 336.396H209.599L92.0153 459.917C90.5153 461.505 88.4528 462.349 86.3539 462.349ZM85.5414 16C47.7236 16 16.958 46.7656 16.958 84.5833V252.172C16.958 289.984 47.7236 320.755 85.5414 320.755C89.8382 320.755 93.333 324.229 93.3643 328.521L94.0518 435.104L200.578 323.188C202.057 321.63 204.104 320.755 206.239 320.755H449.635C487.442 320.755 518.203 289.984 518.203 252.172V84.5833C518.203 46.7656 487.442 16 449.635 16H85.5414Z" fill="white"/>
</g>
<path d="M267.578 274.318C266.391 274.318 265.213 274.047 264.12 273.5C263.135 273.021 239.948 261.479 215 241.786C180.818 214.813 160.885 186.734 155.734 158.344C152.708 141.661 154.411 116.885 168.234 97.375C177.724 83.9896 191.474 75.5313 207.989 72.9063C236 68.4427 256.495 83.1042 267.578 96.4375C278.661 83.1042 299.151 68.4532 327.167 72.9063C343.682 75.5313 357.437 84 366.922 97.375C380.76 116.885 382.448 141.661 379.427 158.344C374.276 186.734 354.338 214.802 320.161 241.776C295.208 261.469 272.021 273.01 271.042 273.49C269.958 274.047 268.766 274.318 267.578 274.318ZM218.302 87.724C215.802 87.724 213.182 87.9219 210.453 88.3594C198.016 90.3386 188.099 96.4167 181 106.438C171.917 119.25 168.036 138.531 171.125 155.568C180.62 207.974 251.042 248.76 267.578 257.677C284.125 248.75 354.536 207.974 364.036 155.568C367.12 138.542 363.255 119.25 354.161 106.438C347.062 96.4167 337.146 90.3386 324.708 88.3594C291.146 83.0209 274.661 113.589 274.495 113.901C273.135 116.479 270.479 118.083 267.568 118.083C264.661 118.083 262 116.469 260.646 113.901C260.052 112.766 246.318 87.724 218.302 87.724Z" fill="white"/>
</svg>
