<svg width="470" height="330" viewBox="0 0 470 330" fill="none" xmlns="http://www.w3.org/2000/svg">
<mask id="mask0_21_411" style="mask-type:luminance" maskUnits="userSpaceOnUse" x="0" y="0" width="470" height="330">
<path d="M0.333496 0.864594H469.667V329.667H0.333496V0.864594Z" fill="white"/>
</mask>
<g mask="url(#mask0_21_411)">
<path d="M454.526 132.604C442.5 82.8802 430.516 48.349 410.729 31.3646V17.8177C410.729 8.46876 403.12 0.864594 393.776 0.864594H359.719C350.37 0.864594 342.766 8.46876 342.766 17.8177V28.2396C341.422 29.1511 340.286 30 339.448 30.6875C329.719 26.3386 290.463 10.5156 234.812 10.5156C179.161 10.5156 139.906 26.3386 130.177 30.6875C129.333 30 128.208 29.1511 126.859 28.2396V17.8177C126.859 8.46876 119.255 0.864594 109.911 0.864594H75.8541C66.5051 0.864594 58.901 8.46876 58.901 17.8177V31.3646C39.1041 48.349 27.1249 82.8802 15.0989 132.604C4.64055 175.839 1.41659 245.521 0.427003 283.214C-0.0834133 302.479 11.7603 319.755 29.8905 326.208C49.0155 333.01 70.276 325.995 81.5937 309.13L119.021 253.328C126.844 241.661 139.901 234.698 153.948 234.698H315.677C329.724 234.698 342.781 241.661 350.604 253.328L388.036 309.125C396.458 321.682 410.391 328.781 424.859 328.781C429.823 328.781 434.854 327.943 439.74 326.203C457.875 319.755 469.719 302.474 469.208 283.208C468.213 245.516 464.984 175.839 454.526 132.604ZM350.203 17.8177C350.203 12.5729 354.474 8.3073 359.713 8.3073H393.771C399.016 8.3073 403.281 12.5729 403.281 17.8177V26.0573C399.177 23.6563 394.802 21.8177 390.026 20.7031C372.588 16.6458 359.146 19.9375 350.203 24.0573V17.8177ZM66.3385 17.8177C66.3385 12.5729 70.6041 8.3073 75.8489 8.3073H109.906C115.151 8.3073 119.417 12.5729 119.417 17.8177V24.0625C110.469 19.9427 97.0312 16.6458 79.5937 20.7031C74.8176 21.8177 70.4426 23.6563 66.3385 26.0573V17.8177ZM437.24 319.193C421.312 324.854 403.625 319.016 394.219 304.984L356.781 249.188C347.573 235.458 332.208 227.26 315.677 227.26H153.948C137.417 227.26 122.047 235.453 112.838 249.188L75.4062 304.984C65.9947 319.016 48.2916 324.865 32.3853 319.193C17.2916 313.823 7.43742 299.438 7.85929 283.406C8.84367 246.005 12.0364 176.922 22.3333 134.349C36.9947 73.724 51.9791 34.7761 81.2864 27.9531C100.974 23.3646 114.74 29.2969 121.687 33.7136C121.687 33.7136 121.687 33.7136 121.693 33.7136C124.906 35.7552 126.672 37.4792 126.88 37.6875C128.005 38.8333 129.74 39.1302 131.177 38.4167C131.594 38.2136 173.516 17.9531 234.812 17.9531C296.109 17.9531 338.031 38.2188 338.448 38.4167C339.896 39.1302 341.625 38.8333 342.745 37.6875C342.906 37.5261 359.365 21.2031 388.333 27.9479C417.646 34.7708 432.625 73.7188 447.297 134.349C457.594 176.917 460.781 246.005 461.771 283.401C462.187 299.443 452.333 313.823 437.24 319.193Z" fill="white"/>
</g>
<path d="M273.604 91.4375H196.021C193.964 91.4375 192.297 93.1042 192.297 95.1615V118.646C192.297 120.698 193.964 122.365 196.021 122.365H273.604C275.656 122.365 277.328 120.698 277.328 118.646V95.1615C277.328 93.1042 275.656 91.4375 273.604 91.4375ZM269.885 114.927H199.74V98.8802H269.885V114.927Z" fill="white"/>
<path d="M273.604 135.943H196.021C193.964 135.943 192.297 137.609 192.297 139.667V163.151C192.297 165.203 193.964 166.87 196.021 166.87H273.604C275.656 166.87 277.328 165.203 277.328 163.151V139.667C277.328 137.604 275.656 135.943 273.604 135.943ZM269.885 159.427H199.74V143.385H269.885V159.427Z" fill="white"/>
<path d="M369.187 119.13C382.667 119.13 393.63 108.161 393.63 94.6875C393.63 81.2083 382.667 70.2448 369.187 70.2448C355.713 70.2448 344.745 81.2083 344.745 94.6875C344.745 108.161 355.713 119.13 369.187 119.13ZM369.187 77.6875C378.562 77.6875 386.187 85.3125 386.187 94.6875C386.187 104.062 378.562 111.687 369.187 111.687C359.818 111.687 352.187 104.062 352.187 94.6875C352.187 85.3125 359.818 77.6875 369.187 77.6875Z" fill="white"/>
<path d="M351.276 138.557C351.276 125.073 340.313 114.115 326.833 114.115C313.359 114.115 302.391 125.078 302.391 138.557C302.391 152.031 313.359 162.995 326.833 162.995C340.313 162.995 351.276 152.036 351.276 138.557ZM326.828 155.557C317.453 155.557 309.828 147.932 309.828 138.557C309.828 129.188 317.458 121.557 326.828 121.557C336.203 121.557 343.833 129.188 343.833 138.557C343.833 147.932 336.208 155.557 326.828 155.557Z" fill="white"/>
<path d="M367.911 159.255C354.438 159.255 343.469 170.224 343.469 183.698C343.469 197.177 354.438 208.141 367.911 208.141C381.391 208.141 392.354 197.177 392.354 183.698C392.354 170.224 381.391 159.255 367.911 159.255ZM367.911 200.698C358.542 200.698 350.911 193.073 350.911 183.698C350.911 174.328 358.542 166.698 367.911 166.698C377.286 166.698 384.911 174.328 384.911 183.698C384.911 193.073 377.286 200.698 367.911 200.698Z" fill="white"/>
<path d="M413.057 115.391C399.578 115.391 388.615 126.354 388.615 139.833C388.615 153.307 399.578 164.271 413.057 164.271C426.537 164.271 437.5 153.307 437.5 139.833C437.5 126.354 426.537 115.391 413.057 115.391ZM413.057 156.833C403.682 156.833 396.057 149.203 396.057 139.833C396.057 130.453 403.682 122.833 413.057 122.833C422.432 122.833 430.057 130.458 430.057 139.833C430.057 149.203 422.432 156.833 413.057 156.833Z" fill="white"/>
<path d="M98.255 124.151C98.9738 124.839 99.9009 125.177 100.828 125.177C101.755 125.177 102.677 124.839 103.396 124.151L117.995 110.198C118.729 109.495 119.146 108.526 119.146 107.51V73.4479C119.146 71.3958 117.479 69.7292 115.422 69.7292H86.229C84.1769 69.7292 82.5103 71.3958 82.5103 73.4479V107.51C82.5103 108.526 82.9269 109.495 83.6613 110.198L98.255 124.151ZM89.953 77.1719H111.703V105.917L100.828 116.307L89.953 105.917V77.1719Z" fill="white"/>
<path d="M91.4533 136.641L77.5054 122.042C76.8022 121.307 75.8283 120.891 74.8127 120.891H40.7554C38.7033 120.891 37.0366 122.557 37.0366 124.615V153.807C37.0366 155.859 38.7033 157.526 40.7554 157.526H74.8127C75.8283 157.526 76.8022 157.109 77.5054 156.38L91.4533 141.781C92.8283 140.344 92.8283 138.078 91.4533 136.641ZM73.2241 150.089H44.4741V128.333H73.2241L83.6147 139.208L73.2241 150.089Z" fill="white"/>
<path d="M103.542 154.125C102.099 152.755 99.8384 152.755 98.3957 154.125L83.8019 168.078C83.0675 168.781 82.6509 169.75 82.6509 170.766V204.828C82.6509 206.885 84.3175 208.547 86.3696 208.547H115.562C117.62 208.547 119.286 206.885 119.286 204.828V170.766C119.286 169.75 118.87 168.781 118.135 168.078L103.542 154.125ZM111.849 201.104H90.0936V172.354L100.974 161.964L111.849 172.354V201.104Z" fill="white"/>
<path d="M161.042 120.75H126.979C125.963 120.75 124.995 121.167 124.292 121.896L110.338 136.495C108.969 137.932 108.969 140.198 110.338 141.635L124.292 156.234C124.995 156.964 125.963 157.38 126.979 157.38H161.042C163.094 157.38 164.76 155.714 164.76 153.661V124.469C164.76 122.417 163.094 120.75 161.042 120.75ZM157.318 149.943H128.573L118.182 139.068L128.573 128.188H157.318V149.943Z" fill="white"/>
</svg>
