<svg width="416" height="442" viewBox="0 0 416 442" fill="none" xmlns="http://www.w3.org/2000/svg">
<path fill-rule="evenodd" clip-rule="evenodd" d="M330.079 45.9599L398.86 67.3037C411.641 71.2672 418.797 84.861 414.829 97.637L349.443 308.377L360.276 343.095C364.261 355.866 357.125 369.476 344.355 373.46L341.407 374.377V379.679C341.407 392.153 331.964 402.434 319.844 403.767L323.901 390.694C327.605 388.423 330.079 384.34 330.079 379.679V377.913L283.026 392.59H317.167C319.631 392.59 321.938 391.897 323.901 390.694L315.719 417.054C311.756 429.835 298.162 436.986 285.386 433.022L219.23 412.496L131.073 440.002C118.302 443.986 104.698 436.851 100.714 424.08L84.0056 370.538L72.0004 366.814L80.8285 369.554V379.679C80.8285 385.783 85.0785 390.908 90.7817 392.246L94.4223 403.918H93.7452C80.365 403.918 69.5056 393.054 69.5056 379.679V365.882C58.3129 361.022 52.3337 348.397 56.0317 336.476L64.6827 308.595L1.10458 104.819C-2.8798 92.0485 4.25562 78.4443 17.0265 74.4599L77.766 55.5068L69.5056 58.0849V45.2412C69.5056 31.861 80.365 20.9964 93.7452 20.9964H153.922L150.407 32.3245H93.7452C86.615 32.3245 80.8285 38.111 80.8285 45.2412V54.5537L150.23 32.9026L146.151 46.0381L20.3962 85.2724C13.5942 87.3922 9.79208 94.6422 11.9171 101.45L111.526 420.705C113.646 427.512 120.896 431.314 127.698 429.189L340.98 362.647L341.407 362.502L341.485 362.476C347.974 360.163 351.532 353.106 349.464 346.47L249.855 27.2099C249.063 24.6683 247.558 22.5485 245.625 20.9964L245.589 20.9703C242.349 18.387 237.927 17.4026 233.677 18.7308L146.151 46.0381L155.141 17.0641C159.11 4.28284 172.698 -2.87341 185.48 1.09534L258.292 23.6839L218.917 11.4703L230.308 7.91826C242.094 4.23597 254.594 10.0328 259.579 20.9964L259.875 21.6735C259.792 21.4756 259.704 21.2776 259.615 21.0849L259.579 20.9964H317.167C330.542 20.9964 341.407 31.861 341.407 45.2412V49.4756L330.079 45.9599V45.2412C330.079 38.111 324.292 32.3245 317.167 32.3245H263.313L264.969 37.6162L330.079 246.319V45.9599ZM307.938 403.918H246.724L238.287 406.548L288.74 422.205C295.547 424.319 302.792 420.507 304.901 413.7L307.938 403.918ZM317.214 403.918H317.219C317.214 403.918 317.214 403.918 317.214 403.918ZM317.98 403.903C317.98 403.903 317.98 403.903 317.98 403.908V403.903ZM318.037 403.903C318.032 403.903 318.032 403.903 318.026 403.903H318.037ZM318.719 403.871C318.714 403.871 318.714 403.871 318.714 403.871H318.719ZM318.75 403.866C318.745 403.866 318.745 403.866 318.745 403.866H318.75ZM319.209 403.835C319.204 403.835 319.204 403.835 319.204 403.835H319.209ZM319.407 403.814H319.412C319.407 403.814 319.407 403.814 319.407 403.814ZM319.49 403.809L319.495 403.804C319.495 403.804 319.49 403.804 319.49 403.809ZM319.62 403.793C319.62 403.793 319.62 403.793 319.615 403.793H319.62ZM319.667 403.788C319.667 403.788 319.667 403.788 319.662 403.788H319.667ZM319.839 403.767C319.839 403.767 319.834 403.767 319.829 403.772L319.839 403.767ZM71.9587 366.798L71.9744 366.804C71.9692 366.804 71.964 366.804 71.9587 366.798ZM71.3129 366.59H71.3233C71.3181 366.59 71.3181 366.59 71.3129 366.59ZM71.1775 366.543L71.1879 366.548C71.1827 366.543 71.1827 366.543 71.1775 366.543ZM71.1619 366.538H71.1671C71.1671 366.538 71.1671 366.538 71.1619 366.538ZM70.8494 366.423C70.865 366.434 70.8858 366.439 70.9015 366.444C70.9223 366.45 70.9431 366.46 70.9587 366.465H70.964C70.9223 366.455 70.8858 366.439 70.8442 366.423H70.8494ZM69.865 366.038L69.8754 366.043C69.8702 366.043 69.8702 366.043 69.865 366.038ZM69.8442 366.033H69.8494C69.8494 366.033 69.8494 366.033 69.8442 366.033ZM69.839 366.028L69.8442 366.033C69.8442 366.028 69.8442 366.028 69.839 366.028ZM69.5681 365.913H69.5733C69.5681 365.913 69.5681 365.913 69.5681 365.913ZM70.6775 327.496L66.8494 339.835C65.4639 344.293 66.6254 348.944 69.5004 352.21C71.016 353.929 73.0108 355.267 75.3546 355.996L79.9119 357.408L80.8077 360.278L74.141 338.923L70.6775 327.496ZM341.407 282.621L343.495 289.319L337.584 308.377L404.011 94.2828C406.125 87.4756 402.313 80.236 395.506 78.1214L341.407 61.3349V282.621ZM199.86 17.4183L182.12 11.9131C175.313 9.79847 168.068 13.611 165.959 20.4183L165.776 21.0016H188.375L199.86 17.4183Z" fill="white"/>
</svg>
