<svg width="474" height="474" viewBox="0 0 474 474" fill="none" xmlns="http://www.w3.org/2000/svg">
<mask id="mask0_21_411" style="mask-type:luminance" maskUnits="userSpaceOnUse" x="0" y="0" width="296" height="296">
<path d="M0.525879 0.526001H295.667V295.667H0.525879V0.526001Z" fill="white"/>
</mask>
<g mask="url(#mask0_21_411)">
<path d="M147.937 295.344C108.557 295.344 71.5415 280.01 43.7082 252.177C15.8644 224.333 0.525879 187.312 0.525879 147.937C0.525879 108.557 15.8644 71.5416 43.7082 43.7083C71.5415 15.8645 108.557 0.526001 147.937 0.526001C187.312 0.526001 224.333 15.8645 252.167 43.7083C280.01 71.552 295.338 108.568 295.338 147.937C295.338 187.312 280 224.333 252.167 252.167C224.333 280.01 187.312 295.344 147.937 295.344ZM147.937 14.302C112.239 14.302 78.6873 28.2031 53.4425 53.4427C28.1978 78.677 14.3019 112.24 14.3019 147.937C14.3019 183.63 28.203 217.187 53.4425 242.432C78.6769 267.677 112.239 281.573 147.937 281.573C183.63 281.573 217.187 267.667 242.432 242.432C267.677 217.198 281.573 183.63 281.573 147.937C281.573 112.24 267.667 78.6875 242.432 53.4427C217.187 28.2031 183.63 14.302 147.937 14.302Z" fill="white"/>
</g>
<mask id="mask1_21_411" style="mask-type:luminance" maskUnits="userSpaceOnUse" x="215" y="215" width="259" height="259">
<path d="M215.667 215.667H473.526V473.526H215.667V215.667Z" fill="white"/>
</mask>
<g mask="url(#mask1_21_411)">
<path d="M431.854 473.464C420.745 473.464 410.292 469.141 402.432 461.276L217.875 276.724C215.187 274.031 215.187 269.667 217.875 266.979C220.568 264.286 224.927 264.286 227.62 266.979L412.177 451.536C423.031 462.391 440.682 462.391 451.536 451.536C462.391 440.677 462.391 423.031 451.536 412.177L266.979 227.62C264.286 224.927 264.286 220.568 266.979 217.875C269.667 215.182 274.031 215.182 276.724 217.875L461.276 402.432C469.141 410.292 473.464 420.745 473.464 431.854C473.464 442.969 469.141 453.417 461.276 461.276C453.417 469.141 442.969 473.464 431.854 473.464Z" fill="white"/>
</g>
<path d="M256.62 312.609C254.854 312.609 253.094 311.938 251.755 310.589C249.063 307.901 249.063 303.536 251.755 300.844L300.854 251.745C303.547 249.052 307.906 249.052 310.599 251.745C313.292 254.432 313.292 258.797 310.599 261.484L261.495 310.589C260.146 311.938 258.386 312.609 256.62 312.609Z" fill="white"/>
<path d="M137.349 182.531C135.583 182.531 133.823 181.859 132.479 180.51L106.51 154.536C103.818 151.849 103.818 147.484 106.51 144.797C109.203 142.104 113.562 142.104 116.255 144.797L137.359 165.896L183.661 119.594C186.349 116.906 190.713 116.906 193.401 119.594C196.094 122.286 196.094 126.651 193.401 129.339L142.234 180.51C140.875 181.859 139.109 182.531 137.349 182.531Z" fill="white"/>
<path d="M197.672 228.995H94.5259C78.1613 228.995 64.854 215.682 64.854 199.323V96.1875C64.854 79.8229 78.1613 66.5156 94.5259 66.5156H197.672C214.036 66.5156 227.344 79.8333 227.344 96.1875V199.333C227.344 215.688 214.036 228.995 197.672 228.995ZM94.5259 80.2917C85.755 80.2917 78.63 87.4271 78.63 96.1875V199.333C78.63 208.104 85.7655 215.229 94.5259 215.229H197.672C206.443 215.229 213.568 208.094 213.568 199.333V96.1875C213.568 87.4167 206.432 80.2917 197.672 80.2917H94.5259Z" fill="white"/>
</svg>
