<svg id="Camada_1" data-name="Camada 1" xmlns="http://www.w3.org/2000/svg" viewBox="0 0 421.98 473.03"><defs><style>.cls-1{fill:#1d1d1b;}</style></defs><path class="cls-1" d="M71.54,35.83V182.26H349.8V35.83ZM294.15,127.6H124.77V90.49H294.15Z"/><rect class="cls-1" x="71.54" y="210.56" width="278.27" height="57.57"/><path class="cls-1" d="M72.7,335.33c0-24.43,19-42.92,44.32-42.92s44.32,18.49,44.32,42.92-19,42.91-44.32,42.91S72.7,359.76,72.7,335.33Zm59,0c0-8.52-6.24-14.95-14.72-14.95s-14.72,6.43-14.72,14.95,6.24,14.95,14.72,14.95S131.74,343.85,131.74,335.33Z"/><path class="cls-1" d="M253.65,322.47v53.85h-28.8V332.27c0-7.23-4.32-11.89-11.2-11.89-7.2,0-12.16,4.82-12.16,12.22v43.72h-28.8v-82h28.8v6.11a32.52,32.52,0,0,1,22.08-8C241.65,292.41,253.65,304.31,253.65,322.47Z"/><path class="cls-1" d="M349.8,343.53H294.44c2.56,6.43,8.16,10.28,15.68,10.28a23.27,23.27,0,0,0,16.48-7.07l18.88,16.72c-8.8,9.16-21.6,14.78-36.16,14.78-26.24,0-45.91-18.64-45.91-43.39,0-24.11,18.87-42.44,43.83-42.44,24.64,0,43.2,18.33,43.2,43.56A39.1,39.1,0,0,1,349.8,343.53ZM294.12,327h25.6c-2.08-6.43-7-10.13-12.8-10.13C301,316.84,296.36,320.7,294.12,327Z"/><path class="cls-1" d="M107.33,408.63c0,9.76-7.09,17.14-16.62,17.14a15.61,15.61,0,0,1-14.06-8.35V437.2H72.94V392.25h3.71v7.58a15.61,15.61,0,0,1,14.06-8.35C100.24,391.48,107.33,398.86,107.33,408.63Zm-3.83,0a13.43,13.43,0,1,0-13.43,13.55A13.2,13.2,0,0,0,103.5,408.63Z"/><path class="cls-1" d="M153.87,410.23H124c.77,7.06,6.39,12.07,13.87,12.07A14.44,14.44,0,0,0,150,416.07l2.62,2.19a17.71,17.71,0,0,1-15,7.51c-10.1,0-17.65-7.45-17.65-17.21a16.64,16.64,0,0,1,17-17.08c9.65,0,16.94,7.32,16.94,17.15A14.37,14.37,0,0,1,153.87,410.23ZM124,406.89H150.1A13,13,0,0,0,137,395C130,395,124.72,399.89,124,406.89Z"/><path class="cls-1" d="M185.57,391.74v3.85h-1c-7.48,0-12.27,4.88-12.27,12.52V425h-3.71V392.25h3.71v6.87a13.23,13.23,0,0,1,12.27-7.38Z"/><path class="cls-1" d="M194.84,408.63a17.34,17.34,0,0,1,32.09-8.93l-3.26,2a13.56,13.56,0,1,0,0,13.87l3.26,2a17.34,17.34,0,0,1-32.09-8.92Z"/><path class="cls-1" d="M272.89,410.23H243c.77,7.06,6.4,12.07,13.87,12.07a14.44,14.44,0,0,0,12.21-6.23l2.62,2.19a17.71,17.71,0,0,1-14.95,7.51c-10.1,0-17.65-7.45-17.65-17.21a16.64,16.64,0,0,1,17-17.08c9.65,0,16.94,7.32,16.94,17.15A14.37,14.37,0,0,1,272.89,410.23ZM243,406.89h26.15A13,13,0,0,0,256,395C249.05,395,243.74,399.89,243,406.89Z"/><path class="cls-1" d="M317.7,405.16V425H314V406.25c0-6.74-4.41-11.17-11.06-11.17-6.9,0-11.57,4.49-11.57,11.3V425h-3.71V392.25h3.71v6.17c2.43-4.44,6.91-6.94,12.66-6.94C312.2,391.48,317.7,396.87,317.7,405.16Z"/><path class="cls-1" d="M339.81,395.65v20.94c0,4,2.18,5.59,5.76,5.59a9.43,9.43,0,0,0,4.66-1.23v3.54a10.75,10.75,0,0,1-5.37,1.28c-5.62,0-8.75-2.89-8.75-8.6V395.65h-6.33v-3.4h6.33v-9.12h3.7v9.12h10.42v3.4Z"/></svg>