<svg xmlns="http://www.w3.org/2000/svg" xmlns:xlink="http://www.w3.org/1999/xlink" width="1080" zoomAndPan="magnify" viewBox="0 0 810 809.999993" height="1080" preserveAspectRatio="xMidYMid meet" version="1.0"><defs><filter x="0%" y="0%" width="100%" height="100%" id="f6122caaff"><feColorMatrix values="0 0 0 0 1 0 0 0 0 1 0 0 0 0 1 0 0 0 1 0" color-interpolation-filters="sRGB"/></filter><mask id="ea55c2157c"><g filter="url(#f6122caaff)"><rect x="-81" width="972" fill="#000000" y="-80.999999" height="971.999992" fill-opacity="0.4"/></g></mask><clipPath id="73a92960b3"><path d="M 0.308594 0.582031 L 353 0.582031 L 353 277.949219 L 0.308594 277.949219 Z M 0.308594 0.582031 " clip-rule="nonzero"/></clipPath><clipPath id="ae6442d30a"><path d="M 314.289062 0.824219 C 300.828125 5.09375 287.347656 9.664062 275.519531 17.421875 C 258.417969 28.644531 247.019531 45.753906 238.566406 64.011719 C 234.21875 73.375 230.46875 82.992188 226.65625 92.582031 L 223.949219 99.363281 C 223.507812 100.484375 223.046875 101.601562 222.578125 102.734375 L 222.109375 103.851562 L 221.566406 105.152344 L 221.527344 105.242188 C 219.4375 110.144531 217.347656 114.601562 214.996094 118.921875 C 212.617188 123.332031 210.007812 127.601562 207.15625 131.734375 L 205.058594 134.671875 C 204.699219 135.152344 204.335938 135.632812 203.976562 136.113281 L 204.777344 135.144531 C 201.917969 138.652344 200.238281 140.632812 198.527344 142.5625 C 195.378906 145.992188 191.988281 149.171875 188.367188 152.101562 L 189.417969 151.351562 L 186.519531 153.453125 C 185.609375 154.113281 184.667969 154.773438 183.726562 155.34375 L 177.4375 158.882812 C 176.949219 159.125 176.449219 159.363281 175.949219 159.59375 L 174.136719 160.324219 C 174.027344 160.363281 173.238281 160.664062 172.4375 160.921875 L 165.578125 162.703125 C 165.046875 162.804688 164.496094 162.882812 163.957031 162.972656 L 163.796875 162.972656 C 162.425781 163.125 161.328125 163.191406 160.238281 163.222656 L 156.867188 163.222656 C 156.296875 163.222656 155.738281 163.191406 155.167969 163.125 L 152.65625 162.875 C 148.6875 162.375 143.609375 160.691406 138.71875 158.8125 L 135.027344 157.332031 C 134.726562 157.222656 134.4375 157.101562 134.15625 156.964844 L 132.328125 156.171875 C 129.367188 154.894531 126.386719 153.601562 123.417969 152.363281 C 114.4375 148.625 105.039062 145.84375 95.289062 145.84375 C 94.246094 145.84375 93.207031 145.875 92.15625 145.941406 C 87.269531 146.285156 82.476562 147.164062 77.789062 148.582031 C 73.097656 150.003906 68.617188 151.921875 64.367188 154.34375 C 46.597656 164.144531 32.898438 180.464844 22.21875 197.394531 C 16.417969 206.574219 11.558594 216.3125 6.96875 226.164062 C 4.738281 230.933594 2.597656 235.734375 0.546875 240.574219 L 0.546875 277.761719 C 7.675781 256.144531 15.957031 236.054688 26.71875 215.914062 L 34.269531 203.003906 C 35.585938 200.953125 36.9375 198.941406 38.328125 196.953125 L 40.457031 193.992188 C 40.816406 193.503906 41.1875 193.011719 41.558594 192.535156 L 41.996094 191.953125 C 45.546875 187.464844 48.828125 183.734375 52.308594 180.183594 L 57.019531 175.714844 C 57.898438 174.933594 58.777344 174.171875 59.65625 173.421875 L 60.976562 172.324219 L 61.457031 171.941406 C 65.769531 168.734375 69.71875 166.285156 73.878906 164.171875 L 76.308594 163.042969 C 76.308594 163.042969 76.296875 163.042969 76.308594 163.042969 C 76.328125 163.042969 77.199219 162.664062 77.335938 162.601562 L 78.359375 162.203125 C 81.097656 161.214844 83.367188 160.554688 85.675781 160.042969 L 88.886719 159.433594 C 88.96875 159.414062 89.046875 159.402344 89.109375 159.394531 C 89.167969 159.382812 89.226562 159.382812 89.308594 159.375 L 90.398438 159.253906 C 92.226562 159.101562 93.828125 159.035156 95.335938 159.035156 C 96.109375 159.035156 96.859375 159.054688 97.617188 159.082031 L 101.019531 159.363281 C 101.128906 159.375 101.226562 159.382812 101.308594 159.394531 C 101.378906 159.402344 101.457031 159.421875 101.558594 159.441406 L 102.878906 159.664062 C 106.308594 160.351562 109.058594 161.101562 111.757812 162.023438 L 119.1875 164.832031 C 119.1875 164.832031 120.386719 165.34375 120.398438 165.34375 C 120.398438 165.34375 120.308594 165.304688 120.066406 165.191406 L 126.167969 167.832031 C 131.546875 170.152344 136.949219 172.453125 142.578125 174.09375 C 147.578125 175.574219 152.675781 176.34375 157.886719 176.402344 C 158.128906 176.402344 158.367188 176.402344 158.609375 176.402344 C 163.566406 176.402344 168.449219 175.753906 173.246094 174.464844 C 192.808594 169.042969 208.039062 153.761719 219.136719 137.414062 C 230.566406 120.5625 237.066406 101.214844 244.726562 82.503906 L 246.128906 79.125 C 245.988281 79.464844 245.9375 79.59375 245.9375 79.59375 C 245.9375 79.59375 246.378906 78.542969 246.40625 78.464844 L 246.886719 77.34375 C 248.175781 74.382812 249.246094 71.984375 250.367188 69.613281 L 256.96875 56.882812 C 258.148438 54.832031 259.386719 52.824219 260.6875 50.851562 L 262.667969 47.941406 C 263.007812 47.464844 263.347656 46.992188 263.699219 46.511719 L 265.296875 44.402344 C 267.425781 41.652344 270.738281 38.082031 274.367188 34.792969 L 277.058594 32.472656 C 277.519531 32.09375 277.976562 31.722656 278.457031 31.363281 L 278.835938 31.082031 C 280.867188 29.613281 282.816406 28.34375 284.816406 27.125 C 288.546875 24.902344 292.398438 22.921875 296.378906 21.183594 L 298.269531 20.375 C 297.878906 20.542969 297.726562 20.601562 297.726562 20.601562 C 297.726562 20.601562 298.027344 20.472656 298.316406 20.332031 L 301.378906 19.125 C 303.609375 18.242188 305.859375 17.421875 308.117188 16.671875 L 321.316406 12.375 C 331.835938 9.042969 342.566406 5.652344 352.519531 0.832031 Z M 314.289062 0.824219 " clip-rule="nonzero"/></clipPath><clipPath id="05e3050e6e"><rect x="0" width="382" y="0" height="356"/></clipPath><clipPath id="15bc8398a9"><path d="M 202 166 L 503 166 L 503 430 L 202 430 Z M 202 166 " clip-rule="nonzero"/></clipPath><clipPath id="cd1fe27385"><path d="M 213.617188 154.226562 L 533.769531 204.027344 L 495.957031 447.101562 L 175.808594 397.304688 Z M 213.617188 154.226562 " clip-rule="nonzero"/></clipPath><clipPath id="a37ca9197a"><path d="M 175.835938 397.128906 L 495.984375 446.929688 L 533.796875 203.851562 L 213.644531 154.050781 Z M 175.835938 397.128906 " clip-rule="nonzero"/></clipPath></defs><g mask="url(#ea55c2157c)"><g transform="matrix(1, 0, 0, 1, 305, 300)"><g clip-path="url(#05e3050e6e)"><g clip-path="url(#73a92960b3)"><g clip-path="url(#ae6442d30a)"><path fill="#6ecbf5" d="M 0.308594 0.582031 L 381.4375 0.582031 L 381.4375 355.773438 L 0.308594 355.773438 Z M 0.308594 0.582031 " fill-opacity="1" fill-rule="nonzero"/></g></g></g></g></g><g clip-path="url(#15bc8398a9)"><g clip-path="url(#cd1fe27385)"><g clip-path="url(#a37ca9197a)"><path fill="#c252e1" d="M 479.40625 361.050781 C 441.242188 335.347656 409.027344 311.667969 391.28125 271.832031 C 381.761719 250.457031 364.839844 177.75 307.851562 168.886719 C 277.640625 164.183594 261.015625 166.078125 240.8125 177.65625 C 216.105469 191.820312 203.390625 220.066406 202.210938 247.421875 C 199.804688 303.339844 232.105469 355.558594 278.460938 386.671875 C 326.027344 418.601562 385.238281 429.695312 442.65625 429.410156 C 456.988281 429.339844 472.582031 427.726562 485.242188 420.644531 C 495.8125 414.734375 502.75 403.386719 502.347656 391.664062 C 501.816406 376.015625 489.738281 368.007812 479.40625 361.050781 Z M 479.40625 361.050781 " fill-opacity="1" fill-rule="nonzero"/></g></g></g></svg>