<svg xmlns="http://www.w3.org/2000/svg" xmlns:xlink="http://www.w3.org/1999/xlink" width="1080" zoomAndPan="magnify" viewBox="0 0 810 809.999993" height="1080" preserveAspectRatio="xMidYMid meet" version="1.0"><defs><clipPath id="76f1d132e4"><path d="M 111.15625 93.492188 L 524 93.492188 L 524 608 L 111.15625 608 Z M 111.15625 93.492188 " clip-rule="nonzero"/></clipPath><clipPath id="03a359747d"><path d="M 145 99 L 687.90625 99 L 687.90625 537 L 145 537 Z M 145 99 " clip-rule="nonzero"/></clipPath></defs><g clip-path="url(#76f1d132e4)"><path fill="#6ecbf5" d="M 523.25 396.058594 C 523.417969 418.707031 519.824219 440.792969 512.742188 462.316406 C 508.582031 474.90625 503.1875 487.042969 496.78125 498.675781 C 489.476562 511.9375 481.046875 524.472656 471.378906 536.214844 C 450.53125 561.503906 425.523438 581.457031 395.515625 594.941406 C 382.195312 600.898438 368.3125 605.226562 353.757812 607.082031 C 342.351562 608.542969 331.054688 608.148438 320.097656 604.101562 C 312.058594 601.179688 305.371094 596.402344 299.867188 589.828125 C 292.726562 581.34375 287.671875 571.675781 283.457031 561.5625 C 280.308594 553.976562 277.5 546.277344 274.40625 538.632812 C 271.710938 531.945312 268.449219 525.539062 264.964844 519.1875 C 260.582031 511.152344 254.402344 504.464844 247.546875 498.453125 C 245.804688 496.933594 244.0625 495.417969 242.320312 493.957031 C 239.226562 491.371094 236.082031 488.84375 232.539062 486.820312 C 229.898438 485.300781 227.3125 483.726562 225.628906 481.085938 C 224.953125 480.074219 223.941406 479.570312 222.875 479.121094 C 212.421875 474.679688 203.316406 468.160156 194.664062 460.910156 C 176.625 445.738281 161.957031 427.699219 150.097656 407.355469 C 142.90625 394.992188 137.0625 382.011719 132.117188 368.636719 C 124.472656 348.066406 119.078125 326.878906 115.648438 305.1875 C 114.46875 297.65625 113.402344 290.070312 112.445312 282.539062 C 111.378906 273.042969 111.433594 263.546875 111.378906 254.046875 C 111.265625 236.796875 113.683594 219.878906 118.628906 203.359375 C 124.472656 183.6875 133.800781 165.761719 147.175781 150.027344 C 162.574219 131.929688 181.511719 118.667969 203.207031 109.113281 C 213.488281 104.5625 224.167969 101.078125 235.125 98.492188 C 244.117188 96.414062 253.164062 94.953125 262.382812 94.277344 C 267.269531 93.941406 272.160156 93.492188 277.050781 93.71875 C 287.558594 94.109375 298.011719 95.121094 308.238281 97.820312 C 324.367188 102.089844 337.742188 110.519531 347.800781 124.007812 C 352.183594 129.910156 356.34375 135.976562 360.277344 142.160156 C 365.617188 150.53125 371.347656 158.625 378.148438 165.929688 C 386.355469 174.753906 395.964844 181.835938 406.191406 188.128906 C 414.285156 193.128906 422.488281 197.964844 430.582031 202.910156 C 441.257812 209.484375 451.542969 216.675781 460.757812 225.21875 C 472.785156 236.402344 482.394531 249.441406 490.65625 263.601562 C 499.03125 277.988281 505.210938 293.332031 510.101562 309.179688 C 514.878906 324.632812 518.136719 340.425781 520.441406 356.382812 C 521.453125 363.523438 522.125 370.660156 522.632812 377.851562 C 523.027344 383.976562 523.195312 389.992188 523.25 396.058594 Z M 523.25 396.058594 " fill-opacity="1" fill-rule="nonzero"/></g><g clip-path="url(#03a359747d)"><path fill="#586ae2" d="M 245.296875 536.214844 C 234.5625 536.214844 224.449219 533.6875 215.230469 528.628906 C 204.835938 522.953125 195.617188 514.863281 187.078125 503.902344 C 177.917969 492.15625 169.824219 478.5 161.730469 460.800781 C 156.394531 449.109375 152.683594 439.164062 150.097656 429.496094 C 146.726562 416.910156 145.320312 406.738281 145.601562 397.519531 C 145.378906 383.414062 148.074219 370.828125 150.773438 360.316406 C 152.007812 355.484375 153.414062 350.652344 154.820312 345.933594 L 155.886719 342.335938 C 157.964844 335.253906 159.316406 328.792969 160.101562 322.664062 C 160.832031 316.597656 160.609375 311.3125 159.371094 306.425781 C 156.503906 295.355469 155.042969 286.753906 154.59375 278.550781 C 154.3125 273.773438 154.652344 268.996094 154.988281 264.726562 C 155.605469 256.128906 157.234375 247.191406 159.933594 237.300781 C 163.304688 224.996094 167.914062 212.6875 173.589844 200.71875 C 181.90625 183.183594 191.964844 167.109375 203.542969 152.894531 C 216.636719 136.875 230.6875 124.402344 246.644531 114.734375 C 255.246094 109.566406 263.394531 105.742188 271.652344 103.101562 C 289.300781 97.425781 306.722656 97.933594 323.523438 104.507812 C 330.15625 107.09375 336.5625 110.40625 342.238281 113.273438 C 349.261719 116.871094 355.667969 120.015625 362.246094 122.601562 C 372.527344 126.59375 383.320312 129.007812 395.234375 129.851562 L 395.625 129.90625 C 402.144531 130.359375 408.328125 130.808594 414.566406 130.414062 C 420.464844 130.019531 426.421875 129.851562 432.210938 129.683594 C 436.648438 129.570312 441.203125 129.457031 445.640625 129.175781 C 454.914062 128.671875 467.164062 128.277344 479.417969 129.457031 C 481.441406 129.628906 483.519531 129.796875 485.542969 129.90625 C 487.789062 130.019531 490.039062 130.1875 492.34375 130.414062 C 504.707031 131.648438 516.902344 133.84375 528.535156 136.933594 C 552.640625 143.285156 575.007812 153.453125 595.015625 167.054688 C 609.570312 176.945312 622.71875 188.632812 634.074219 201.671875 C 645.253906 214.542969 655.035156 228.757812 663.125 243.875 C 672.398438 261.242188 679.3125 279.5625 683.640625 298.332031 C 685.886719 308 687.121094 316.765625 687.460938 325.027344 C 687.515625 326.261719 687.628906 327.5 687.742188 328.792969 C 687.910156 330.816406 688.132812 332.949219 688.078125 335.140625 C 687.796875 351.832031 685.605469 367.90625 681.558594 382.964844 C 678.242188 395.328125 673.804688 407.074219 668.464844 417.976562 C 660.429688 434.332031 650.3125 449.390625 638.398438 462.765625 C 620.976562 482.378906 600.242188 498.058594 576.695312 509.410156 C 562.644531 516.152344 549.101562 520.648438 535.277344 523.066406 C 527.859375 524.359375 521.789062 524.976562 516.226562 525.035156 C 516.113281 525.035156 516 525.035156 515.890625 525.035156 C 503.355469 525.035156 491.386719 522.617188 480.316406 517.839844 C 470.539062 513.625 461.714844 507.835938 454.351562 502.722656 C 451.992188 501.09375 449.632812 499.40625 447.273438 497.777344 C 441.707031 493.898438 435.976562 489.855469 430.300781 486.03125 C 423.105469 481.199219 415.519531 477.039062 407.820312 473.726562 C 396.414062 468.835938 384.386719 467.09375 371.125 468.441406 C 366.515625 468.890625 361.796875 470.296875 356.121094 472.824219 C 349.65625 475.746094 343.25 479.792969 336.5625 485.300781 C 332.515625 488.617188 328.46875 492.101562 324.535156 495.472656 C 322.625 497.101562 320.769531 498.734375 318.859375 500.363281 C 310.9375 507.105469 302.339844 514.1875 292.785156 520.367188 C 286.546875 524.414062 279.632812 527.957031 272.214844 530.933594 C 263.730469 534.363281 254.964844 536.160156 246.085938 536.214844 C 245.804688 536.214844 245.523438 536.214844 245.296875 536.214844 Z M 295.820312 106.472656 C 288.511719 106.472656 281.152344 107.652344 273.789062 110.015625 C 266.089844 112.488281 258.449219 116.082031 250.300781 120.972656 C 235.070312 130.132812 221.582031 142.101562 209.050781 157.5 C 197.8125 171.269531 188.089844 186.835938 179.996094 203.863281 C 174.488281 215.441406 170.050781 227.355469 166.789062 239.269531 C 164.203125 248.652344 162.6875 257.195312 162.070312 265.289062 C 161.789062 269.503906 161.449219 273.886719 161.675781 278.214844 C 162.125 285.914062 163.53125 294.117188 166.285156 304.738281 C 167.746094 310.472656 168.082031 316.707031 167.183594 323.675781 C 166.339844 330.253906 164.933594 337.050781 162.742188 344.46875 L 161.675781 348.125 C 160.328125 352.730469 158.921875 357.566406 157.6875 362.285156 C 155.101562 372.34375 152.460938 384.371094 152.738281 397.632812 C 152.738281 397.691406 152.738281 397.746094 152.738281 397.800781 C 152.460938 406.34375 153.808594 415.898438 157.011719 427.753906 C 159.484375 436.972656 163.082031 446.582031 168.25 457.933594 C 176.117188 475.074219 183.875 488.335938 192.695312 499.574219 C 200.621094 509.746094 209.164062 517.222656 218.660156 522.449219 C 226.976562 527 236.136719 529.25 245.914062 529.136719 C 253.894531 529.023438 261.820312 527.449219 269.460938 524.359375 C 276.429688 521.550781 282.949219 518.175781 288.792969 514.410156 C 298.011719 508.457031 306.382812 501.597656 314.082031 495.023438 C 315.992188 493.394531 317.847656 491.765625 319.757812 490.132812 C 323.691406 486.707031 327.796875 483.222656 331.898438 479.851562 C 339.089844 473.949219 346.003906 469.566406 353.027344 466.417969 C 359.378906 463.554688 364.886719 461.980469 370.226562 461.417969 C 384.5 459.957031 398.042969 461.921875 410.460938 467.261719 C 418.609375 470.746094 426.589844 475.128906 434.121094 480.1875 C 439.910156 484.066406 445.640625 488.113281 451.261719 492.046875 C 453.621094 493.675781 455.980469 495.359375 458.285156 496.992188 C 465.3125 501.878906 473.742188 507.445312 482.957031 511.433594 C 493.183594 515.816406 504.199219 518.066406 515.71875 518.066406 C 515.832031 518.066406 515.945312 518.066406 516 518.066406 C 521.171875 518.066406 526.847656 517.445312 533.816406 516.210938 C 546.964844 513.90625 559.890625 509.636719 573.378906 503.117188 C 596.082031 492.214844 616.089844 477.097656 632.835938 458.214844 C 644.300781 445.289062 654.078125 430.789062 661.777344 415.054688 C 666.949219 404.601562 671.164062 393.25 674.367188 381.390625 C 678.242188 366.894531 680.378906 351.4375 680.660156 335.308594 C 680.714844 333.511719 680.546875 331.65625 680.378906 329.691406 C 680.265625 328.398438 680.15625 326.992188 680.097656 325.644531 C 679.761719 317.832031 678.582031 309.515625 676.445312 300.242188 C 672.230469 282.089844 665.597656 264.332031 656.609375 247.53125 C 648.796875 232.863281 639.300781 219.148438 628.507812 206.675781 C 617.605469 194.085938 604.90625 182.847656 590.855469 173.292969 C 571.523438 160.140625 549.886719 150.363281 526.566406 144.183594 C 515.269531 141.203125 503.46875 139.070312 491.5 137.832031 C 489.363281 137.605469 487.117188 137.496094 484.980469 137.382812 C 482.902344 137.269531 480.710938 137.15625 478.574219 136.933594 C 466.773438 135.808594 454.914062 136.203125 445.867188 136.652344 C 441.316406 136.875 436.707031 136.988281 432.210938 137.15625 C 426.480469 137.328125 420.632812 137.496094 414.84375 137.886719 C 408.15625 138.335938 401.414062 137.886719 394.894531 137.382812 L 394.503906 137.328125 C 381.914062 136.425781 370.394531 133.898438 359.433594 129.628906 C 352.523438 126.929688 346.003906 123.671875 338.753906 119.960938 C 333.246094 117.152344 327.007812 114.003906 320.714844 111.476562 C 312.621094 108.046875 304.304688 106.472656 295.820312 106.472656 Z M 295.820312 106.472656 " fill-opacity="1" fill-rule="nonzero"/></g></svg>