<svg xmlns="http://www.w3.org/2000/svg" xmlns:xlink="http://www.w3.org/1999/xlink" width="1080" zoomAndPan="magnify" viewBox="0 0 810 809.999993" height="1080" preserveAspectRatio="xMidYMid meet" version="1.0"><defs><clipPath id="842f75148b"><path d="M 299 53 L 703 53 L 703 462 L 299 462 Z M 299 53 " clip-rule="nonzero"/></clipPath><clipPath id="c3be56912a"><path d="M 766.824219 155.464844 L 644.828125 490.972656 L 277.601562 357.441406 L 399.597656 21.933594 Z M 766.824219 155.464844 " clip-rule="nonzero"/></clipPath><clipPath id="dcd125e268"><path d="M 766.824219 155.464844 L 644.828125 490.972656 L 277.601562 357.441406 L 399.597656 21.933594 Z M 766.824219 155.464844 " clip-rule="nonzero"/></clipPath><clipPath id="3f1541477b"><path d="M 320 386 L 514 386 L 514 544 L 320 544 Z M 320 386 " clip-rule="nonzero"/></clipPath><clipPath id="872561edad"><path d="M 374.566406 352.851562 L 540.097656 469.492188 L 468.382812 571.265625 L 302.855469 454.621094 Z M 374.566406 352.851562 " clip-rule="nonzero"/></clipPath><clipPath id="4e7d60eda4"><path d="M 374.566406 352.851562 L 540.097656 469.492188 L 468.382812 571.265625 L 302.855469 454.621094 Z M 374.566406 352.851562 " clip-rule="nonzero"/></clipPath></defs><g clip-path="url(#842f75148b)"><g clip-path="url(#c3be56912a)"><g clip-path="url(#dcd125e268)"><path fill="#6ecbf5" d="M 689.242188 367.890625 C 684.417969 381.296875 677.753906 394.449219 669.398438 406.746094 C 658.792969 422.347656 645.445312 435.15625 629.773438 445.597656 C 623.980469 449.453125 617.96875 452.945312 611.636719 455.851562 C 603.171875 459.746094 594.273438 461.707031 584.957031 461.824219 C 579.214844 461.898438 573.484375 461.789062 567.804688 460.773438 C 564.097656 460.105469 560.453125 459.191406 556.832031 458.179688 C 553.707031 457.308594 550.566406 456.445312 547.46875 455.441406 C 543.441406 454.136719 539.792969 452.039062 536.304688 449.652344 C 530.425781 445.636719 525.351562 440.710938 520.300781 435.753906 C 513.144531 428.726562 506.714844 421.046875 500.109375 413.523438 C 493.113281 405.558594 485.933594 397.785156 477.503906 391.289062 C 471.878906 386.953125 465.871094 383.269531 459.386719 380.320312 C 449.859375 375.988281 439.796875 373.933594 429.460938 372.929688 C 419.035156 371.925781 408.578125 371.949219 398.121094 371.933594 C 386.066406 371.917969 374.011719 371.90625 362.023438 370.378906 C 354.296875 369.402344 346.6875 367.921875 339.277344 365.371094 C 330.375 362.304688 322.140625 358.136719 315.175781 351.714844 C 307.277344 344.421875 302.359375 335.433594 300.300781 324.90625 C 298.621094 316.328125 299.140625 307.789062 300.992188 299.285156 C 303.453125 287.980469 308.367188 277.746094 314.582031 268.078125 C 320.507812 258.871094 327.636719 250.648438 335.144531 242.730469 C 341.632812 235.882812 348.382812 229.273438 354.675781 222.253906 C 362.363281 213.683594 369.277344 204.578125 374.695312 194.375 C 377.390625 189.308594 379.804688 184.109375 381.96875 178.789062 C 383.625 174.707031 385.316406 170.648438 386.730469 166.480469 C 389.273438 158.988281 391.78125 151.488281 394.304688 143.992188 C 397.097656 135.703125 400.242188 127.554688 403.765625 119.554688 C 406.234375 113.945312 408.921875 108.464844 411.867188 103.097656 C 417.914062 92.082031 425.117188 81.925781 434.207031 73.191406 C 440.171875 67.464844 446.757812 62.53125 454.242188 58.945312 C 463.519531 54.496094 473.25 52.371094 483.585938 53.828125 C 488.550781 54.527344 493.273438 56.023438 497.800781 58.15625 C 506.972656 62.476562 514.703125 68.789062 522.097656 75.585938 C 528.765625 81.722656 534.996094 88.300781 541.421875 94.671875 C 549.117188 102.308594 556.960938 109.785156 565.535156 116.453125 C 573.097656 122.332031 581.171875 127.445312 589.5625 132.050781 C 597.609375 136.464844 605.867188 140.46875 614.027344 144.65625 C 624.183594 149.867188 634.15625 155.382812 643.40625 162.140625 C 657.199219 172.222656 668.882812 184.273438 677.953125 198.8125 C 685.679688 211.199219 691.210938 224.523438 695.066406 238.566406 C 701.335938 261.433594 703.199219 284.703125 701.519531 308.3125 C 700.832031 317.917969 699.660156 327.460938 697.816406 336.914062 C 696.554688 343.351562 695.007812 349.726562 693.144531 356.03125 C 692.019531 359.828125 690.707031 363.546875 689.21875 367.875 Z M 395.351562 169.691406 C 391.957031 179.179688 388.4375 187.859375 384.167969 196.21875 C 380.238281 203.898438 375.585938 211.109375 370.320312 217.933594 C 362.699219 227.792969 353.902344 236.585938 345.257812 245.507812 C 338.292969 252.699219 331.5 260.046875 325.664062 268.21875 C 319.480469 276.882812 314.398438 286.089844 311.316406 296.34375 C 309.636719 301.933594 308.589844 307.621094 308.53125 313.445312 C 308.386719 327.941406 313.8125 339.777344 325.648438 348.394531 C 332.925781 353.691406 341.222656 356.796875 349.898438 358.890625 C 358.71875 361.019531 367.714844 361.9375 376.777344 362.359375 C 384.488281 362.722656 392.199219 362.691406 399.917969 362.710938 C 410.304688 362.742188 420.699219 362.808594 431.058594 363.808594 C 442.699219 364.933594 453.925781 367.535156 464.566406 372.53125 C 472.890625 376.433594 480.390625 381.539062 487.382812 387.449219 C 495.257812 394.097656 502.089844 401.753906 508.839844 409.503906 C 516 417.726562 523.144531 425.972656 531.140625 433.417969 C 536.5625 438.472656 542.609375 442.542969 549.464844 445.359375 C 554.535156 447.441406 559.644531 449.480469 565.023438 450.664062 C 568.820312 451.5 572.644531 452.375 576.539062 452.371094 C 584.308594 452.351562 592.070312 452.359375 599.699219 450.277344 C 602.917969 449.398438 606.050781 448.390625 609.03125 446.9375 C 617.203125 442.960938 624.875 438.179688 632.105469 432.679688 C 640.402344 426.355469 647.980469 419.265625 654.589844 411.1875 C 660.214844 404.320312 665.085938 396.941406 669.410156 389.1875 C 672.796875 383.109375 675.796875 376.84375 678.460938 370.4375 C 682.0625 361.769531 684.792969 352.792969 686.984375 343.667969 C 689.003906 335.300781 690.445312 326.828125 691.40625 318.277344 C 693.484375 299.953125 693.589844 281.65625 690.890625 263.371094 C 688.992188 250.515625 685.960938 237.964844 681.199219 225.855469 C 677.308594 215.957031 672.480469 206.570312 666.316406 197.890625 C 655.882812 183.191406 642.515625 171.730469 627.199219 162.429688 C 618.640625 157.230469 609.667969 152.785156 600.730469 148.292969 C 593.210938 144.519531 585.730469 140.671875 578.488281 136.398438 C 566.136719 129.101562 554.910156 120.328125 544.492188 110.492188 C 536.742188 103.179688 529.355469 95.503906 521.78125 88.019531 C 516.429688 82.722656 510.921875 77.589844 504.832031 73.144531 C 499.296875 69.101562 493.445312 65.675781 486.722656 63.90625 C 482.410156 62.777344 478.074219 62.355469 473.652344 62.78125 C 466 63.527344 459.074219 66.351562 452.621094 70.40625 C 444.925781 75.230469 438.433594 81.40625 432.714844 88.421875 C 422.914062 100.445312 415.960938 114.105469 410.054688 128.328125 C 407.4375 134.636719 405.246094 141.109375 402.949219 147.535156 C 400.242188 155.109375 397.988281 162.828125 395.371094 169.6875 Z M 395.351562 169.691406 " fill-opacity="1" fill-rule="nonzero"/></g></g></g><g clip-path="url(#3f1541477b)"><g clip-path="url(#872561edad)"><g clip-path="url(#4e7d60eda4)"><path fill="#6ecbf5" d="M 485.628906 431.171875 L 484.742188 430.558594 C 481.796875 428.605469 479.273438 427.113281 477.171875 426.078125 C 447.167969 415.789062 427.277344 408.59375 417.503906 404.496094 L 398.738281 396.589844 C 395.246094 393.78125 390.328125 391.316406 383.992188 389.199219 C 381.429688 388.289062 376.894531 387.539062 370.390625 386.949219 C 368.175781 387.042969 365.191406 387.460938 361.441406 388.203125 L 355.664062 390.234375 C 351.921875 391.914062 348.398438 394.242188 345.09375 397.21875 C 341.789062 400.199219 338.703125 403.824219 335.839844 408.101562 C 330.109375 416.65625 325.253906 427.804688 321.277344 441.554688 L 320.824219 446.683594 C 320.714844 450.027344 320.996094 453.214844 321.664062 456.246094 C 322.332031 459.28125 323.390625 462.160156 324.839844 464.886719 C 327.476562 470.152344 332.183594 475.171875 338.957031 479.945312 C 341.085938 481.414062 343.894531 482.832031 347.378906 484.195312 C 367.902344 488.726562 380.21875 492.386719 384.332031 495.175781 C 389.316406 498.453125 392.925781 501.195312 395.164062 503.402344 C 404.34375 513.523438 411.394531 520.824219 416.324219 525.304688 C 422.214844 530.226562 428.769531 534.449219 435.980469 537.96875 C 444.09375 541.480469 452.292969 543.398438 460.585938 543.714844 C 465.488281 544.035156 471.128906 543.234375 477.503906 541.3125 C 487.304688 538.125 495.996094 531.578125 503.585938 521.664062 C 509.121094 513.90625 512.363281 505.097656 513.3125 495.242188 C 513.65625 489.023438 513.464844 483.128906 512.746094 477.5625 L 511.265625 469.460938 C 510.011719 464.222656 508.226562 459.3125 505.910156 454.730469 C 501.277344 445.566406 494.519531 437.714844 485.628906 431.171875 " fill-opacity="1" fill-rule="nonzero"/></g></g></g></svg>