<svg width="732" height="273" viewBox="0 0 732 273" fill="none" xmlns="http://www.w3.org/2000/svg">
<path d="M66.8087 133.45C69.5215 133.45 71.7206 131.345 71.7206 128.749C71.7206 126.153 69.5215 124.049 66.8087 124.049C64.096 124.049 61.8968 126.153 61.8968 128.749C61.8968 131.345 64.096 133.45 66.8087 133.45Z" fill="#264918"/>
<path d="M118.845 130.538C118.35 128.121 134.517 125.928 135.87 118.774C137.224 111.621 115.245 127.571 112.786 126.308C110.327 125.046 127.66 115.433 126.494 105.767C125.328 96.1 106.019 128.205 103.191 125.934C100.364 123.662 119.262 105.555 116 94.7527C112.737 83.9502 100.328 118.521 90.945 128.242C85.8298 132.891 79.6193 136.167 72.8945 137.766C66.1697 139.364 59.15 139.232 52.4899 137.383C46.9994 136.574 41.7304 134.658 37.0037 131.75C32.277 128.841 28.191 125.002 24.9941 120.466C20.4387 113.264 22.8974 101.906 37.2161 101.622C51.5349 101.338 60.0294 124.955 60.0294 124.955L62.5915 116.213L68.6937 121.825C68.6937 121.825 70.7961 119.409 70.6149 110.086C70.4337 100.764 68.1981 81.1771 43.5601 84.3792C18.9222 87.5813 2.217 117.862 6.83888 140.651C11.4608 163.44 38.0019 185.305 59.0692 187.432C60.5865 187.588 62.1114 187.656 63.6366 187.637V198.959H54.5018C53.7026 198.943 52.9295 199.244 52.352 199.797C51.7744 200.35 51.4395 201.109 51.4205 201.908C51.4395 202.707 51.7744 203.466 52.352 204.018C52.9295 204.571 53.7026 204.872 54.5018 204.856H95.1496C95.9488 204.872 96.7219 204.571 97.2994 204.018C97.877 203.466 98.2119 202.707 98.2309 201.908C98.2119 201.109 97.877 200.35 97.2994 199.797C96.7219 199.244 95.9488 198.943 95.1496 198.959H86.0148V180.762H85.7368C87.6731 179.596 89.8468 178.879 92.097 178.665C94.3473 178.45 96.6166 178.744 98.7383 179.523C98.0309 175.398 97.5734 171.234 97.3673 167.053C97.6935 166.769 106.429 170.225 106.822 170.008C107.215 169.79 104.297 161.978 105.499 160.945C106.701 159.912 112.145 161.477 112.816 161.356C113.486 161.235 111.565 155.707 110.224 153.774C108.882 151.84 116.567 152.1 116.61 150.922C116.652 149.744 113.921 147.019 111.347 146.21C108.774 145.4 120.036 143.847 121.147 142.977C122.259 142.107 118.157 137.939 119.045 137.661C119.933 137.383 133.545 137.183 138.342 132.827C143.139 128.471 119.322 132.96 118.845 130.538ZM11.3583 133.999C9.90833 128.562 17.7564 124.562 21.8405 127.801C19.7294 127.949 17.681 128.586 15.8586 129.662C14.0362 130.737 12.4894 132.222 11.3399 133.999H11.3583ZM14.3792 143.467C11.2677 136.041 21.5682 129.003 27.9663 132.845C25.0183 133.421 22.2473 134.682 19.8773 136.527C17.5073 138.373 15.6053 140.75 14.3246 143.467H14.3792ZM20.1067 154.626C13.9623 146.276 24.6077 134.64 33.7306 137.612C30.26 139.15 27.2078 141.498 24.8311 144.458C22.4544 147.418 20.8217 150.905 20.0698 154.626H20.1067ZM28.9088 165.072C20.3719 154.42 33.6881 138.591 45.8258 142.023C41.3619 144.223 37.4921 147.463 34.5419 151.471C31.5917 155.479 29.6471 160.137 28.8727 165.054L28.9088 165.072ZM78.7105 199.014H70.9468V186.804C73.6174 186.178 76.2185 185.285 78.7105 184.139V199.014ZM71.775 179.04C57.0998 183.015 39.4156 168.769 40.5998 167.597C46.0977 159.924 62.4162 177.94 70.1193 173.892C77.8224 169.845 41.9894 164.014 42.8957 158.081C43.8019 152.148 81.0005 171.808 83.4232 166.957C85.8459 162.105 45.7108 156.293 48.3812 151.218C51.0517 146.143 90.5766 163.301 92.3891 157.302C94.2016 151.303 52.5498 149.073 52.0725 145.219C51.5952 141.364 95.8447 144.929 98.4728 150.656C101.101 156.384 86.4138 175.065 71.7204 179.04H71.775ZM101.62 142.832C100.684 145.249 91.6756 141.872 91.6272 137.346C91.5789 132.821 99.9286 128.586 101.439 130.634C102.949 132.682 98.1949 134.495 98.062 137.455C97.8928 140.633 102.533 140.434 101.59 142.832H101.62ZM111.336 138.325C110.828 138.79 107.161 137.419 106.11 136.15C105.058 134.881 109.952 130.586 110.471 132.815C110.991 135.045 111.813 137.866 111.305 138.325H111.336Z" fill="#264918"/>
<path d="M653.809 133.45C656.521 133.45 658.721 131.345 658.721 128.749C658.721 126.153 656.521 124.049 653.809 124.049C651.096 124.049 648.897 126.153 648.897 128.749C648.897 131.345 651.096 133.45 653.809 133.45Z" fill="#264918"/>
<path d="M705.845 130.538C705.35 128.121 721.517 125.928 722.87 118.774C724.224 111.621 702.245 127.571 699.786 126.308C697.327 125.046 714.66 115.433 713.494 105.767C712.328 96.1 693.019 128.205 690.191 125.934C687.364 123.662 706.262 105.555 703 94.7527C699.737 83.9502 687.328 118.521 677.945 128.242C672.83 132.891 666.619 136.167 659.895 137.766C653.17 139.364 646.15 139.232 639.49 137.383C633.999 136.574 628.73 134.658 624.004 131.75C619.277 128.841 615.191 125.002 611.994 120.466C607.439 113.264 609.897 101.906 624.216 101.622C638.535 101.338 647.029 124.955 647.029 124.955L649.592 116.213L655.694 121.825C655.694 121.825 657.796 119.409 657.615 110.086C657.434 100.764 655.198 81.1771 630.56 84.3792C605.922 87.5813 589.217 117.862 593.839 140.651C598.461 163.44 625.002 185.305 646.069 187.432C647.587 187.588 649.111 187.656 650.637 187.637V198.959H641.502C640.703 198.943 639.93 199.244 639.352 199.797C638.774 200.35 638.44 201.109 638.421 201.908C638.44 202.707 638.774 203.466 639.352 204.018C639.93 204.571 640.703 204.872 641.502 204.856H682.15C682.949 204.872 683.722 204.571 684.299 204.018C684.877 203.466 685.212 202.707 685.231 201.908C685.212 201.109 684.877 200.35 684.299 199.797C683.722 199.244 682.949 198.943 682.15 198.959H673.015V180.762H672.737C674.673 179.596 676.847 178.879 679.097 178.665C681.347 178.45 683.617 178.744 685.738 179.523C685.031 175.398 684.573 171.234 684.367 167.053C684.694 166.769 693.429 170.225 693.822 170.008C694.215 169.79 691.297 161.978 692.499 160.945C693.701 159.912 699.145 161.477 699.816 161.356C700.487 161.235 698.565 155.707 697.224 153.774C695.882 151.84 703.567 152.1 703.61 150.922C703.652 149.744 700.921 147.019 698.347 146.21C695.774 145.4 707.036 143.847 708.148 142.977C709.259 142.107 705.157 137.939 706.045 137.661C706.933 137.383 720.545 137.183 725.342 132.827C730.139 128.471 706.322 132.96 705.845 130.538ZM598.358 133.999C596.908 128.562 604.756 124.562 608.841 127.801C606.729 127.949 604.681 128.586 602.859 129.662C601.036 130.737 599.489 132.222 598.34 133.999H598.358ZM601.379 143.467C598.268 136.041 608.568 129.003 614.966 132.845C612.018 133.421 609.247 134.682 606.877 136.527C604.507 138.373 602.605 140.75 601.325 143.467H601.379ZM607.107 154.626C600.962 146.276 611.608 134.64 620.731 137.612C617.26 139.15 614.208 141.498 611.831 144.458C609.454 147.418 607.822 150.905 607.07 154.626H607.107ZM615.909 165.072C607.372 154.42 620.688 138.591 632.826 142.023C628.362 144.223 624.492 147.463 621.542 151.471C618.592 155.479 616.647 160.137 615.873 165.054L615.909 165.072ZM665.711 199.014H657.947V186.804C660.617 186.178 663.219 185.285 665.711 184.139V199.014ZM658.775 179.04C644.1 183.015 626.416 168.769 627.6 167.597C633.098 159.924 649.416 177.94 657.119 173.892C664.822 169.845 628.989 164.014 629.896 158.081C630.802 152.148 668.001 171.808 670.423 166.957C672.846 162.105 632.711 156.293 635.381 151.218C638.052 146.143 677.577 163.301 679.389 157.302C681.202 151.303 639.55 149.073 639.072 145.219C638.595 141.364 682.845 144.929 685.473 150.656C688.101 156.384 673.414 175.065 658.72 179.04H658.775ZM688.62 142.832C687.684 145.249 678.676 141.872 678.627 137.346C678.579 132.821 686.929 128.586 688.439 130.634C689.949 132.682 685.195 134.495 685.062 137.455C684.893 140.633 689.533 140.434 688.59 142.832H688.62ZM698.336 138.325C697.828 138.79 694.161 137.419 693.11 136.15C692.058 134.881 696.952 130.586 697.471 132.815C697.991 135.045 698.813 137.866 698.305 138.325H698.336Z" fill="#264918"/>
<path d="M211.809 189.45C214.521 189.45 216.721 187.345 216.721 184.749C216.721 182.153 214.521 180.049 211.809 180.049C209.096 180.049 206.897 182.153 206.897 184.749C206.897 187.345 209.096 189.45 211.809 189.45Z" fill="#264918"/>
<path d="M263.845 186.538C263.35 184.121 279.517 181.928 280.87 174.774C282.224 167.621 260.245 183.571 257.786 182.308C255.327 181.046 272.66 171.433 271.494 161.767C270.328 152.1 251.019 184.205 248.191 181.934C245.364 179.662 264.262 161.555 261 150.753C257.737 139.95 245.328 174.521 235.945 184.242C230.83 188.891 224.619 192.167 217.895 193.766C211.17 195.364 204.15 195.232 197.49 193.383C191.999 192.574 186.73 190.658 182.004 187.75C177.277 184.841 173.191 181.002 169.994 176.466C165.439 169.264 167.897 157.906 182.216 157.622C196.535 157.338 205.029 180.955 205.029 180.955L207.592 172.213L213.694 177.825C213.694 177.825 215.796 175.409 215.615 166.086C215.434 156.764 213.198 137.177 188.56 140.379C163.922 143.581 147.217 173.862 151.839 196.651C156.461 219.44 183.002 241.305 204.069 243.432C205.587 243.588 207.111 243.656 208.637 243.637V254.959H199.502C198.703 254.943 197.93 255.244 197.352 255.797C196.774 256.35 196.44 257.109 196.421 257.908C196.44 258.707 196.774 259.466 197.352 260.018C197.93 260.571 198.703 260.872 199.502 260.856H240.15C240.949 260.872 241.722 260.571 242.299 260.018C242.877 259.466 243.212 258.707 243.231 257.908C243.212 257.109 242.877 256.35 242.299 255.797C241.722 255.244 240.949 254.943 240.15 254.959H231.015V236.762H230.737C232.673 235.596 234.847 234.879 237.097 234.665C239.347 234.45 241.617 234.744 243.738 235.523C243.031 231.398 242.573 227.234 242.367 223.053C242.694 222.769 251.429 226.225 251.822 226.008C252.215 225.79 249.297 217.978 250.499 216.945C251.701 215.912 257.145 217.477 257.816 217.356C258.487 217.235 256.565 211.707 255.224 209.774C253.882 207.84 261.567 208.1 261.61 206.922C261.652 205.744 258.921 203.019 256.347 202.21C253.774 201.4 265.036 199.847 266.148 198.977C267.259 198.107 263.157 193.939 264.045 193.661C264.933 193.383 278.545 193.183 283.342 188.827C288.139 184.471 264.322 188.96 263.845 186.538ZM156.358 189.999C154.908 184.562 162.756 180.562 166.841 183.801C164.729 183.949 162.681 184.586 160.859 185.662C159.036 186.737 157.489 188.222 156.34 189.999H156.358ZM159.379 199.467C156.268 192.041 166.568 185.003 172.966 188.845C170.018 189.421 167.247 190.682 164.877 192.527C162.507 194.373 160.605 196.75 159.325 199.467H159.379ZM165.107 210.626C158.962 202.276 169.608 190.64 178.731 193.612C175.26 195.15 172.208 197.498 169.831 200.458C167.454 203.418 165.822 206.905 165.07 210.626H165.107ZM173.909 221.072C165.372 210.42 178.688 194.591 190.826 198.023C186.362 200.223 182.492 203.463 179.542 207.471C176.592 211.479 174.647 216.137 173.873 221.054L173.909 221.072ZM223.711 255.014H215.947V242.804C218.617 242.178 221.219 241.285 223.711 240.139V255.014ZM216.775 235.04C202.1 239.015 184.416 224.769 185.6 223.597C191.098 215.924 207.416 233.94 215.119 229.892C222.822 225.845 186.989 220.014 187.896 214.081C188.802 208.148 226.001 227.808 228.423 222.957C230.846 218.105 190.711 212.293 193.381 207.218C196.052 202.143 235.577 219.301 237.389 213.302C239.202 207.303 197.55 205.073 197.072 201.219C196.595 197.364 240.845 200.929 243.473 206.656C246.101 212.384 231.414 231.065 216.72 235.04H216.775ZM246.62 198.832C245.684 201.249 236.676 197.872 236.627 193.346C236.579 188.821 244.929 184.586 246.439 186.634C247.949 188.682 243.195 190.495 243.062 193.455C242.893 196.633 247.533 196.434 246.59 198.832H246.62ZM256.336 194.325C255.828 194.79 252.161 193.419 251.11 192.15C250.058 190.881 254.952 186.586 255.471 188.815C255.991 191.045 256.813 193.866 256.305 194.325H256.336Z" fill="#264918"/>
<path d="M211.809 61.4496C214.521 61.4496 216.721 59.3451 216.721 56.7492C216.721 54.1532 214.521 52.0487 211.809 52.0487C209.096 52.0487 206.897 54.1532 206.897 56.7492C206.897 59.3451 209.096 61.4496 211.809 61.4496Z" fill="#264918"/>
<path d="M263.845 58.5375C263.35 56.1208 279.517 53.9277 280.87 46.7743C282.224 39.621 260.245 55.5711 257.786 54.3084C255.327 53.0457 272.66 43.4333 271.494 33.7666C270.328 24.1 251.019 56.2054 248.191 53.9337C245.364 51.662 264.262 33.5552 261 22.7527C257.737 11.9502 245.328 46.5206 235.945 56.2416C230.83 60.8905 224.619 64.1672 217.895 65.7657C211.17 67.3643 204.15 67.2325 197.49 65.3827C191.999 64.5742 186.73 62.6576 182.004 59.7495C177.277 56.8414 173.191 53.0024 169.994 48.466C165.439 41.2643 167.897 29.906 182.216 29.6221C196.535 29.3381 205.029 52.955 205.029 52.955L207.592 44.2127L213.694 49.8254C213.694 49.8254 215.796 47.4087 215.615 38.0865C215.434 28.7642 213.198 9.17709 188.56 12.3792C163.922 15.5813 147.217 45.8621 151.839 68.6512C156.461 91.4404 183.002 113.305 204.069 115.432C205.587 115.588 207.111 115.656 208.637 115.637V126.959H199.502C198.703 126.943 197.93 127.244 197.352 127.797C196.774 128.35 196.44 129.109 196.421 129.908C196.44 130.707 196.774 131.466 197.352 132.018C197.93 132.571 198.703 132.872 199.502 132.856H240.15C240.949 132.872 241.722 132.571 242.299 132.018C242.877 131.466 243.212 130.707 243.231 129.908C243.212 129.109 242.877 128.35 242.299 127.797C241.722 127.244 240.949 126.943 240.15 126.959H231.015V108.762H230.737C232.673 107.596 234.847 106.879 237.097 106.665C239.347 106.45 241.617 106.744 243.738 107.523C243.031 103.398 242.573 99.2337 242.367 95.0533C242.694 94.7693 251.429 98.2252 251.822 98.0077C252.215 97.7902 249.297 89.9784 250.499 88.9452C251.701 87.9121 257.145 89.4769 257.816 89.356C258.487 89.2352 256.565 83.707 255.224 81.7737C253.882 79.8404 261.567 80.1002 261.61 78.922C261.652 77.7439 258.921 75.0191 256.347 74.2096C253.774 73.4 265.036 71.8472 266.148 70.9772C267.259 70.1072 263.157 65.9386 264.045 65.6606C264.933 65.3827 278.545 65.1833 283.342 60.8273C288.139 56.4712 264.322 60.9602 263.845 58.5375ZM156.358 61.9994C154.908 56.5619 162.756 52.5623 166.841 55.8006C164.729 55.9486 162.681 56.5857 160.859 57.6615C159.036 58.7374 157.489 60.2225 156.34 61.9994H156.358ZM159.379 71.4667C156.268 64.0415 166.568 57.0029 172.966 60.8454C170.018 61.4208 167.247 62.6822 164.877 64.5274C162.507 66.3726 160.605 68.7498 159.325 71.4667H159.379ZM165.107 82.6256C158.962 74.276 169.608 62.6397 178.731 65.6122C175.26 67.1503 172.208 69.4978 169.831 72.4579C167.454 75.418 165.822 78.9046 165.07 82.6256H165.107ZM173.909 93.0717C165.372 82.4202 178.688 66.5911 190.826 70.0227C186.362 72.223 182.492 75.4635 179.542 79.4714C176.592 83.4793 174.647 88.1375 173.873 93.0535L173.909 93.0717ZM223.711 127.014H215.947V114.804C218.617 114.178 221.219 113.285 223.711 112.139V127.014ZM216.775 107.04C202.1 111.015 184.416 96.7692 185.6 95.5971C191.098 87.9242 207.416 105.94 215.119 101.892C222.822 97.8446 186.989 92.0143 187.896 86.0814C188.802 80.1485 226.001 99.8081 228.423 94.9567C230.846 90.1052 190.711 84.2932 193.381 79.2182C196.052 74.1432 235.577 91.3014 237.389 85.302C239.202 79.3027 197.55 77.0733 197.072 73.2187C196.595 69.3641 240.845 72.9288 243.473 78.6563C246.101 84.3838 231.414 103.065 216.72 107.04H216.775ZM246.62 70.8323C245.684 73.249 236.676 69.8717 236.627 65.3465C236.579 60.8213 244.929 56.586 246.439 58.6341C247.949 60.6823 243.195 62.4948 243.062 65.4552C242.893 68.6332 247.533 68.4338 246.59 70.8323H246.62ZM256.336 66.3252C255.828 66.7904 252.161 65.419 251.11 64.1502C250.058 62.8815 254.952 58.5858 255.471 60.8152C255.991 63.0446 256.813 65.8661 256.305 66.3252H256.336Z" fill="#264918"/>
<path d="M356.809 133.45C359.521 133.45 361.721 131.345 361.721 128.749C361.721 126.153 359.521 124.049 356.809 124.049C354.096 124.049 351.897 126.153 351.897 128.749C351.897 131.345 354.096 133.45 356.809 133.45Z" fill="#264918"/>
<path d="M408.845 130.538C408.35 128.121 424.517 125.928 425.87 118.774C427.224 111.621 405.245 127.571 402.786 126.308C400.327 125.046 417.66 115.433 416.494 105.767C415.328 96.1 396.019 128.205 393.191 125.934C390.364 123.662 409.262 105.555 406 94.7527C402.737 83.9502 390.328 118.521 380.945 128.242C375.83 132.891 369.619 136.167 362.895 137.766C356.17 139.364 349.15 139.232 342.49 137.383C336.999 136.574 331.73 134.658 327.004 131.75C322.277 128.841 318.191 125.002 314.994 120.466C310.439 113.264 312.897 101.906 327.216 101.622C341.535 101.338 350.029 124.955 350.029 124.955L352.592 116.213L358.694 121.825C358.694 121.825 360.796 119.409 360.615 110.086C360.434 100.764 358.198 81.1771 333.56 84.3792C308.922 87.5813 292.217 117.862 296.839 140.651C301.461 163.44 328.002 185.305 349.069 187.432C350.587 187.588 352.111 187.656 353.637 187.637V198.959H344.502C343.703 198.943 342.93 199.244 342.352 199.797C341.774 200.35 341.44 201.109 341.421 201.908C341.44 202.707 341.774 203.466 342.352 204.018C342.93 204.571 343.703 204.872 344.502 204.856H385.15C385.949 204.872 386.722 204.571 387.299 204.018C387.877 203.466 388.212 202.707 388.231 201.908C388.212 201.109 387.877 200.35 387.299 199.797C386.722 199.244 385.949 198.943 385.15 198.959H376.015V180.762H375.737C377.673 179.596 379.847 178.879 382.097 178.665C384.347 178.45 386.617 178.744 388.738 179.523C388.031 175.398 387.573 171.234 387.367 167.053C387.694 166.769 396.429 170.225 396.822 170.008C397.215 169.79 394.297 161.978 395.499 160.945C396.701 159.912 402.145 161.477 402.816 161.356C403.487 161.235 401.565 155.707 400.224 153.774C398.882 151.84 406.567 152.1 406.61 150.922C406.652 149.744 403.921 147.019 401.347 146.21C398.774 145.4 410.036 143.847 411.148 142.977C412.259 142.107 408.157 137.939 409.045 137.661C409.933 137.383 423.545 137.183 428.342 132.827C433.139 128.471 409.322 132.96 408.845 130.538ZM301.358 133.999C299.908 128.562 307.756 124.562 311.841 127.801C309.729 127.949 307.681 128.586 305.859 129.662C304.036 130.737 302.489 132.222 301.34 133.999H301.358ZM304.379 143.467C301.268 136.041 311.568 129.003 317.966 132.845C315.018 133.421 312.247 134.682 309.877 136.527C307.507 138.373 305.605 140.75 304.325 143.467H304.379ZM310.107 154.626C303.962 146.276 314.608 134.64 323.731 137.612C320.26 139.15 317.208 141.498 314.831 144.458C312.454 147.418 310.822 150.905 310.07 154.626H310.107ZM318.909 165.072C310.372 154.42 323.688 138.591 335.826 142.023C331.362 144.223 327.492 147.463 324.542 151.471C321.592 155.479 319.647 160.137 318.873 165.054L318.909 165.072ZM368.711 199.014H360.947V186.804C363.617 186.178 366.219 185.285 368.711 184.139V199.014ZM361.775 179.04C347.1 183.015 329.416 168.769 330.6 167.597C336.098 159.924 352.416 177.94 360.119 173.892C367.822 169.845 331.989 164.014 332.896 158.081C333.802 152.148 371.001 171.808 373.423 166.957C375.846 162.105 335.711 156.293 338.381 151.218C341.052 146.143 380.577 163.301 382.389 157.302C384.202 151.303 342.55 149.073 342.072 145.219C341.595 141.364 385.845 144.929 388.473 150.656C391.101 156.384 376.414 175.065 361.72 179.04H361.775ZM391.62 142.832C390.684 145.249 381.676 141.872 381.627 137.346C381.579 132.821 389.929 128.586 391.439 130.634C392.949 132.682 388.195 134.495 388.062 137.455C387.893 140.633 392.533 140.434 391.59 142.832H391.62ZM401.336 138.325C400.828 138.79 397.161 137.419 396.11 136.15C395.058 134.881 399.952 130.586 400.471 132.815C400.991 135.045 401.813 137.866 401.305 138.325H401.336Z" fill="#264918"/>
<path d="M501.809 189.45C504.521 189.45 506.721 187.345 506.721 184.749C506.721 182.153 504.521 180.049 501.809 180.049C499.096 180.049 496.897 182.153 496.897 184.749C496.897 187.345 499.096 189.45 501.809 189.45Z" fill="#264918"/>
<path d="M553.845 186.538C553.35 184.121 569.517 181.928 570.87 174.774C572.224 167.621 550.245 183.571 547.786 182.308C545.327 181.046 562.66 171.433 561.494 161.767C560.328 152.1 541.019 184.205 538.191 181.934C535.364 179.662 554.262 161.555 551 150.753C547.737 139.95 535.328 174.521 525.945 184.242C520.83 188.891 514.619 192.167 507.895 193.766C501.17 195.364 494.15 195.232 487.49 193.383C481.999 192.574 476.73 190.658 472.004 187.75C467.277 184.841 463.191 181.002 459.994 176.466C455.439 169.264 457.897 157.906 472.216 157.622C486.535 157.338 495.029 180.955 495.029 180.955L497.592 172.213L503.694 177.825C503.694 177.825 505.796 175.409 505.615 166.086C505.434 156.764 503.198 137.177 478.56 140.379C453.922 143.581 437.217 173.862 441.839 196.651C446.461 219.44 473.002 241.305 494.069 243.432C495.587 243.588 497.111 243.656 498.637 243.637V254.959H489.502C488.703 254.943 487.93 255.244 487.352 255.797C486.774 256.35 486.44 257.109 486.421 257.908C486.44 258.707 486.774 259.466 487.352 260.018C487.93 260.571 488.703 260.872 489.502 260.856H530.15C530.949 260.872 531.722 260.571 532.299 260.018C532.877 259.466 533.212 258.707 533.231 257.908C533.212 257.109 532.877 256.35 532.299 255.797C531.722 255.244 530.949 254.943 530.15 254.959H521.015V236.762H520.737C522.673 235.596 524.847 234.879 527.097 234.665C529.347 234.45 531.617 234.744 533.738 235.523C533.031 231.398 532.573 227.234 532.367 223.053C532.694 222.769 541.429 226.225 541.822 226.008C542.215 225.79 539.297 217.978 540.499 216.945C541.701 215.912 547.145 217.477 547.816 217.356C548.487 217.235 546.565 211.707 545.224 209.774C543.882 207.84 551.567 208.1 551.61 206.922C551.652 205.744 548.921 203.019 546.347 202.21C543.774 201.4 555.036 199.847 556.148 198.977C557.259 198.107 553.157 193.939 554.045 193.661C554.933 193.383 568.545 193.183 573.342 188.827C578.139 184.471 554.322 188.96 553.845 186.538ZM446.358 189.999C444.908 184.562 452.756 180.562 456.841 183.801C454.729 183.949 452.681 184.586 450.859 185.662C449.036 186.737 447.489 188.222 446.34 189.999H446.358ZM449.379 199.467C446.268 192.041 456.568 185.003 462.966 188.845C460.018 189.421 457.247 190.682 454.877 192.527C452.507 194.373 450.605 196.75 449.325 199.467H449.379ZM455.107 210.626C448.962 202.276 459.608 190.64 468.731 193.612C465.26 195.15 462.208 197.498 459.831 200.458C457.454 203.418 455.822 206.905 455.07 210.626H455.107ZM463.909 221.072C455.372 210.42 468.688 194.591 480.826 198.023C476.362 200.223 472.492 203.463 469.542 207.471C466.592 211.479 464.647 216.137 463.873 221.054L463.909 221.072ZM513.711 255.014H505.947V242.804C508.617 242.178 511.219 241.285 513.711 240.139V255.014ZM506.775 235.04C492.1 239.015 474.416 224.769 475.6 223.597C481.098 215.924 497.416 233.94 505.119 229.892C512.822 225.845 476.989 220.014 477.896 214.081C478.802 208.148 516.001 227.808 518.423 222.957C520.846 218.105 480.711 212.293 483.381 207.218C486.052 202.143 525.577 219.301 527.389 213.302C529.202 207.303 487.55 205.073 487.072 201.219C486.595 197.364 530.845 200.929 533.473 206.656C536.101 212.384 521.414 231.065 506.72 235.04H506.775ZM536.62 198.832C535.684 201.249 526.676 197.872 526.627 193.346C526.579 188.821 534.929 184.586 536.439 186.634C537.949 188.682 533.195 190.495 533.062 193.455C532.893 196.633 537.533 196.434 536.59 198.832H536.62ZM546.336 194.325C545.828 194.79 542.161 193.419 541.11 192.15C540.058 190.881 544.952 186.586 545.471 188.815C545.991 191.045 546.813 193.866 546.305 194.325H546.336Z" fill="#264918"/>
<path d="M501.809 61.4496C504.521 61.4496 506.721 59.3451 506.721 56.7492C506.721 54.1532 504.521 52.0487 501.809 52.0487C499.096 52.0487 496.897 54.1532 496.897 56.7492C496.897 59.3451 499.096 61.4496 501.809 61.4496Z" fill="#264918"/>
<path d="M553.845 58.5375C553.35 56.1208 569.517 53.9277 570.87 46.7743C572.224 39.621 550.245 55.5711 547.786 54.3084C545.327 53.0457 562.66 43.4333 561.494 33.7666C560.328 24.1 541.019 56.2054 538.191 53.9337C535.364 51.662 554.262 33.5552 551 22.7527C547.737 11.9502 535.328 46.5206 525.945 56.2416C520.83 60.8905 514.619 64.1672 507.895 65.7657C501.17 67.3643 494.15 67.2325 487.49 65.3827C481.999 64.5742 476.73 62.6576 472.004 59.7495C467.277 56.8414 463.191 53.0024 459.994 48.466C455.439 41.2643 457.897 29.906 472.216 29.6221C486.535 29.3381 495.029 52.955 495.029 52.955L497.592 44.2127L503.694 49.8254C503.694 49.8254 505.796 47.4087 505.615 38.0865C505.434 28.7642 503.198 9.17709 478.56 12.3792C453.922 15.5813 437.217 45.8621 441.839 68.6512C446.461 91.4404 473.002 113.305 494.069 115.432C495.587 115.588 497.111 115.656 498.637 115.637V126.959H489.502C488.703 126.943 487.93 127.244 487.352 127.797C486.774 128.35 486.44 129.109 486.421 129.908C486.44 130.707 486.774 131.466 487.352 132.018C487.93 132.571 488.703 132.872 489.502 132.856H530.15C530.949 132.872 531.722 132.571 532.299 132.018C532.877 131.466 533.212 130.707 533.231 129.908C533.212 129.109 532.877 128.35 532.299 127.797C531.722 127.244 530.949 126.943 530.15 126.959H521.015V108.762H520.737C522.673 107.596 524.847 106.879 527.097 106.665C529.347 106.45 531.617 106.744 533.738 107.523C533.031 103.398 532.573 99.2337 532.367 95.0533C532.694 94.7693 541.429 98.2252 541.822 98.0077C542.215 97.7902 539.297 89.9784 540.499 88.9452C541.701 87.9121 547.145 89.4769 547.816 89.356C548.487 89.2352 546.565 83.707 545.224 81.7737C543.882 79.8404 551.567 80.1002 551.61 78.922C551.652 77.7439 548.921 75.0191 546.347 74.2096C543.774 73.4 555.036 71.8472 556.148 70.9772C557.259 70.1072 553.157 65.9386 554.045 65.6606C554.933 65.3827 568.545 65.1833 573.342 60.8273C578.139 56.4712 554.322 60.9602 553.845 58.5375ZM446.358 61.9994C444.908 56.5619 452.756 52.5623 456.841 55.8006C454.729 55.9486 452.681 56.5857 450.859 57.6615C449.036 58.7374 447.489 60.2225 446.34 61.9994H446.358ZM449.379 71.4667C446.268 64.0415 456.568 57.0029 462.966 60.8454C460.018 61.4208 457.247 62.6822 454.877 64.5274C452.507 66.3726 450.605 68.7498 449.325 71.4667H449.379ZM455.107 82.6256C448.962 74.276 459.608 62.6397 468.731 65.6122C465.26 67.1503 462.208 69.4978 459.831 72.4579C457.454 75.418 455.822 78.9046 455.07 82.6256H455.107ZM463.909 93.0717C455.372 82.4202 468.688 66.5911 480.826 70.0227C476.362 72.223 472.492 75.4635 469.542 79.4714C466.592 83.4793 464.647 88.1375 463.873 93.0535L463.909 93.0717ZM513.711 127.014H505.947V114.804C508.617 114.178 511.219 113.285 513.711 112.139V127.014ZM506.775 107.04C492.1 111.015 474.416 96.7692 475.6 95.5971C481.098 87.9242 497.416 105.94 505.119 101.892C512.822 97.8446 476.989 92.0143 477.896 86.0814C478.802 80.1485 516.001 99.8081 518.423 94.9567C520.846 90.1052 480.711 84.2932 483.381 79.2182C486.052 74.1432 525.577 91.3014 527.389 85.302C529.202 79.3027 487.55 77.0733 487.072 73.2187C486.595 69.3641 530.845 72.9288 533.473 78.6563C536.101 84.3838 521.414 103.065 506.72 107.04H506.775ZM536.62 70.8323C535.684 73.249 526.676 69.8717 526.627 65.3465C526.579 60.8213 534.929 56.586 536.439 58.6341C537.949 60.6823 533.195 62.4948 533.062 65.4552C532.893 68.6332 537.533 68.4338 536.59 70.8323H536.62ZM546.336 66.3252C545.828 66.7904 542.161 65.419 541.11 64.1502C540.058 62.8815 544.952 58.5858 545.471 60.8152C545.991 63.0446 546.813 65.8661 546.305 66.3252H546.336Z" fill="#264918"/>
</svg>
