<svg width="671" height="296" viewBox="0 0 671 296" fill="none" xmlns="http://www.w3.org/2000/svg">
<path d="M83.1972 79C73.9699 79 65.6125 86.1712 59.3182 97.936C53.0173 86.1778 44.6403 79 35.4394 79C15.871 79 0 111.46 0 151.5C0 191.54 15.8644 224 35.4394 224C44.6667 224 53.0239 216.829 59.3182 205.064C65.6191 216.829 73.9962 224 83.1972 224C102.772 224 118.636 191.54 118.636 151.5C118.636 111.46 102.772 79 83.1972 79ZM23.0221 154.136C23.4222 155.616 24.2363 156.951 25.3688 157.985C26.5013 159.018 27.905 159.706 29.4153 159.969C36.0524 161.149 45.0754 153.166 50.5063 156.969C51.7332 158.018 52.7183 159.321 53.3938 160.786C54.0694 162.252 54.4192 163.845 54.4192 165.459C54.4192 167.073 54.0694 168.668 53.3938 170.133C52.7183 171.599 51.7332 172.901 50.5063 173.949C45.4972 177.317 35.1427 169.993 31.3925 169.993C30.2106 169.937 29.0302 170.134 27.9311 170.573C26.832 171.011 25.8398 171.68 25.0214 172.534C24.203 173.389 23.5774 174.41 23.1871 175.527C22.7967 176.644 22.6505 177.831 22.7584 179.009C22.6384 180.327 22.8034 181.656 23.242 182.905C23.6805 184.153 24.3823 185.292 25.3 186.245C26.2177 187.199 27.3298 187.945 28.5607 188.431C29.7916 188.916 31.1126 189.131 32.434 189.061C37.5288 189.2 46.1364 180.921 51.8771 187.044C57.6177 193.167 52.3319 200.443 45.6685 203.574C43.7572 204.47 34.9913 208.077 29.8504 205.038C23.8176 201.054 19.4537 194.998 17.5845 188.014C14.642 179.644 12.9369 170.888 12.5229 162.025C12.0933 154.199 12.1505 146.354 12.6943 138.535C13.2327 130.481 14.8781 122.538 17.5845 114.933C19.4526 107.949 23.8167 101.892 29.8504 97.9086C34.9913 94.8702 43.7572 98.4685 45.6685 99.3649C52.3319 102.496 57.6177 109.772 51.8771 115.895C46.1364 122.018 37.5288 113.741 32.434 113.879C31.114 113.815 29.7954 114.033 28.5671 114.521C27.3388 115.009 26.229 115.754 25.3125 116.706C24.3959 117.658 23.6937 118.796 23.2532 120.042C22.8127 121.288 22.644 122.613 22.7584 123.93C22.6505 125.108 22.7967 126.296 23.1871 127.413C23.5774 128.53 24.203 129.55 25.0214 130.405C25.8398 131.259 26.832 131.929 27.9311 132.368C29.0302 132.806 30.2106 133.004 31.3925 132.947C35.1691 133 45.5236 125.644 50.5063 128.992C51.7332 130.04 52.7183 131.341 53.3938 132.807C54.0694 134.272 54.4192 135.868 54.4192 137.481C54.4192 139.095 54.0694 140.689 53.3938 142.154C52.7183 143.62 51.7332 144.921 50.5063 145.969C45.0886 149.772 36.0721 141.798 29.4153 142.978C27.8022 143.267 26.3127 144.032 25.1381 145.175C23.9635 146.317 23.1577 147.786 22.8244 149.39C22.4894 150.964 22.5574 152.596 23.0221 154.136ZM101.078 188.04C99.2092 195.023 94.8454 201.08 88.8125 205.064C83.6716 208.102 74.9058 204.504 72.9944 203.601C66.331 200.471 61.0452 193.201 66.7859 187.071C72.5265 180.941 81.1341 189.226 86.2289 189.087C87.5503 189.157 88.8713 188.942 90.1022 188.456C91.3331 187.971 92.4452 187.226 93.3629 186.273C94.2806 185.32 94.9824 184.179 95.4209 182.931C95.8595 181.682 96.0245 180.354 95.9045 179.037C96.0124 177.858 95.8662 176.67 95.4759 175.553C95.0855 174.436 94.4599 173.416 93.6415 172.562C92.8231 171.707 91.8309 171.037 90.7318 170.599C89.6327 170.16 88.4523 169.964 87.2704 170.021C83.4938 169.968 73.1393 177.323 68.1566 173.974C66.9297 172.926 65.9446 171.625 65.2691 170.159C64.5936 168.694 64.2437 167.098 64.2437 165.485C64.2437 163.871 64.5936 162.277 65.2691 160.812C65.9446 159.346 66.9297 158.045 68.1566 156.997C73.5743 153.194 82.5908 161.176 89.2476 159.996C90.7579 159.733 92.1616 159.044 93.2941 158.01C94.4266 156.977 95.2408 155.643 95.6408 154.163C96.0898 152.638 96.151 151.024 95.8188 149.469C95.4855 147.865 94.6797 146.396 93.5051 145.253C92.3305 144.111 90.841 143.346 89.2279 143.057C82.5908 141.877 73.5678 149.858 68.1369 146.048C66.9099 145 65.9249 143.699 65.2494 142.233C64.5738 140.768 64.224 139.174 64.224 137.56C64.224 135.947 64.5738 134.351 65.2494 132.886C65.9249 131.42 66.9099 130.119 68.1369 129.071C73.146 125.703 83.5003 133.026 87.2505 133.026C88.4324 133.083 89.6128 132.885 90.7119 132.447C91.811 132.008 92.8034 131.338 93.6218 130.483C94.4402 129.629 95.0656 128.609 95.4559 127.492C95.8463 126.375 95.9925 125.187 95.8846 124.008C96.0046 122.691 95.8398 121.363 95.4012 120.114C94.9627 118.866 94.2609 117.726 93.3432 116.772C92.4255 115.819 91.3134 115.074 90.0825 114.589C88.8516 114.103 87.5306 113.888 86.2092 113.958C81.1144 113.819 72.5066 122.097 66.7659 115.974C61.0253 109.851 66.3113 102.576 72.9747 99.4453C74.886 98.549 83.6519 94.9425 88.7928 97.9875C94.8265 101.971 99.1904 108.028 101.058 115.012C103.767 122.617 105.415 130.559 105.956 138.614C106.499 146.433 106.556 154.278 106.127 162.104C105.715 170.948 104.01 179.685 101.078 188.04Z" fill="#264918"/>
<path d="M635.197 78C625.97 78 617.612 85.1712 611.318 96.936C605.017 85.1778 596.64 78 587.439 78C567.871 78 552 110.46 552 150.5C552 190.54 567.864 223 587.439 223C596.667 223 605.024 215.829 611.318 204.064C617.619 215.829 625.996 223 635.197 223C654.772 223 670.636 190.54 670.636 150.5C670.636 110.46 654.772 78 635.197 78ZM575.022 153.136C575.422 154.616 576.236 155.951 577.369 156.985C578.501 158.018 579.905 158.706 581.415 158.969C588.052 160.149 597.075 152.166 602.506 155.969C603.733 157.018 604.718 158.321 605.394 159.786C606.069 161.252 606.419 162.845 606.419 164.459C606.419 166.073 606.069 167.668 605.394 169.133C604.718 170.599 603.733 171.901 602.506 172.949C597.497 176.317 587.143 168.993 583.393 168.993C582.211 168.937 581.03 169.134 579.931 169.573C578.832 170.011 577.84 170.68 577.021 171.534C576.203 172.389 575.577 173.41 575.187 174.527C574.797 175.644 574.651 176.831 574.758 178.009C574.638 179.327 574.803 180.656 575.242 181.905C575.68 183.153 576.382 184.292 577.3 185.245C578.218 186.199 579.33 186.945 580.561 187.431C581.792 187.916 583.113 188.131 584.434 188.061C589.529 188.2 598.136 179.921 603.877 186.044C609.618 192.167 604.332 199.443 597.669 202.574C595.757 203.47 586.991 207.077 581.85 204.038C575.818 200.054 571.454 193.998 569.585 187.014C566.642 178.644 564.937 169.888 564.523 161.025C564.093 153.199 564.151 145.354 564.694 137.535C565.233 129.481 566.878 121.538 569.585 113.933C571.453 106.949 575.817 100.892 581.85 96.9086C586.991 93.8702 595.757 97.4685 597.669 98.3649C604.332 101.496 609.618 108.772 603.877 114.895C598.136 121.018 589.529 112.741 584.434 112.879C583.114 112.815 581.795 113.033 580.567 113.521C579.339 114.009 578.229 114.754 577.312 115.706C576.396 116.658 575.694 117.796 575.253 119.042C574.813 120.288 574.644 121.613 574.758 122.93C574.651 124.108 574.797 125.296 575.187 126.413C575.577 127.53 576.203 128.55 577.021 129.405C577.84 130.259 578.832 130.929 579.931 131.368C581.03 131.806 582.211 132.004 583.393 131.947C587.169 132 597.524 124.644 602.506 127.992C603.733 129.04 604.718 130.341 605.394 131.807C606.069 133.272 606.419 134.868 606.419 136.481C606.419 138.095 606.069 139.689 605.394 141.154C604.718 142.62 603.733 143.921 602.506 144.969C597.089 148.772 588.072 140.798 581.415 141.978C579.802 142.267 578.313 143.032 577.138 144.175C575.964 145.317 575.158 146.786 574.824 148.39C574.489 149.964 574.557 151.596 575.022 153.136ZM653.078 187.04C651.209 194.023 646.845 200.08 640.813 204.064C635.672 207.102 626.906 203.504 624.994 202.601C618.331 199.471 613.045 192.201 618.786 186.071C624.527 179.941 633.134 188.226 638.229 188.087C639.55 188.157 640.871 187.942 642.102 187.456C643.333 186.971 644.445 186.226 645.363 185.273C646.281 184.32 646.982 183.179 647.421 181.931C647.859 180.682 648.024 179.354 647.904 178.037C648.012 176.858 647.866 175.67 647.476 174.553C647.085 173.436 646.46 172.416 645.641 171.562C644.823 170.707 643.831 170.037 642.732 169.599C641.633 169.16 640.452 168.964 639.27 169.021C635.494 168.968 625.139 176.323 620.157 172.974C618.93 171.926 617.945 170.625 617.269 169.159C616.594 167.694 616.244 166.098 616.244 164.485C616.244 162.871 616.594 161.277 617.269 159.812C617.945 158.346 618.93 157.045 620.157 155.997C625.574 152.194 634.591 160.176 641.248 158.996C642.758 158.733 644.162 158.044 645.294 157.01C646.427 155.977 647.241 154.643 647.641 153.163C648.09 151.638 648.151 150.024 647.819 148.469C647.485 146.865 646.68 145.396 645.505 144.253C644.331 143.111 642.841 142.346 641.228 142.057C634.591 140.877 625.568 148.858 620.137 145.048C618.91 144 617.925 142.699 617.249 141.233C616.574 139.768 616.224 138.174 616.224 136.56C616.224 134.947 616.574 133.351 617.249 131.886C617.925 130.42 618.91 129.119 620.137 128.071C625.146 124.703 635.5 132.026 639.25 132.026C640.432 132.083 641.613 131.885 642.712 131.447C643.811 131.008 644.803 130.338 645.622 129.483C646.44 128.629 647.066 127.609 647.456 126.492C647.846 125.375 647.992 124.187 647.885 123.008C648.005 121.691 647.84 120.363 647.401 119.114C646.963 117.866 646.261 116.726 645.343 115.772C644.425 114.819 643.313 114.074 642.083 113.589C640.852 113.103 639.531 112.888 638.209 112.958C633.114 112.819 624.507 121.097 618.766 114.974C613.025 108.851 618.311 101.576 624.975 98.4453C626.886 97.549 635.652 93.9425 640.793 96.9875C646.827 100.971 651.19 107.028 653.058 114.012C655.767 121.617 657.415 129.559 657.956 137.614C658.499 145.433 658.556 153.278 658.127 161.104C657.715 169.948 656.01 178.685 653.078 187.04Z" fill="#264918"/>
<path d="M496.197 151C486.97 151 478.612 158.171 472.318 169.936C466.017 158.178 457.64 151 448.439 151C428.871 151 413 183.46 413 223.5C413 263.54 428.864 296 448.439 296C457.667 296 466.024 288.829 472.318 277.064C478.619 288.829 486.996 296 496.197 296C515.772 296 531.636 263.54 531.636 223.5C531.636 183.46 515.772 151 496.197 151ZM436.022 226.136C436.422 227.616 437.236 228.951 438.369 229.985C439.501 231.018 440.905 231.706 442.415 231.969C449.052 233.149 458.075 225.166 463.506 228.969C464.733 230.018 465.718 231.321 466.394 232.786C467.069 234.252 467.419 235.845 467.419 237.459C467.419 239.073 467.069 240.668 466.394 242.133C465.718 243.599 464.733 244.901 463.506 245.949C458.497 249.317 448.143 241.993 444.393 241.993C443.211 241.937 442.03 242.134 440.931 242.573C439.832 243.011 438.84 243.68 438.021 244.534C437.203 245.389 436.577 246.41 436.187 247.527C435.797 248.644 435.651 249.831 435.758 251.009C435.638 252.327 435.803 253.656 436.242 254.905C436.68 256.153 437.382 257.292 438.3 258.245C439.218 259.199 440.33 259.945 441.561 260.431C442.792 260.916 444.113 261.131 445.434 261.061C450.529 261.2 459.136 252.921 464.877 259.044C470.618 265.167 465.332 272.443 458.669 275.574C456.757 276.47 447.991 280.077 442.85 277.038C436.818 273.054 432.454 266.998 430.585 260.014C427.642 251.644 425.937 242.888 425.523 234.025C425.093 226.199 425.151 218.354 425.694 210.535C426.233 202.481 427.878 194.538 430.585 186.933C432.453 179.949 436.817 173.892 442.85 169.909C447.991 166.87 456.757 170.469 458.669 171.365C465.332 174.496 470.618 181.772 464.877 187.895C459.136 194.018 450.529 185.741 445.434 185.879C444.114 185.815 442.795 186.033 441.567 186.521C440.339 187.009 439.229 187.754 438.312 188.706C437.396 189.658 436.694 190.796 436.253 192.042C435.813 193.288 435.644 194.613 435.758 195.93C435.651 197.108 435.797 198.296 436.187 199.413C436.577 200.53 437.203 201.55 438.021 202.405C438.84 203.259 439.832 203.929 440.931 204.368C442.03 204.806 443.211 205.004 444.393 204.947C448.169 205 458.524 197.644 463.506 200.992C464.733 202.04 465.718 203.341 466.394 204.807C467.069 206.272 467.419 207.868 467.419 209.481C467.419 211.095 467.069 212.689 466.394 214.154C465.718 215.62 464.733 216.921 463.506 217.969C458.089 221.772 449.072 213.798 442.415 214.978C440.802 215.267 439.313 216.032 438.138 217.175C436.964 218.317 436.158 219.786 435.824 221.39C435.489 222.964 435.557 224.596 436.022 226.136ZM514.078 260.04C512.209 267.023 507.845 273.08 501.813 277.064C496.672 280.102 487.906 276.504 485.994 275.601C479.331 272.471 474.045 265.201 479.786 259.071C485.527 252.941 494.134 261.226 499.229 261.087C500.55 261.157 501.871 260.942 503.102 260.456C504.333 259.971 505.445 259.226 506.363 258.273C507.281 257.32 507.982 256.179 508.421 254.931C508.859 253.682 509.024 252.354 508.904 251.037C509.012 249.858 508.866 248.67 508.476 247.553C508.085 246.436 507.46 245.416 506.641 244.562C505.823 243.707 504.831 243.037 503.732 242.599C502.633 242.16 501.452 241.964 500.27 242.021C496.494 241.968 486.139 249.323 481.157 245.974C479.93 244.926 478.945 243.625 478.269 242.159C477.594 240.694 477.244 239.098 477.244 237.485C477.244 235.871 477.594 234.277 478.269 232.812C478.945 231.346 479.93 230.045 481.157 228.997C486.574 225.194 495.591 233.176 502.248 231.996C503.758 231.733 505.162 231.044 506.294 230.01C507.427 228.977 508.241 227.643 508.641 226.163C509.09 224.638 509.151 223.024 508.819 221.469C508.485 219.865 507.68 218.396 506.505 217.253C505.331 216.111 503.841 215.346 502.228 215.057C495.591 213.877 486.568 221.858 481.137 218.048C479.91 217 478.925 215.699 478.249 214.233C477.574 212.768 477.224 211.174 477.224 209.56C477.224 207.947 477.574 206.351 478.249 204.886C478.925 203.42 479.91 202.119 481.137 201.071C486.146 197.703 496.5 205.026 500.25 205.026C501.432 205.083 502.613 204.885 503.712 204.447C504.811 204.008 505.803 203.338 506.622 202.483C507.44 201.629 508.066 200.609 508.456 199.492C508.846 198.375 508.992 197.187 508.885 196.008C509.005 194.691 508.84 193.363 508.401 192.114C507.963 190.866 507.261 189.726 506.343 188.772C505.425 187.819 504.313 187.074 503.083 186.589C501.852 186.103 500.531 185.888 499.209 185.958C494.114 185.819 485.507 194.097 479.766 187.974C474.025 181.851 479.311 174.576 485.975 171.445C487.886 170.549 496.652 166.942 501.793 169.987C507.827 173.971 512.19 180.028 514.058 187.012C516.767 194.617 518.415 202.559 518.956 210.614C519.499 218.433 519.556 226.278 519.127 234.104C518.715 242.948 517.01 251.685 514.078 260.04Z" fill="#264918"/>
<path d="M496.197 0C486.97 0 478.612 7.17122 472.318 18.936C466.017 7.17781 457.64 0 448.439 0C428.871 0 413 32.4602 413 72.5C413 112.54 428.864 145 448.439 145C457.667 145 466.024 137.829 472.318 126.064C478.619 137.829 486.996 145 496.197 145C515.772 145 531.636 112.54 531.636 72.5C531.636 32.4602 515.772 0 496.197 0ZM436.022 75.1357C436.422 76.6156 437.236 77.9515 438.369 78.9847C439.501 80.0179 440.905 80.7057 442.415 80.9687C449.052 82.1485 458.075 74.1664 463.506 77.9694C464.733 79.0175 465.718 80.3207 466.394 81.7862C467.069 83.2517 467.419 84.8453 467.419 86.459C467.419 88.0727 467.069 89.668 466.394 91.1335C465.718 92.599 464.733 93.9005 463.506 94.9487C458.497 98.3166 448.143 90.9935 444.393 90.9935C443.211 90.9367 442.03 91.1344 440.931 91.5728C439.832 92.0111 438.84 92.6796 438.021 93.5343C437.203 94.3889 436.577 95.4102 436.187 96.5272C435.797 97.6443 435.651 98.831 435.758 100.009C435.638 101.327 435.803 102.656 436.242 103.905C436.68 105.153 437.382 106.292 438.3 107.245C439.218 108.199 440.33 108.945 441.561 109.431C442.792 109.916 444.113 110.131 445.434 110.061C450.529 110.2 459.136 101.921 464.877 108.044C470.618 114.167 465.332 121.443 458.669 124.574C456.757 125.47 447.991 129.077 442.85 126.038C436.818 122.054 432.454 115.998 430.585 109.014C427.642 100.644 425.937 91.8879 425.523 83.0252C425.093 75.1992 425.151 67.3543 425.694 59.5354C426.233 51.4808 427.878 43.5384 430.585 35.933C432.453 28.9487 436.817 22.8917 442.85 18.9086C447.991 15.8702 456.757 19.4685 458.669 20.3649C465.332 23.4956 470.618 30.7723 464.877 36.8953C459.136 43.0182 450.529 34.7406 445.434 34.879C444.114 34.8148 442.795 35.0334 441.567 35.5211C440.339 36.0087 439.229 36.7541 438.312 37.7062C437.396 38.6584 436.694 39.7959 436.253 41.0419C435.813 42.2879 435.644 43.6129 435.758 44.9295C435.651 46.1079 435.797 47.2962 436.187 48.4133C436.577 49.5303 437.203 50.5499 438.021 51.4046C438.84 52.2592 439.832 52.9293 440.931 53.3677C442.03 53.8061 443.211 54.0038 444.393 53.947C448.169 53.9997 458.524 46.6436 463.506 49.9918C464.733 51.0399 465.718 52.3415 466.394 53.807C467.069 55.2725 467.419 56.8677 467.419 58.4814C467.419 60.0951 467.069 61.6888 466.394 63.1543C465.718 64.6198 464.733 65.9213 463.506 66.9695C458.089 70.7724 449.072 62.7984 442.415 63.9782C440.802 64.2675 439.313 65.0317 438.138 66.1746C436.964 67.3174 436.158 68.7859 435.824 70.3905C435.489 71.9637 435.557 73.5958 436.022 75.1357ZM514.078 109.04C512.209 116.023 507.845 122.08 501.813 126.064C496.672 129.102 487.906 125.504 485.994 124.601C479.331 121.471 474.045 114.201 479.786 108.071C485.527 101.941 494.134 110.226 499.229 110.087C500.55 110.157 501.871 109.942 503.102 109.456C504.333 108.971 505.445 108.226 506.363 107.273C507.281 106.32 507.982 105.179 508.421 103.931C508.859 102.682 509.024 101.354 508.904 100.037C509.012 98.8583 508.866 97.67 508.476 96.553C508.085 95.4359 507.46 94.4163 506.641 93.5616C505.823 92.707 504.831 92.0369 503.732 91.5985C502.633 91.1601 501.452 90.964 500.27 91.0208C496.494 90.9681 486.139 98.3226 481.157 94.9744C479.93 93.9263 478.945 92.6247 478.269 91.1592C477.594 89.6937 477.244 88.0985 477.244 86.4848C477.244 84.8711 477.594 83.2774 478.269 81.8119C478.945 80.3464 479.93 79.0449 481.157 77.9967C486.574 74.1938 495.591 82.1759 502.248 80.9961C503.758 80.7331 505.162 80.0437 506.294 79.0105C507.427 77.9772 508.241 76.643 508.641 75.1631C509.09 73.638 509.151 72.024 508.819 70.4693C508.485 68.8648 507.68 67.3963 506.505 66.2534C505.331 65.1106 503.841 64.3463 502.228 64.057C495.591 62.8772 486.568 70.8579 481.137 67.0483C479.91 66.0002 478.925 64.6987 478.249 63.2331C477.574 61.7676 477.224 60.174 477.224 58.5603C477.224 56.9466 477.574 55.3513 478.249 53.8858C478.925 52.4203 479.91 51.1188 481.137 50.0706C486.146 46.7027 496.5 54.0258 500.25 54.0258C501.432 54.0826 502.613 53.8849 503.712 53.4465C504.811 53.0082 505.803 52.3381 506.622 51.4834C507.44 50.6288 508.066 49.6091 508.456 48.4921C508.846 47.3751 508.992 46.1867 508.885 45.0084C509.005 43.6906 508.84 42.3628 508.401 41.1143C507.963 39.8658 507.261 38.7256 506.343 37.7722C505.425 36.8189 504.313 36.0744 503.083 35.5887C501.852 35.1029 500.531 34.8882 499.209 34.9579C494.114 34.8195 485.507 43.0971 479.766 36.9741C474.025 30.8511 479.311 23.576 485.975 20.4453C487.886 19.549 496.652 15.9425 501.793 18.9875C507.827 22.9705 512.19 29.0276 514.058 36.0119C516.767 43.6169 518.415 51.5593 518.956 59.6143C519.499 67.4331 519.556 75.278 519.127 83.104C518.715 91.9481 517.01 100.685 514.078 109.04Z" fill="#264918"/>
<path d="M361.197 78C351.97 78 343.612 85.1712 337.318 96.936C331.017 85.1778 322.64 78 313.439 78C293.871 78 278 110.46 278 150.5C278 190.54 293.864 223 313.439 223C322.667 223 331.024 215.829 337.318 204.064C343.619 215.829 351.996 223 361.197 223C380.772 223 396.636 190.54 396.636 150.5C396.636 110.46 380.772 78 361.197 78ZM301.022 153.136C301.422 154.616 302.236 155.951 303.369 156.985C304.501 158.018 305.905 158.706 307.415 158.969C314.052 160.149 323.075 152.166 328.506 155.969C329.733 157.018 330.718 158.321 331.394 159.786C332.069 161.252 332.419 162.845 332.419 164.459C332.419 166.073 332.069 167.668 331.394 169.133C330.718 170.599 329.733 171.901 328.506 172.949C323.497 176.317 313.143 168.993 309.393 168.993C308.211 168.937 307.03 169.134 305.931 169.573C304.832 170.011 303.84 170.68 303.021 171.534C302.203 172.389 301.577 173.41 301.187 174.527C300.797 175.644 300.651 176.831 300.758 178.009C300.638 179.327 300.803 180.656 301.242 181.905C301.68 183.153 302.382 184.292 303.3 185.245C304.218 186.199 305.33 186.945 306.561 187.431C307.792 187.916 309.113 188.131 310.434 188.061C315.529 188.2 324.136 179.921 329.877 186.044C335.618 192.167 330.332 199.443 323.669 202.574C321.757 203.47 312.991 207.077 307.85 204.038C301.818 200.054 297.454 193.998 295.585 187.014C292.642 178.644 290.937 169.888 290.523 161.025C290.093 153.199 290.151 145.354 290.694 137.535C291.233 129.481 292.878 121.538 295.585 113.933C297.453 106.949 301.817 100.892 307.85 96.9086C312.991 93.8702 321.757 97.4685 323.669 98.3649C330.332 101.496 335.618 108.772 329.877 114.895C324.136 121.018 315.529 112.741 310.434 112.879C309.114 112.815 307.795 113.033 306.567 113.521C305.339 114.009 304.229 114.754 303.312 115.706C302.396 116.658 301.694 117.796 301.253 119.042C300.813 120.288 300.644 121.613 300.758 122.93C300.651 124.108 300.797 125.296 301.187 126.413C301.577 127.53 302.203 128.55 303.021 129.405C303.84 130.259 304.832 130.929 305.931 131.368C307.03 131.806 308.211 132.004 309.393 131.947C313.169 132 323.524 124.644 328.506 127.992C329.733 129.04 330.718 130.341 331.394 131.807C332.069 133.272 332.419 134.868 332.419 136.481C332.419 138.095 332.069 139.689 331.394 141.154C330.718 142.62 329.733 143.921 328.506 144.969C323.089 148.772 314.072 140.798 307.415 141.978C305.802 142.267 304.313 143.032 303.138 144.175C301.964 145.317 301.158 146.786 300.824 148.39C300.489 149.964 300.557 151.596 301.022 153.136ZM379.078 187.04C377.209 194.023 372.845 200.08 366.813 204.064C361.672 207.102 352.906 203.504 350.994 202.601C344.331 199.471 339.045 192.201 344.786 186.071C350.527 179.941 359.134 188.226 364.229 188.087C365.55 188.157 366.871 187.942 368.102 187.456C369.333 186.971 370.445 186.226 371.363 185.273C372.281 184.32 372.982 183.179 373.421 181.931C373.859 180.682 374.024 179.354 373.904 178.037C374.012 176.858 373.866 175.67 373.476 174.553C373.085 173.436 372.46 172.416 371.641 171.562C370.823 170.707 369.831 170.037 368.732 169.599C367.633 169.16 366.452 168.964 365.27 169.021C361.494 168.968 351.139 176.323 346.157 172.974C344.93 171.926 343.945 170.625 343.269 169.159C342.594 167.694 342.244 166.098 342.244 164.485C342.244 162.871 342.594 161.277 343.269 159.812C343.945 158.346 344.93 157.045 346.157 155.997C351.574 152.194 360.591 160.176 367.248 158.996C368.758 158.733 370.162 158.044 371.294 157.01C372.427 155.977 373.241 154.643 373.641 153.163C374.09 151.638 374.151 150.024 373.819 148.469C373.485 146.865 372.68 145.396 371.505 144.253C370.331 143.111 368.841 142.346 367.228 142.057C360.591 140.877 351.568 148.858 346.137 145.048C344.91 144 343.925 142.699 343.249 141.233C342.574 139.768 342.224 138.174 342.224 136.56C342.224 134.947 342.574 133.351 343.249 131.886C343.925 130.42 344.91 129.119 346.137 128.071C351.146 124.703 361.5 132.026 365.25 132.026C366.432 132.083 367.613 131.885 368.712 131.447C369.811 131.008 370.803 130.338 371.622 129.483C372.44 128.629 373.066 127.609 373.456 126.492C373.846 125.375 373.992 124.187 373.885 123.008C374.005 121.691 373.84 120.363 373.401 119.114C372.963 117.866 372.261 116.726 371.343 115.772C370.425 114.819 369.313 114.074 368.083 113.589C366.852 113.103 365.531 112.888 364.209 112.958C359.114 112.819 350.507 121.097 344.766 114.974C339.025 108.851 344.311 101.576 350.975 98.4453C352.886 97.549 361.652 93.9425 366.793 96.9875C372.827 100.971 377.19 107.028 379.058 114.012C381.767 121.617 383.415 129.559 383.956 137.614C384.499 145.433 384.556 153.278 384.127 161.104C383.715 169.948 382.01 178.685 379.078 187.04Z" fill="#264918"/>
<path d="M222.197 151C212.97 151 204.612 158.171 198.318 169.936C192.017 158.178 183.64 151 174.439 151C154.871 151 139 183.46 139 223.5C139 263.54 154.864 296 174.439 296C183.667 296 192.024 288.829 198.318 277.064C204.619 288.829 212.996 296 222.197 296C241.772 296 257.636 263.54 257.636 223.5C257.636 183.46 241.772 151 222.197 151ZM162.022 226.136C162.422 227.616 163.236 228.951 164.369 229.985C165.501 231.018 166.905 231.706 168.415 231.969C175.052 233.149 184.075 225.166 189.506 228.969C190.733 230.018 191.718 231.321 192.394 232.786C193.069 234.252 193.419 235.845 193.419 237.459C193.419 239.073 193.069 240.668 192.394 242.133C191.718 243.599 190.733 244.901 189.506 245.949C184.497 249.317 174.143 241.993 170.393 241.993C169.211 241.937 168.03 242.134 166.931 242.573C165.832 243.011 164.84 243.68 164.021 244.534C163.203 245.389 162.577 246.41 162.187 247.527C161.797 248.644 161.651 249.831 161.758 251.009C161.638 252.327 161.803 253.656 162.242 254.905C162.68 256.153 163.382 257.292 164.3 258.245C165.218 259.199 166.33 259.945 167.561 260.431C168.792 260.916 170.113 261.131 171.434 261.061C176.529 261.2 185.136 252.921 190.877 259.044C196.618 265.167 191.332 272.443 184.669 275.574C182.757 276.47 173.991 280.077 168.85 277.038C162.818 273.054 158.454 266.998 156.585 260.014C153.642 251.644 151.937 242.888 151.523 234.025C151.093 226.199 151.151 218.354 151.694 210.535C152.233 202.481 153.878 194.538 156.585 186.933C158.453 179.949 162.817 173.892 168.85 169.909C173.991 166.87 182.757 170.469 184.669 171.365C191.332 174.496 196.618 181.772 190.877 187.895C185.136 194.018 176.529 185.741 171.434 185.879C170.114 185.815 168.795 186.033 167.567 186.521C166.339 187.009 165.229 187.754 164.312 188.706C163.396 189.658 162.694 190.796 162.253 192.042C161.813 193.288 161.644 194.613 161.758 195.93C161.651 197.108 161.797 198.296 162.187 199.413C162.577 200.53 163.203 201.55 164.021 202.405C164.84 203.259 165.832 203.929 166.931 204.368C168.03 204.806 169.211 205.004 170.393 204.947C174.169 205 184.524 197.644 189.506 200.992C190.733 202.04 191.718 203.341 192.394 204.807C193.069 206.272 193.419 207.868 193.419 209.481C193.419 211.095 193.069 212.689 192.394 214.154C191.718 215.62 190.733 216.921 189.506 217.969C184.089 221.772 175.072 213.798 168.415 214.978C166.802 215.267 165.313 216.032 164.138 217.175C162.964 218.317 162.158 219.786 161.824 221.39C161.489 222.964 161.557 224.596 162.022 226.136ZM240.078 260.04C238.209 267.023 233.845 273.08 227.813 277.064C222.672 280.102 213.906 276.504 211.994 275.601C205.331 272.471 200.045 265.201 205.786 259.071C211.527 252.941 220.134 261.226 225.229 261.087C226.55 261.157 227.871 260.942 229.102 260.456C230.333 259.971 231.445 259.226 232.363 258.273C233.281 257.32 233.982 256.179 234.421 254.931C234.859 253.682 235.024 252.354 234.904 251.037C235.012 249.858 234.866 248.67 234.476 247.553C234.085 246.436 233.46 245.416 232.641 244.562C231.823 243.707 230.831 243.037 229.732 242.599C228.633 242.16 227.452 241.964 226.27 242.021C222.494 241.968 212.139 249.323 207.157 245.974C205.93 244.926 204.945 243.625 204.269 242.159C203.594 240.694 203.244 239.098 203.244 237.485C203.244 235.871 203.594 234.277 204.269 232.812C204.945 231.346 205.93 230.045 207.157 228.997C212.574 225.194 221.591 233.176 228.248 231.996C229.758 231.733 231.162 231.044 232.294 230.01C233.427 228.977 234.241 227.643 234.641 226.163C235.09 224.638 235.151 223.024 234.819 221.469C234.485 219.865 233.68 218.396 232.505 217.253C231.331 216.111 229.841 215.346 228.228 215.057C221.591 213.877 212.568 221.858 207.137 218.048C205.91 217 204.925 215.699 204.249 214.233C203.574 212.768 203.224 211.174 203.224 209.56C203.224 207.947 203.574 206.351 204.249 204.886C204.925 203.42 205.91 202.119 207.137 201.071C212.146 197.703 222.5 205.026 226.25 205.026C227.432 205.083 228.613 204.885 229.712 204.447C230.811 204.008 231.803 203.338 232.622 202.483C233.44 201.629 234.066 200.609 234.456 199.492C234.846 198.375 234.992 197.187 234.885 196.008C235.005 194.691 234.84 193.363 234.401 192.114C233.963 190.866 233.261 189.726 232.343 188.772C231.425 187.819 230.313 187.074 229.083 186.589C227.852 186.103 226.531 185.888 225.209 185.958C220.114 185.819 211.507 194.097 205.766 187.974C200.025 181.851 205.311 174.576 211.975 171.445C213.886 170.549 222.652 166.942 227.793 169.987C233.827 173.971 238.19 180.028 240.058 187.012C242.767 194.617 244.415 202.559 244.956 210.614C245.499 218.433 245.556 226.278 245.127 234.104C244.715 242.948 243.01 251.685 240.078 260.04Z" fill="#264918"/>
<path d="M222.197 0C212.97 0 204.612 7.17122 198.318 18.936C192.017 7.17781 183.64 0 174.439 0C154.871 0 139 32.4602 139 72.5C139 112.54 154.864 145 174.439 145C183.667 145 192.024 137.829 198.318 126.064C204.619 137.829 212.996 145 222.197 145C241.772 145 257.636 112.54 257.636 72.5C257.636 32.4602 241.772 0 222.197 0ZM162.022 75.1357C162.422 76.6156 163.236 77.9515 164.369 78.9847C165.501 80.0179 166.905 80.7057 168.415 80.9687C175.052 82.1485 184.075 74.1664 189.506 77.9694C190.733 79.0175 191.718 80.3207 192.394 81.7862C193.069 83.2517 193.419 84.8453 193.419 86.459C193.419 88.0727 193.069 89.668 192.394 91.1335C191.718 92.599 190.733 93.9005 189.506 94.9487C184.497 98.3166 174.143 90.9935 170.393 90.9935C169.211 90.9367 168.03 91.1344 166.931 91.5728C165.832 92.0111 164.84 92.6796 164.021 93.5343C163.203 94.3889 162.577 95.4102 162.187 96.5272C161.797 97.6443 161.651 98.831 161.758 100.009C161.638 101.327 161.803 102.656 162.242 103.905C162.68 105.153 163.382 106.292 164.3 107.245C165.218 108.199 166.33 108.945 167.561 109.431C168.792 109.916 170.113 110.131 171.434 110.061C176.529 110.2 185.136 101.921 190.877 108.044C196.618 114.167 191.332 121.443 184.669 124.574C182.757 125.47 173.991 129.077 168.85 126.038C162.818 122.054 158.454 115.998 156.585 109.014C153.642 100.644 151.937 91.8879 151.523 83.0252C151.093 75.1992 151.151 67.3543 151.694 59.5354C152.233 51.4808 153.878 43.5384 156.585 35.933C158.453 28.9487 162.817 22.8917 168.85 18.9086C173.991 15.8702 182.757 19.4685 184.669 20.3649C191.332 23.4956 196.618 30.7723 190.877 36.8953C185.136 43.0182 176.529 34.7406 171.434 34.879C170.114 34.8148 168.795 35.0334 167.567 35.5211C166.339 36.0087 165.229 36.7541 164.312 37.7062C163.396 38.6584 162.694 39.7959 162.253 41.0419C161.813 42.2879 161.644 43.6129 161.758 44.9295C161.651 46.1079 161.797 47.2962 162.187 48.4133C162.577 49.5303 163.203 50.5499 164.021 51.4046C164.84 52.2592 165.832 52.9293 166.931 53.3677C168.03 53.8061 169.211 54.0038 170.393 53.947C174.169 53.9997 184.524 46.6436 189.506 49.9918C190.733 51.0399 191.718 52.3415 192.394 53.807C193.069 55.2725 193.419 56.8677 193.419 58.4814C193.419 60.0951 193.069 61.6888 192.394 63.1543C191.718 64.6198 190.733 65.9213 189.506 66.9695C184.089 70.7724 175.072 62.7984 168.415 63.9782C166.802 64.2675 165.313 65.0317 164.138 66.1746C162.964 67.3174 162.158 68.7859 161.824 70.3905C161.489 71.9637 161.557 73.5958 162.022 75.1357ZM240.078 109.04C238.209 116.023 233.845 122.08 227.813 126.064C222.672 129.102 213.906 125.504 211.994 124.601C205.331 121.471 200.045 114.201 205.786 108.071C211.527 101.941 220.134 110.226 225.229 110.087C226.55 110.157 227.871 109.942 229.102 109.456C230.333 108.971 231.445 108.226 232.363 107.273C233.281 106.32 233.982 105.179 234.421 103.931C234.859 102.682 235.024 101.354 234.904 100.037C235.012 98.8583 234.866 97.67 234.476 96.553C234.085 95.4359 233.46 94.4163 232.641 93.5616C231.823 92.707 230.831 92.0369 229.732 91.5985C228.633 91.1601 227.452 90.964 226.27 91.0208C222.494 90.9681 212.139 98.3226 207.157 94.9744C205.93 93.9263 204.945 92.6247 204.269 91.1592C203.594 89.6937 203.244 88.0985 203.244 86.4848C203.244 84.8711 203.594 83.2774 204.269 81.8119C204.945 80.3464 205.93 79.0449 207.157 77.9967C212.574 74.1938 221.591 82.1759 228.248 80.9961C229.758 80.7331 231.162 80.0437 232.294 79.0105C233.427 77.9772 234.241 76.643 234.641 75.1631C235.09 73.638 235.151 72.024 234.819 70.4693C234.485 68.8648 233.68 67.3963 232.505 66.2534C231.331 65.1106 229.841 64.3463 228.228 64.057C221.591 62.8772 212.568 70.8579 207.137 67.0483C205.91 66.0002 204.925 64.6987 204.249 63.2331C203.574 61.7676 203.224 60.174 203.224 58.5603C203.224 56.9466 203.574 55.3513 204.249 53.8858C204.925 52.4203 205.91 51.1188 207.137 50.0706C212.146 46.7027 222.5 54.0258 226.25 54.0258C227.432 54.0826 228.613 53.8849 229.712 53.4465C230.811 53.0082 231.803 52.3381 232.622 51.4834C233.44 50.6288 234.066 49.6091 234.456 48.4921C234.846 47.3751 234.992 46.1867 234.885 45.0084C235.005 43.6906 234.84 42.3628 234.401 41.1143C233.963 39.8658 233.261 38.7256 232.343 37.7722C231.425 36.8189 230.313 36.0744 229.083 35.5887C227.852 35.1029 226.531 34.8882 225.209 34.9579C220.114 34.8195 211.507 43.0971 205.766 36.9741C200.025 30.8511 205.311 23.576 211.975 20.4453C213.886 19.549 222.652 15.9425 227.793 18.9875C233.827 22.9705 238.19 29.0276 240.058 36.0119C242.767 43.6169 244.415 51.5593 244.956 59.6143C245.499 67.4331 245.556 75.278 245.127 83.104C244.715 91.9481 243.01 100.685 240.078 109.04Z" fill="#264918"/>
</svg>
