<svg width="28" height="34" viewBox="0 0 28 34" fill="none" xmlns="http://www.w3.org/2000/svg">
<path d="M25.5008 20.5C27.5 18 27.9242 17.8396 25.4242 14.3396C22.9242 10.8396 1.63631 -0.832447 0.924212 0.839636C0.212119 2.51172 -0.287881 32.8444 1.71283 33.5116C3.71355 34.1789 23.5015 23 25.5008 20.5Z" fill="#982F22"/>
<path fill-rule="evenodd" clip-rule="evenodd" d="M9.11029 28.7094C-0.803714 34.6304 2.25729 26.3514 2.18429 16.3454C2.16429 13.5264 1.23829 6.40436 3.29129 4.77036C1.58029 1.99336 20.9903 13.5144 22.9413 14.6874C30.5213 19.2464 18.8203 22.9054 13.4003 26.1144C11.9623 26.9664 10.5383 27.8404 9.11029 28.7094ZM14.0163 23.3334C14.0383 23.3744 24.8343 18.4524 23.2153 17.2824C21.8993 16.3314 4.36329 6.18736 4.20929 6.86336C4.04029 7.60336 4.28029 28.8034 4.34829 28.8584C4.31929 28.8224 12.9223 23.9614 14.0163 23.3334Z" fill="#EEC97C"/>
<path fill-rule="evenodd" clip-rule="evenodd" d="M11.3913 22.5168C7.04226 25.9798 7.48226 19.3388 6.91826 15.2968C6.24526 10.4658 11.5883 14.0098 14.5733 15.1538C14.5483 15.1458 19.9903 15.9908 15.2143 19.5308C13.8943 20.5088 12.6643 21.4788 11.3913 22.5168ZM12.4883 19.2058C16.3423 16.2488 16.7573 18.2608 10.3203 15.4878C7.15027 14.1228 8.77725 14.2608 9.34225 18.5998C9.92325 23.0718 8.25227 22.4878 12.4883 19.2058Z" fill="#EEC97C"/>
</svg>
