<svg width="547" height="642" viewBox="0 0 547 642" fill="none" xmlns="http://www.w3.org/2000/svg">
<path fill-rule="evenodd" clip-rule="evenodd" d="M492.208 234.088C511.354 263.578 524.547 296.115 531.094 329.172C550.422 426.755 506.896 532.63 424.849 589.016C356.677 635.87 260.042 661.146 167.885 623.297C29.7083 566.552 -35.9271 407.646 21.2865 268.38C69.6042 150.75 174.141 81.0624 292.151 106.281C365.849 122.031 352.349 138.713 386.245 61.9426C399.302 78.3593 425.307 96.9322 451.505 115.229C469.729 127.953 491.125 141.708 509.359 147.766C497 156.172 486.63 167.542 478.354 182.01C462.359 209.969 475.047 207.651 492.208 234.088Z" fill="#AA95FA"/>
<path fill-rule="evenodd" clip-rule="evenodd" d="M485.76 155.906C475.167 170.292 466.583 181.641 462.38 184.026C431.583 184.026 377.047 147.604 375.37 119.167C379.313 111.281 384.385 101.375 389.953 90.7136C403.703 102.896 421.854 115.771 440.104 128.51C454.385 138.484 470.625 148.912 485.76 155.906Z" fill="#5B2F63"/>
<path fill-rule="evenodd" clip-rule="evenodd" d="M417.969 43.8384C458.109 59.5884 509.036 92.0937 531.724 116.437C554.411 140.781 540.266 147.75 500.12 132.005C459.984 116.255 409.057 83.7499 386.365 59.4062C363.682 35.0624 377.828 28.0937 417.969 43.8384Z" fill="#B5A1ED"/>
<path fill-rule="evenodd" clip-rule="evenodd" d="M350.37 143.635C434.729 177.094 515.271 292.062 512.365 396.156C511.724 419.052 503.896 441.651 494.719 462.495C464.938 530.073 395.844 594.385 339.568 606.552C279.932 625.432 225.464 625.062 163.448 597.307C132.453 583.427 101.292 559.516 82.3229 537.828C43.0156 492.88 16.776 431.359 17.2292 370.557C17.4219 344.708 33.7031 266.88 51.1719 243.818L50.6927 246.719L49.5677 248.906L32.1406 302.443C34.401 312.229 29.4219 312.589 27.599 316.719C8.67187 412.396 58.0365 515.818 134.052 566.359C238.328 635.688 357.208 607.323 418.792 556.172L421.276 554.484L427.307 549.74L428.406 547.818C428.885 547.609 429.76 546.682 429.781 547.052C429.797 547.417 430.865 546.427 431.125 546.229C446.458 534.635 479.349 477.766 491.875 455.359C494.135 439.401 496.083 427.188 497.776 417.807C466.24 418.661 389.302 406.698 263.12 362.927C136.938 319.161 44.4688 263.479 51.2708 243.854C54.7865 233.719 86.9219 181.448 148.38 150.937C205.906 122.38 289.786 119.615 350.37 143.641V143.635Z" fill="#180A59"/>
<path fill-rule="evenodd" clip-rule="evenodd" d="M469.219 497.229C485.896 466.234 500.339 443.594 510.833 404.865L510.672 404.838V404.849C503.901 424.682 395.771 404.573 269.151 359.932C190.49 332.193 123.208 301.526 85.1406 277.505C63.3646 299 62.4687 332.63 85.1302 374.333C132.318 461.13 149.641 581.615 200.24 583.203C240.635 602.87 272.964 599.01 312.807 596C352.307 593.016 393.151 575.63 423.854 553.292C442.411 539.797 456.229 518.088 469.214 497.224L469.219 497.229Z" fill="#4C25E4"/>
<path fill-rule="evenodd" clip-rule="evenodd" d="M89.3802 280.135C96.5105 237.213 157.208 252.885 184.625 256.203C185.255 256.281 189.354 257.245 187.63 255.682C187.036 255.156 185.807 254.641 183.823 254.146C117.677 234.146 65.3646 230.807 54.3177 240.146C42.6823 249.99 72.099 274.838 89.3802 280.141V280.135Z" fill="#B9F4FA"/>
<path fill-rule="evenodd" clip-rule="evenodd" d="M162.922 302.828C163.521 299.276 203.172 327.427 230.224 329.823C259.385 332.411 276.146 309.224 278.276 303.708C280.177 298.776 260.276 275.521 194.104 261.885C156.771 254.193 134.734 257.021 127.875 262.838C121.818 267.958 120.193 276.359 128.875 284.74C136.88 292.463 154.641 300.292 162.922 302.828Z" fill="#B9F4FA"/>
<path fill-rule="evenodd" clip-rule="evenodd" d="M134.047 566.349C238.318 635.682 357.203 607.313 418.786 556.167L421.271 554.479C438.193 540.229 427.484 543.75 420.25 548.891C330.318 621.495 121.063 587.766 235.781 554.75C249.443 550.813 265.094 552.26 278.708 546.51C329.62 524.979 353.76 464.01 317.797 425.167C288.135 393.125 244.719 393.906 223.078 426.641C194.5 469.875 233.542 521.078 247.964 473.297C251.271 462.339 265.912 435.516 284.833 455.537C320.849 493.63 268.01 525.74 243.526 527.682C214.292 529.995 180.958 520.75 177.135 482.484C176.057 471.698 178.276 456.906 182.115 445.568C193.422 412.151 213.182 358.719 186.807 343.193C178.729 338.443 169.589 335.542 160.427 335.385C138.807 335.021 131.531 345.531 120.182 356.979C93.5209 383.88 71.7084 345.578 117.745 332.807C140.125 326.599 123.677 312.88 94.8751 313.917C48.4063 315.594 96.0521 304.974 89.2865 280.089C84.2917 277.828 77.9011 273.469 71.7605 268.479C61.2449 260.76 54.5834 254.01 52.5105 248.63C51.7292 247.37 52.3907 244.115 52.1355 243.151C1.35422 352.547 9.46881 482.417 134.042 566.359L134.047 566.349Z" fill="#68D4ED"/>
<path fill-rule="evenodd" clip-rule="evenodd" d="M293.667 288.109C420.281 332.75 517.438 385.021 510.672 404.854C503.901 424.687 395.771 404.578 269.151 359.932C193.328 333.203 128.083 303.74 89.3802 280.135L92.0833 259.156C93.4583 257.734 94.5573 256.583 95.4687 255.646C110.906 239.802 167.417 253.849 187.687 256.526L183.49 254.062C216.776 262.734 254.328 274.24 293.667 288.104V288.109ZM209.516 288.641C221.24 293.312 232.401 297.776 238.859 304.687C245.74 312.047 247.104 320.719 236.406 324.792C222.156 330.214 199.385 315.594 182.578 309.359C174.177 306.24 171.719 306.661 164.63 300.156C158.641 295.448 145.958 294.031 137.385 287.589C132.208 283.703 128.208 278.953 136.349 275.604C139.755 274.203 143.51 275.073 149.802 274.234C146.448 271.229 143.922 269.297 142.089 267.24C132.786 256.818 144.734 257.578 152.266 258.094C205.547 261.714 349.578 323.958 228.786 291.302C221.625 289.365 215.943 287.427 209.51 288.646L209.516 288.641Z" fill="#AA95FA"/>
<path fill-rule="evenodd" clip-rule="evenodd" d="M180.094 169.896C175.208 200.786 221.38 193.63 238.135 190.88C257.802 187.656 287.062 186.75 282.245 160.896C275.865 143.234 260.464 132.927 238.187 136.135C226.854 137.76 182.255 156.187 180.094 169.896Z" fill="#FEFEFE"/>
<path fill-rule="evenodd" clip-rule="evenodd" d="M545.24 79.203C534.208 93.1301 521.26 108.213 509.62 124.005C483.688 124.917 414.714 79.4322 410.938 59.6249C419.729 43.1718 431.781 21.8489 442.068 3.33325L545.057 76.6458C546.354 77.5676 544.234 78.2812 545.24 79.203Z" fill="#AA703D"/>
<mask id="mask0_21_411" style="mask-type:luminance" maskUnits="userSpaceOnUse" x="438" y="0" width="109" height="83">
<path d="M438.667 0.833252H546.667V82.6666H438.667V0.833252Z" fill="white"/>
</mask>
<g mask="url(#mask0_21_411)">
<path fill-rule="evenodd" clip-rule="evenodd" d="M471.875 7.40099C499.068 19.552 530.562 44.6302 542.224 63.4114C553.891 82.1926 541.307 87.5677 514.115 75.4166C486.922 63.2708 455.422 38.1979 443.76 19.4114C432.094 0.630154 444.682 -4.75005 471.875 7.40099Z" fill="#FAB86E"/>
</g>
<path fill-rule="evenodd" clip-rule="evenodd" d="M541.844 137.172C541.849 137.052 538.401 141.177 528.927 140.182C518.828 139.12 502.516 132.938 500.12 132C459.979 116.255 409.052 83.7448 386.365 59.401C377.328 49.7031 374.141 42.7656 376.115 38.9219C374.474 39.4375 373.031 40.5521 371.766 42.3542C368.687 46.7708 364.875 55.0573 367.302 62.3229C373.708 81.4844 402.615 106.917 435.969 130.198C460.187 147.115 494.141 163.625 514.714 164.214C528.516 164.604 541.417 146.37 541.849 137.172H541.844Z" fill="#8A79BA"/>
<path fill-rule="evenodd" clip-rule="evenodd" d="M404.172 353.99C411.552 359.969 421.229 365 430.38 367.068C441.922 369.672 460.125 368.912 437.458 356.885C428.438 352.104 417.307 347.792 408.182 346.135C394.896 343.724 393.724 345.526 404.172 353.99Z" fill="#B9F4FA"/>
<path fill-rule="evenodd" clip-rule="evenodd" d="M309.536 313.526C316.161 317.516 327.693 323.005 338.667 326.464C354.531 331.458 370.411 327.344 351.37 322.776C344.333 321.089 342.25 320.729 335.063 317.901C326.505 314.531 319.531 310.521 312.411 309.422C305.182 308.297 301.208 308.505 309.531 313.526H309.536Z" fill="#B9F4FA"/>
<path d="M172.214 183.912C172.349 184.724 172.406 185.542 172.385 186.359C172.365 187.182 172.266 187.99 172.089 188.792C171.917 189.589 171.667 190.359 171.349 191.104C171.026 191.849 170.635 192.557 170.182 193.219C169.724 193.885 169.214 194.495 168.641 195.052C168.068 195.609 167.448 196.104 166.776 196.531C166.109 196.958 165.406 197.313 164.672 197.599C163.932 197.88 163.177 198.089 162.401 198.214C161.62 198.344 160.839 198.391 160.047 198.359C159.26 198.323 158.479 198.214 157.714 198.021C156.943 197.828 156.198 197.557 155.474 197.214C154.755 196.87 154.073 196.458 153.427 195.974C152.781 195.49 152.187 194.948 151.646 194.344C151.104 193.74 150.62 193.089 150.203 192.385C149.781 191.688 149.427 190.948 149.146 190.177C148.865 189.406 148.656 188.62 148.521 187.807C148.391 186.995 148.333 186.177 148.354 185.359C148.375 184.537 148.474 183.729 148.646 182.927C148.823 182.13 149.068 181.359 149.391 180.615C149.714 179.87 150.099 179.162 150.557 178.5C151.01 177.833 151.526 177.224 152.099 176.667C152.672 176.109 153.292 175.615 153.958 175.188C154.625 174.76 155.328 174.406 156.068 174.12C156.802 173.839 157.557 173.63 158.339 173.505C159.115 173.375 159.901 173.328 160.687 173.359C161.474 173.396 162.255 173.505 163.026 173.698C163.797 173.891 164.542 174.162 165.26 174.505C165.984 174.849 166.667 175.26 167.307 175.745C167.953 176.229 168.547 176.771 169.089 177.375C169.635 177.979 170.115 178.63 170.536 179.333C170.958 180.031 171.307 180.771 171.589 181.542C171.875 182.313 172.083 183.099 172.214 183.912Z" fill="#FEFEFE"/>
</svg>
