<svg width="1167" height="1001" viewBox="0 0 1167 1001" fill="none" xmlns="http://www.w3.org/2000/svg">
<mask id="mask0_2_173" style="mask-type:luminance" maskUnits="userSpaceOnUse" x="87" y="853" width="994" height="24">
<path d="M87.9329 853.839H1080.29V876.509H87.9329V853.839Z" fill="white"/>
</mask>
<g mask="url(#mask0_2_173)">
<mask id="mask1_2_173" style="mask-type:luminance" maskUnits="userSpaceOnUse" x="87" y="853" width="993" height="24">
<path d="M87.9329 865.001C87.9329 858.887 92.9047 853.932 99.0228 853.932H1068.86C1074.97 853.932 1079.95 858.887 1079.95 865.001C1079.95 871.115 1074.97 876.084 1068.86 876.084L99.0228 876.47C92.9047 876.47 87.9329 871.115 87.9329 865.001Z" fill="white"/>
</mask>
<g mask="url(#mask1_2_173)">
<path d="M1079.95 853.932H87.9329V876.47H1079.95V853.932Z" fill="url(#paint0_linear_2_173)"/>
</g>
</g>
<path fill-rule="evenodd" clip-rule="evenodd" d="M722.977 222.301C741.225 250.407 753.781 281.416 760.019 312.918C778.44 405.92 736.973 506.82 658.81 560.554C593.87 605.204 501.805 629.286 414.019 593.215C282.38 539.149 219.852 387.698 274.355 254.975C320.381 142.872 419.977 76.4713 532.396 100.501C602.601 115.513 589.738 131.404 622.035 58.2359C634.471 73.8871 659.25 91.5897 684.202 109.026C701.57 121.147 721.951 134.254 739.319 140.035C727.549 148.041 717.672 158.883 709.781 172.67C694.546 199.31 706.635 197.099 722.977 222.301Z" fill="#AA95FA"/>
<mask id="mask2_2_173" style="mask-type:luminance" maskUnits="userSpaceOnUse" x="0" y="659" width="125" height="148">
<path d="M0 659.47H124.855V806.099H0V659.47Z" fill="white"/>
</mask>
<g mask="url(#mask2_2_173)">
<path d="M0 804.98H74.1505C103.515 804.98 123.948 788.45 123.948 764.673C123.948 749.381 115.711 737.007 102.075 731C113.205 724.593 119.616 713.017 119.616 699.164C119.616 675.388 100.622 660.309 70.4583 660.309H0V804.98ZM40.9074 773.984V746.917H66.1129C76.0299 746.917 81.6015 751.872 81.6015 760.344C81.6015 769.015 76.0299 773.984 66.1129 773.984H40.9074ZM40.9074 717.147V691.132H62.6074C72.2977 691.132 77.696 695.861 77.696 704.119C77.696 712.618 72.2977 717.147 62.6074 717.147H40.9074Z" fill="#4C25E4"/>
</g>
<path d="M165.469 804.98H266.278V766.338H207.216V660.309H165.469V804.98Z" fill="#4C25E4"/>
<path d="M292.723 804.98H336.923L344.774 784.507H394.158L401.996 804.98H446.449L390.24 660.309H348.906L292.723 804.98ZM353.451 753.937L369.579 709.075L385.681 753.937H353.451Z" fill="#4C25E4"/>
<mask id="mask3_2_173" style="mask-type:luminance" maskUnits="userSpaceOnUse" x="472" y="656" width="158" height="153">
<path d="M472.907 656.06H629.872V808.164H472.907V656.06Z" fill="white"/>
</mask>
<g mask="url(#mask3_2_173)">
<path d="M550.55 808.097C590.418 808.097 620.582 783.894 626.767 747.13H584.406C579.275 760.77 567.078 769.415 551.35 769.415C531.129 769.415 517.067 754.337 517.067 732.651C517.067 710.726 531.316 695.861 551.776 695.861C566.865 695.861 579.448 704.333 583.793 717.36H625.967C618.516 680.782 588.752 657.219 550.124 657.219C505.484 657.219 474.707 688.015 474.707 732.651C474.707 777.301 505.484 808.084 550.55 808.084V808.097Z" fill="#4C25E4"/>
</g>
<path d="M668.914 804.98H710.647V750.207H728.815L756.513 804.98H804.845L766.83 734.716C771.162 729.548 775.108 722.714 778.4 714.243L799.887 660.309H754.634L741.611 696.487C737.279 709.075 732.534 712.178 717.672 712.178H710.661V660.309H668.914V804.98Z" fill="#4C25E4"/>
<path d="M952.133 731.959L996.226 661.375V660.03H934.565L904.494 719.265L874.917 660.03H813.256V661.375L857.109 731.959L813.256 803.635V804.98H874.917L904.494 745.745L934.565 804.98H996.226V803.635L952.133 731.959Z" fill="#33BDFE"/>
<mask id="mask4_2_173" style="mask-type:luminance" maskUnits="userSpaceOnUse" x="998" y="659" width="169" height="148">
<path d="M998.399 659.47H1167V806.099H998.399V659.47Z" fill="white"/>
</mask>
<g mask="url(#mask4_2_173)">
<path d="M1065.27 761.33H1121.8C1126.04 761.33 1129.82 760.451 1132.93 758L1158.52 741.962C1163.85 738.179 1167 731.959 1167 725.698V702.121C1167 673.39 1146.09 660.03 1112.68 660.03H1000.49V804.98H1052.8V735.528L1065.27 761.33ZM1052.8 694.982H1103.54C1109.54 694.982 1114.46 699.657 1114.46 705.904V715.482C1114.46 721.489 1109.54 726.377 1103.33 726.377H1052.8V694.982Z" fill="#33BDFE"/>
</g>
<path fill-rule="evenodd" clip-rule="evenodd" d="M716.832 147.788C706.742 161.494 698.571 172.31 694.559 174.588C665.221 174.588 613.277 139.875 611.678 112.769C615.423 105.27 620.262 95.8256 625.567 85.6622C638.67 97.2775 655.958 109.545 673.339 121.68C686.948 131.191 702.423 141.128 716.832 147.788Z" fill="#5B2F63"/>
<path fill-rule="evenodd" clip-rule="evenodd" d="M652.252 40.9863C690.494 55.9982 739.012 86.981 760.619 110.171C782.239 133.375 768.763 140.022 730.521 125.01C692.28 109.998 643.761 79.0288 622.141 55.825C600.535 32.6212 614.011 25.9877 652.252 40.9863Z" fill="#B5A1ED"/>
<path fill-rule="evenodd" clip-rule="evenodd" d="M587.859 136.093C668.22 167.981 744.943 277.553 742.184 376.749C741.571 398.581 734.12 420.106 725.376 439.966C696.998 504.383 631.179 565.669 577.568 577.258C520.759 595.253 468.869 594.907 409.78 568.453C380.256 555.226 350.572 532.435 332.497 511.762C295.056 468.925 270.05 410.302 270.49 352.359C270.676 327.717 286.178 253.55 302.827 231.572L302.373 234.329L301.294 236.42L284.699 287.45C286.845 296.774 282.1 297.107 280.367 301.05C262.332 392.227 309.371 490.783 381.775 538.962C481.118 605.03 594.363 577.99 653.038 529.252L655.398 527.64L661.156 523.111L662.196 521.286C662.662 521.086 663.489 520.207 663.502 520.554C663.529 520.913 664.542 519.968 664.795 519.768C679.39 508.725 710.727 454.525 722.657 433.173C724.816 417.961 726.669 406.32 728.282 397.382C698.238 398.208 624.94 386.792 504.738 345.087C384.535 303.381 296.442 250.313 302.92 231.612C306.265 221.955 336.883 172.137 395.425 143.059C450.234 115.846 530.143 113.208 587.859 136.106V136.093Z" fill="#2C1749"/>
<path fill-rule="evenodd" clip-rule="evenodd" d="M701.077 473.08C716.965 443.536 730.721 421.957 740.718 385.047L740.571 385.034C734.12 403.935 631.112 384.767 510.482 342.223C435.546 315.795 371.445 286.571 335.19 263.673C314.436 284.16 313.583 316.208 335.177 355.956C380.123 438.674 396.624 553.495 444.836 555.013C483.318 573.755 514.108 570.078 552.07 567.201C589.698 564.364 628.606 547.794 657.864 526.508C675.538 513.64 688.707 492.954 701.077 473.067V473.08Z" fill="#4C25E4"/>
<path fill-rule="evenodd" clip-rule="evenodd" d="M339.229 266.191C346.013 225.285 403.835 240.217 429.961 243.373C430.56 243.453 434.466 244.359 432.826 242.881C432.253 242.374 431.08 241.882 429.188 241.415C366.18 222.354 316.342 219.171 305.826 228.069C294.736 237.446 322.767 261.129 339.229 266.191Z" fill="#B9F4FA"/>
<path fill-rule="evenodd" clip-rule="evenodd" d="M409.287 287.81C409.847 284.426 447.622 311.253 473.401 313.531C501.179 316.009 517.147 293.897 519.173 288.649C520.986 283.947 502.032 261.782 438.985 248.795C403.422 241.455 382.429 244.159 375.897 249.701C370.126 254.576 368.58 262.581 376.844 270.573C384.481 277.926 401.396 285.385 409.287 287.81Z" fill="#B9F4FA"/>
<path fill-rule="evenodd" clip-rule="evenodd" d="M381.776 538.949C481.105 605.017 594.363 577.99 653.038 529.239L655.398 527.64C671.526 514.053 661.316 517.41 654.425 522.312C568.758 591.51 369.406 559.355 478.692 527.893C491.715 524.15 506.617 525.522 519.586 520.048C568.091 499.521 591.084 441.418 556.828 404.402C528.57 373.872 487.21 374.604 466.589 405.8C439.371 447.013 476.56 495.805 490.302 450.263C493.448 439.82 507.39 414.258 525.425 433.346C559.734 469.644 509.403 500.254 486.077 502.092C458.219 504.303 426.468 495.498 422.816 459.028C421.803 448.744 423.909 434.652 427.561 423.849C438.345 392 457.166 341.077 432.04 326.278C424.336 321.75 415.632 318.979 406.901 318.832C386.307 318.486 379.376 328.503 368.566 339.412C343.174 365.054 322.394 328.556 366.247 316.382C387.574 310.467 371.899 297.387 344.454 298.373C300.187 299.971 345.573 289.848 339.135 266.138C334.377 263.98 328.285 259.824 322.434 255.069C312.424 247.716 306.079 241.282 304.106 236.154C303.36 234.955 303.986 231.852 303.746 230.932C255.361 335.19 263.092 458.961 381.776 538.962V538.949Z" fill="#68D4ED"/>
<path fill-rule="evenodd" clip-rule="evenodd" d="M533.835 273.784C654.465 316.328 747.023 366.133 740.572 385.047C734.12 403.949 631.112 384.781 510.483 342.236C438.251 316.754 376.097 288.675 339.229 266.191L341.801 246.197C343.108 244.839 344.161 243.733 345.027 242.841C359.729 227.749 413.566 241.136 432.88 243.68L428.881 241.335C460.591 249.594 496.354 260.557 533.835 273.784ZM453.673 274.29C464.843 278.739 475.48 282.988 481.625 289.581C488.183 296.601 489.476 304.86 479.292 308.736C465.71 313.904 444.023 299.971 428.015 294.03C420.004 291.06 417.671 291.459 410.913 285.266C405.208 280.777 393.119 279.431 384.961 273.291C380.029 269.588 376.217 265.059 383.975 261.862C387.214 260.53 390.799 261.356 396.784 260.557C393.599 257.693 391.186 255.855 389.44 253.896C380.576 243.96 391.959 244.692 399.13 245.172C449.888 248.622 587.099 307.95 472.028 276.821C465.203 274.982 459.792 273.131 453.673 274.29Z" fill="#AA95FA"/>
<path fill-rule="evenodd" clip-rule="evenodd" d="M425.642 161.121C420.99 190.559 464.977 183.739 480.932 181.128C499.672 178.051 527.544 177.185 522.959 152.543C516.881 135.72 502.205 125.889 480.985 128.953C470.188 130.498 427.708 148.054 425.642 161.121Z" fill="#FEFEFE"/>
<path fill-rule="evenodd" clip-rule="evenodd" d="M773.495 74.6864C762.991 87.9666 750.662 102.339 739.572 117.391C714.859 118.257 649.146 74.9128 645.561 56.0381C653.932 40.3602 665.408 20.0336 675.218 2.38428L773.321 72.2488C774.561 73.1279 772.548 73.8206 773.495 74.6864Z" fill="#AA703D"/>
<mask id="mask5_2_173" style="mask-type:luminance" maskUnits="userSpaceOnUse" x="670" y="0" width="107" height="80">
<path d="M670.82 0H776.6V79.7747H670.82V0Z" fill="white"/>
</mask>
<g mask="url(#mask5_2_173)">
<path fill-rule="evenodd" clip-rule="evenodd" d="M703.61 6.26047C729.508 17.8357 759.526 41.7455 770.629 59.6479C781.745 77.5369 769.749 82.6652 743.85 71.0899C717.938 59.5013 687.934 35.6049 676.831 17.7025C665.715 -0.186511 677.698 -5.31479 703.61 6.26047Z" fill="#FAB86E"/>
</g>
<path fill-rule="evenodd" clip-rule="evenodd" d="M770.269 129.939C770.269 129.819 766.99 133.748 757.953 132.802C748.342 131.79 732.8 125.903 730.521 125.01C692.28 109.998 643.761 79.0154 622.141 55.8249C613.531 46.5807 610.505 39.9605 612.384 36.2975C610.825 36.7903 609.439 37.8559 608.239 39.5743C605.306 43.7834 601.668 51.6823 603.987 58.6088C610.092 76.8575 637.63 101.1 669.407 123.292C692.48 139.409 724.816 155.154 744.424 155.713C757.566 156.086 769.856 138.703 770.269 129.939Z" fill="#8A79BA"/>
<path fill-rule="evenodd" clip-rule="evenodd" d="M639.11 336.562C646.147 342.263 655.358 347.058 664.075 349.029C675.072 351.507 692.413 350.788 670.82 339.332C662.236 334.777 651.626 330.661 642.935 329.076C630.272 326.785 629.153 328.503 639.11 336.562Z" fill="#B9F4FA"/>
<path fill-rule="evenodd" clip-rule="evenodd" d="M548.951 298C555.269 301.809 566.252 307.044 576.715 310.334C591.817 315.089 606.946 311.173 588.805 306.818C582.1 305.219 580.128 304.873 573.276 302.169C565.119 298.959 558.481 295.136 551.696 294.097C544.805 293.018 541.02 293.218 548.951 298Z" fill="#B9F4FA"/>
<path d="M418.138 174.481C418.391 176.04 418.351 177.598 418.018 179.13C417.684 180.662 417.071 182.074 416.205 183.353C415.325 184.631 414.245 185.684 412.953 186.51C411.673 187.335 410.287 187.868 408.78 188.108C407.288 188.361 405.795 188.294 404.315 187.921C402.836 187.562 401.476 186.909 400.236 185.977C398.997 185.044 397.97 183.899 397.171 182.553C396.358 181.208 395.824 179.756 395.571 178.198C395.305 176.626 395.345 175.081 395.691 173.549C396.024 172.004 396.624 170.605 397.504 169.326C398.384 168.048 399.463 166.995 400.743 166.17C402.036 165.344 403.422 164.811 404.915 164.558C406.408 164.318 407.901 164.371 409.38 164.744C410.86 165.117 412.219 165.77 413.459 166.702C414.699 167.635 415.725 168.767 416.538 170.112C417.351 171.471 417.884 172.923 418.138 174.481Z" fill="#FEFEFE"/>
<path d="M210.436 999.775H179.512C178.473 999.775 177.726 999.548 177.273 999.082C176.806 998.629 176.58 997.896 176.58 996.897V944.682C176.58 943.656 176.806 942.911 177.273 942.444C177.726 941.991 178.473 941.752 179.512 941.752H205.211C210.463 941.752 214.355 942.764 216.887 944.789C219.407 946.813 220.673 949.93 220.673 954.113V957.949C220.673 960.227 220.273 962.078 219.5 963.49C218.753 964.916 217.554 965.981 215.928 966.687C219.367 967.007 221.926 968.206 223.605 970.257C225.271 972.282 226.111 975.252 226.111 979.155V986.561C226.111 991.076 224.832 994.42 222.272 996.578C219.713 998.709 215.768 999.775 210.436 999.775ZM194.761 955.445V964.183H201.585C202.612 964.183 203.372 963.917 203.878 963.384C204.411 962.824 204.678 961.998 204.678 960.933V958.695C204.678 957.629 204.411 956.83 203.878 956.297C203.372 955.738 202.612 955.445 201.585 955.445H194.761ZM194.761 976.597V986.081H205.211C206.237 986.081 206.997 985.815 207.504 985.282C208.037 984.749 208.303 983.937 208.303 982.831V979.741C208.303 978.649 208.037 977.849 207.504 977.343C206.997 976.85 206.237 976.597 205.211 976.597H194.761Z" fill="#68D4ED"/>
<path d="M278.959 999.775H237.958C236.918 999.775 236.172 999.548 235.719 999.082C235.252 998.629 235.026 997.896 235.026 996.897V944.682C235.026 943.656 235.252 942.911 235.719 942.444C236.172 941.991 236.918 941.752 237.958 941.752H250.434C251.461 941.752 252.207 941.991 252.674 942.444C253.127 942.911 253.367 943.656 253.367 944.682V984.536H264.403V971.482C264.403 970.497 264.617 969.764 265.043 969.298C265.496 968.845 266.243 968.605 267.282 968.605H278.959C279.985 968.605 280.732 968.845 281.198 969.298C281.651 969.764 281.891 970.497 281.891 971.482V996.897C281.891 997.896 281.651 998.629 281.198 999.082C280.732 999.548 279.985 999.775 278.959 999.775Z" fill="#68D4ED"/>
<path d="M312.113 958.695L308.328 970.95H320.964L317.178 958.695C316.965 958.202 316.725 957.843 316.485 957.629C316.272 957.416 315.979 957.31 315.632 957.31H313.66C313.34 957.31 313.046 957.416 312.807 957.629C312.553 957.843 312.327 958.202 312.113 958.695ZM307.528 996.897C307.528 997.896 307.288 998.629 306.835 999.082C306.368 999.548 305.622 999.775 304.596 999.775H292.759C291.72 999.775 290.973 999.548 290.52 999.082C290.094 998.629 289.88 997.896 289.88 996.897V975.585C289.88 973.987 290.12 972.148 290.627 970.044C291.12 967.953 291.92 965.502 293.026 962.691L300.01 944.416C300.33 943.537 300.824 942.871 301.503 942.444C302.17 941.991 303.05 941.752 304.116 941.752H325.816C326.842 941.752 327.695 941.991 328.375 942.444C329.042 942.871 329.548 943.537 329.868 944.416L336.852 962.691C337.919 965.502 338.692 967.953 339.198 970.044C339.732 972.148 339.998 973.987 339.998 975.585V996.897C339.998 997.896 339.758 998.629 339.305 999.082C338.838 999.548 338.105 999.775 337.119 999.775H324.909C323.843 999.775 323.043 999.548 322.51 999.082C322.004 998.629 321.764 997.896 321.764 996.897V985.602H307.528V996.897Z" fill="#68D4ED"/>
<path d="M388.557 999.775H368.883C362.165 999.775 357.167 998.443 353.901 995.778C350.662 993.088 349.049 988.945 349.049 983.364V958.269C349.049 952.701 350.662 948.558 353.901 945.854C357.167 943.124 362.165 941.752 368.883 941.752H388.557C389.543 941.752 390.276 941.991 390.743 942.444C391.196 942.911 391.436 943.656 391.436 944.682V954.433C391.436 955.432 391.196 956.164 390.743 956.617C390.276 957.083 389.543 957.31 388.557 957.31H372.349C370.669 957.31 369.43 957.656 368.616 958.322C367.79 959.001 367.39 960.014 367.39 961.359V980.54C367.39 981.859 367.79 982.831 368.616 983.471C369.43 984.083 370.669 984.376 372.349 984.376H388.557C389.543 984.376 390.276 984.616 390.743 985.069C391.196 985.535 391.436 986.281 391.436 987.307V996.897C391.436 997.896 391.196 998.629 390.743 999.082C390.276 999.548 389.543 999.775 388.557 999.775Z" fill="#68D4ED"/>
<path d="M415.937 999.775H403.461C402.421 999.775 401.675 999.548 401.222 999.082C400.755 998.629 400.529 997.896 400.529 996.897V944.682C400.529 943.656 400.755 942.911 401.222 942.444C401.675 941.991 402.421 941.752 403.461 941.752H415.937C416.963 941.752 417.71 941.991 418.176 942.444C418.63 942.911 418.87 943.656 418.87 944.682V963.224H422.069L430.386 944.416C430.733 943.457 431.239 942.791 431.879 942.391C432.545 941.965 433.385 941.752 434.385 941.752H446.808C447.727 941.752 448.354 941.991 448.674 942.444C448.994 942.911 448.954 943.563 448.567 944.416L440.356 963.224C443.369 963.37 445.768 964.423 447.554 966.367C449.367 968.326 450.273 970.923 450.273 974.146V996.897C450.273 997.896 450.033 998.629 449.58 999.082C449.154 999.548 448.42 999.775 447.394 999.775H434.971C433.932 999.775 433.185 999.548 432.732 999.082C432.305 998.629 432.092 997.896 432.092 996.897V981.18C432.092 980.327 431.852 979.661 431.399 979.155C430.972 978.662 430.333 978.409 429.48 978.409H418.87V996.897C418.87 997.896 418.63 998.629 418.176 999.082C417.71 999.548 416.963 999.775 415.937 999.775Z" fill="#68D4ED"/>
<path d="M523.165 999.775H497.787C491.069 999.775 486.07 998.443 482.805 995.778C479.566 993.088 477.953 988.945 477.953 983.364V958.215C477.953 952.648 479.566 948.505 482.805 945.801C486.07 943.11 491.069 941.752 497.787 941.752H517.94C518.927 941.752 519.66 941.991 520.126 942.444C520.58 942.911 520.819 943.656 520.819 944.682V954.433C520.819 955.432 520.58 956.164 520.126 956.617C519.66 957.083 518.927 957.31 517.94 957.31H501.146C499.466 957.31 498.226 957.656 497.413 958.322C496.627 959.001 496.24 960.014 496.24 961.359V980.593C496.24 981.952 496.534 982.938 497.147 983.577C497.787 984.217 498.706 984.536 499.919 984.536H507.757V971.962C507.757 970.976 507.983 970.244 508.45 969.777C508.903 969.325 509.65 969.085 510.689 969.085H523.165C524.192 969.085 524.925 969.325 525.351 969.777C525.805 970.244 526.045 970.976 526.045 971.962V996.897C526.045 997.896 525.805 998.629 525.351 999.082C524.925 999.548 524.192 999.775 523.165 999.775Z" fill="#68D4ED"/>
<path d="M556.941 958.695L553.156 970.95H565.792L562.006 958.695C561.793 958.202 561.553 957.843 561.313 957.629C561.1 957.416 560.807 957.31 560.46 957.31H558.488C558.168 957.31 557.874 957.416 557.635 957.629C557.381 957.843 557.155 958.202 556.941 958.695ZM552.356 996.897C552.356 997.896 552.116 998.629 551.663 999.082C551.196 999.548 550.45 999.775 549.424 999.775H537.587C536.548 999.775 535.801 999.548 535.348 999.082C534.922 998.629 534.708 997.896 534.708 996.897V975.585C534.708 973.987 534.948 972.148 535.455 970.044C535.948 967.953 536.748 965.502 537.854 962.691L544.838 944.416C545.158 943.537 545.652 942.871 546.331 942.444C546.998 941.991 547.878 941.752 548.944 941.752H570.644C571.67 941.752 572.523 941.991 573.203 942.444C573.87 942.871 574.376 943.537 574.696 944.416L581.68 962.691C582.747 965.502 583.52 967.953 584.026 970.044C584.56 972.148 584.826 973.987 584.826 975.585V996.897C584.826 997.896 584.586 998.629 584.133 999.082C583.666 999.548 582.933 999.775 581.947 999.775H569.737C568.671 999.775 567.871 999.548 567.338 999.082C566.832 998.629 566.592 997.896 566.592 996.897V985.602H552.356V996.897Z" fill="#68D4ED"/>
<path d="M609.659 999.775H597.663C596.623 999.775 595.877 999.548 595.424 999.082C594.957 998.629 594.73 997.896 594.73 996.897V944.682C594.73 943.656 594.957 942.911 595.424 942.444C595.877 941.991 596.623 941.752 597.663 941.752H610.619C611.472 941.752 612.178 941.952 612.752 942.338C613.311 942.737 613.845 943.35 614.351 944.203L621.602 957.31C621.842 957.816 622.055 958.162 622.242 958.375C622.455 958.588 622.722 958.695 623.042 958.695H623.788C624.108 958.695 624.348 958.588 624.535 958.375C624.708 958.162 624.934 957.816 625.228 957.31L632.372 944.203C632.865 943.35 633.399 942.737 633.972 942.338C634.532 941.952 635.251 941.752 636.104 941.752H649.167C650.193 941.752 650.926 941.991 651.353 942.444C651.806 942.911 652.046 943.656 652.046 944.682V996.897C652.046 997.896 651.806 998.629 651.353 999.082C650.926 999.548 650.193 999.775 649.167 999.775H636.744C635.704 999.775 634.958 999.548 634.505 999.082C634.078 998.629 633.865 997.896 633.865 996.897V968.499L629.067 977.29C628.6 978.222 628.027 978.888 627.36 979.315C626.681 979.714 625.828 979.901 624.801 979.901H621.602C620.562 979.901 619.709 979.714 619.043 979.315C618.363 978.888 617.79 978.222 617.337 977.29L612.538 968.499V996.897C612.538 997.896 612.298 998.629 611.845 999.082C611.419 999.548 610.686 999.775 609.659 999.775Z" fill="#68D4ED"/>
<path d="M703.48 999.775H666.105C665.065 999.775 664.319 999.548 663.866 999.082C663.399 998.629 663.173 997.896 663.173 996.897V944.682C663.173 943.656 663.399 942.911 663.866 942.444C664.319 941.991 665.065 941.752 666.105 941.752H703.48C704.506 941.752 705.253 941.991 705.719 942.444C706.173 942.911 706.413 943.656 706.413 944.682V954.113C706.413 955.112 706.173 955.844 705.719 956.297C705.253 956.764 704.506 956.99 703.48 956.99H681.247V963.224H696.975C698.002 963.224 698.735 963.464 699.161 963.917C699.615 964.343 699.855 965.075 699.855 966.101V974.733C699.855 975.732 699.615 976.464 699.161 976.917C698.735 977.383 698.002 977.61 696.975 977.61H681.247V984.536H703.48C704.506 984.536 705.253 984.776 705.719 985.229C706.173 985.695 706.413 986.441 706.413 987.467V996.897C706.413 997.896 706.173 998.629 705.719 999.082C705.253 999.548 704.506 999.775 703.48 999.775Z" fill="#68D4ED"/>
<path d="M778.766 984.536C778.766 987.027 778.406 989.278 777.7 991.303C777.02 993.301 775.807 995.006 774.074 996.418C772.328 997.843 769.929 998.962 766.877 999.775C763.811 1000.59 759.905 1001 755.147 1001C750.482 1001 746.629 1000.59 743.577 999.775C740.551 998.962 738.165 997.843 736.433 996.418C734.686 995.006 733.473 993.301 732.807 991.303C732.127 989.278 731.794 987.027 731.794 984.536V971.482C731.794 970.497 732.021 969.764 732.487 969.298C732.94 968.845 733.673 968.605 734.673 968.605H746.403C747.389 968.605 748.122 968.845 748.589 969.298C749.042 969.764 749.282 970.497 749.282 971.482V981.339C749.282 982.405 749.615 983.311 750.295 984.057C750.961 984.776 752.534 985.122 754.987 985.122C757.293 985.122 758.746 984.776 759.359 984.057C759.999 983.311 760.319 982.405 760.319 981.339V944.682C760.319 943.656 760.545 942.911 761.012 942.444C761.465 941.991 762.211 941.752 763.251 941.752H775.887C776.913 941.752 777.647 941.991 778.073 942.444C778.526 942.911 778.766 943.656 778.766 944.682V984.536Z" fill="#68D4ED"/>
<path d="M810.557 958.695L806.771 970.95H819.407L815.622 958.695C815.408 958.202 815.169 957.843 814.929 957.629C814.715 957.416 814.422 957.31 814.076 957.31H812.103C811.783 957.31 811.49 957.416 811.25 957.629C810.996 957.843 810.77 958.202 810.557 958.695ZM805.971 996.897C805.971 997.896 805.731 998.629 805.278 999.082C804.812 999.548 804.065 999.775 803.039 999.775H791.203C790.163 999.775 789.416 999.548 788.963 999.082C788.537 998.629 788.323 997.896 788.323 996.897V975.585C788.323 973.987 788.563 972.148 789.07 970.044C789.563 967.953 790.363 965.502 791.469 962.691L798.454 944.416C798.774 943.537 799.267 942.871 799.947 942.444C800.613 941.991 801.493 941.752 802.559 941.752H824.259C825.285 941.752 826.138 941.991 826.818 942.444C827.485 942.871 827.991 943.537 828.311 944.416L835.296 962.691C836.362 965.502 837.135 967.953 837.642 970.044C838.175 972.148 838.441 973.987 838.441 975.585V996.897C838.441 997.896 838.201 998.629 837.748 999.082C837.282 999.548 836.549 999.775 835.562 999.775H823.353C822.286 999.775 821.487 999.548 820.953 999.082C820.447 998.629 820.207 997.896 820.207 996.897V985.602H805.971V996.897Z" fill="#68D4ED"/>
<path d="M863.274 999.775H851.278C850.238 999.775 849.492 999.548 849.039 999.082C848.572 998.629 848.346 997.896 848.346 996.897V944.682C848.346 943.656 848.572 942.911 849.039 942.444C849.492 941.991 850.238 941.752 851.278 941.752H864.234C865.087 941.752 865.794 941.952 866.367 942.338C866.927 942.737 867.46 943.35 867.966 944.203L875.217 957.31C875.457 957.816 875.67 958.162 875.857 958.375C876.07 958.588 876.337 958.695 876.657 958.695H877.403C877.723 958.695 877.963 958.588 878.15 958.375C878.323 958.162 878.55 957.816 878.843 957.31L885.987 944.203C886.48 943.35 887.014 942.737 887.587 942.338C888.147 941.952 888.866 941.752 889.719 941.752H902.782C903.808 941.752 904.542 941.991 904.968 942.444C905.421 942.911 905.661 943.656 905.661 944.682V996.897C905.661 997.896 905.421 998.629 904.968 999.082C904.542 999.548 903.808 999.775 902.782 999.775H890.359C889.32 999.775 888.573 999.548 888.12 999.082C887.693 998.629 887.48 997.896 887.48 996.897V968.499L882.682 977.29C882.215 978.222 881.642 978.888 880.976 979.315C880.296 979.714 879.443 979.901 878.416 979.901H875.217C874.178 979.901 873.325 979.714 872.658 979.315C871.978 978.888 871.405 978.222 870.952 977.29L866.153 968.499V996.897C866.153 997.896 865.913 998.629 865.46 999.082C865.034 999.548 864.301 999.775 863.274 999.775Z" fill="#68D4ED"/>
<defs>
<linearGradient id="paint0_linear_2_173" x1="87.9348" y1="865.108" x2="1079.95" y2="865.108" gradientUnits="userSpaceOnUse">
<stop stop-color="#210E5B"/>
<stop offset="0.03125" stop-color="#210E5B"/>
<stop offset="0.0351562" stop-color="#210E5C"/>
<stop offset="0.0390625" stop-color="#220F5C"/>
<stop offset="0.0429688" stop-color="#220F5D"/>
<stop offset="0.046875" stop-color="#220F5E"/>
<stop offset="0.0507812" stop-color="#230F5E"/>
<stop offset="0.0546875" stop-color="#23105F"/>
<stop offset="0.0585938" stop-color="#23105F"/>
<stop offset="0.0625" stop-color="#241060"/>
<stop offset="0.0664062" stop-color="#241060"/>
<stop offset="0.0703125" stop-color="#251161"/>
<stop offset="0.0742188" stop-color="#251162"/>
<stop offset="0.078125" stop-color="#251162"/>
<stop offset="0.0820312" stop-color="#261163"/>
<stop offset="0.0859375" stop-color="#261263"/>
<stop offset="0.0898437" stop-color="#261264"/>
<stop offset="0.09375" stop-color="#271265"/>
<stop offset="0.0976563" stop-color="#271265"/>
<stop offset="0.101563" stop-color="#271366"/>
<stop offset="0.105469" stop-color="#281366"/>
<stop offset="0.109375" stop-color="#281367"/>
<stop offset="0.113281" stop-color="#281367"/>
<stop offset="0.117188" stop-color="#291468"/>
<stop offset="0.121094" stop-color="#291469"/>
<stop offset="0.125" stop-color="#2A1469"/>
<stop offset="0.128906" stop-color="#2A146A"/>
<stop offset="0.132812" stop-color="#2A156A"/>
<stop offset="0.136719" stop-color="#2B156B"/>
<stop offset="0.140625" stop-color="#2B156C"/>
<stop offset="0.144531" stop-color="#2B156C"/>
<stop offset="0.148437" stop-color="#2C166D"/>
<stop offset="0.152344" stop-color="#2C166D"/>
<stop offset="0.15625" stop-color="#2C166E"/>
<stop offset="0.160156" stop-color="#2D166E"/>
<stop offset="0.164062" stop-color="#2D176F"/>
<stop offset="0.167969" stop-color="#2D1770"/>
<stop offset="0.171875" stop-color="#2E1770"/>
<stop offset="0.175781" stop-color="#2E1771"/>
<stop offset="0.179687" stop-color="#2F1871"/>
<stop offset="0.183594" stop-color="#2F1872"/>
<stop offset="0.1875" stop-color="#2F1873"/>
<stop offset="0.191406" stop-color="#301873"/>
<stop offset="0.195312" stop-color="#301974"/>
<stop offset="0.199219" stop-color="#301974"/>
<stop offset="0.203125" stop-color="#311975"/>
<stop offset="0.207031" stop-color="#311975"/>
<stop offset="0.210938" stop-color="#311A76"/>
<stop offset="0.214844" stop-color="#321A77"/>
<stop offset="0.21875" stop-color="#321A77"/>
<stop offset="0.222656" stop-color="#321A78"/>
<stop offset="0.226562" stop-color="#331B78"/>
<stop offset="0.230469" stop-color="#331B79"/>
<stop offset="0.234375" stop-color="#331B7A"/>
<stop offset="0.238281" stop-color="#341B7A"/>
<stop offset="0.242187" stop-color="#341C7B"/>
<stop offset="0.246094" stop-color="#351C7B"/>
<stop offset="0.25" stop-color="#351C7C"/>
<stop offset="0.253906" stop-color="#351C7C"/>
<stop offset="0.257812" stop-color="#361D7D"/>
<stop offset="0.261719" stop-color="#361D7E"/>
<stop offset="0.265625" stop-color="#361D7E"/>
<stop offset="0.269531" stop-color="#371D7F"/>
<stop offset="0.273438" stop-color="#371E7F"/>
<stop offset="0.277344" stop-color="#371E80"/>
<stop offset="0.28125" stop-color="#381E81"/>
<stop offset="0.285156" stop-color="#381E81"/>
<stop offset="0.289062" stop-color="#381F82"/>
<stop offset="0.292969" stop-color="#391F82"/>
<stop offset="0.296875" stop-color="#391F83"/>
<stop offset="0.300781" stop-color="#3A1F83"/>
<stop offset="0.304688" stop-color="#3A2084"/>
<stop offset="0.308594" stop-color="#3A2085"/>
<stop offset="0.3125" stop-color="#3B2085"/>
<stop offset="0.316406" stop-color="#3B2086"/>
<stop offset="0.320312" stop-color="#3B2186"/>
<stop offset="0.324219" stop-color="#3C2187"/>
<stop offset="0.328125" stop-color="#3C2188"/>
<stop offset="0.332031" stop-color="#3C2188"/>
<stop offset="0.335938" stop-color="#3D2289"/>
<stop offset="0.339844" stop-color="#3D2289"/>
<stop offset="0.34375" stop-color="#3D228A"/>
<stop offset="0.347656" stop-color="#3E228A"/>
<stop offset="0.351562" stop-color="#3E238B"/>
<stop offset="0.355469" stop-color="#3E238C"/>
<stop offset="0.359375" stop-color="#3F238C"/>
<stop offset="0.363281" stop-color="#3F238D"/>
<stop offset="0.367187" stop-color="#40248D"/>
<stop offset="0.371094" stop-color="#40248E"/>
<stop offset="0.375" stop-color="#40248F"/>
<stop offset="0.378906" stop-color="#41248F"/>
<stop offset="0.382812" stop-color="#412590"/>
<stop offset="0.386719" stop-color="#412590"/>
<stop offset="0.390625" stop-color="#422591"/>
<stop offset="0.394531" stop-color="#422591"/>
<stop offset="0.398437" stop-color="#422692"/>
<stop offset="0.402344" stop-color="#432693"/>
<stop offset="0.40625" stop-color="#432693"/>
<stop offset="0.410156" stop-color="#432694"/>
<stop offset="0.414062" stop-color="#442794"/>
<stop offset="0.417969" stop-color="#442795"/>
<stop offset="0.421875" stop-color="#452796"/>
<stop offset="0.425781" stop-color="#452796"/>
<stop offset="0.429687" stop-color="#452897"/>
<stop offset="0.433594" stop-color="#462897"/>
<stop offset="0.4375" stop-color="#462898"/>
<stop offset="0.441406" stop-color="#462898"/>
<stop offset="0.445312" stop-color="#472999"/>
<stop offset="0.449219" stop-color="#47299A"/>
<stop offset="0.453125" stop-color="#47299A"/>
<stop offset="0.457031" stop-color="#48299B"/>
<stop offset="0.460937" stop-color="#482A9B"/>
<stop offset="0.464844" stop-color="#482A9C"/>
<stop offset="0.46875" stop-color="#492A9D"/>
<stop offset="0.472656" stop-color="#492A9D"/>
<stop offset="0.476562" stop-color="#4A2B9E"/>
<stop offset="0.480469" stop-color="#4A2B9E"/>
<stop offset="0.484375" stop-color="#4A2B9F"/>
<stop offset="0.488281" stop-color="#4B2B9F"/>
<stop offset="0.492187" stop-color="#4B2CA0"/>
<stop offset="0.496094" stop-color="#4B2CA1"/>
<stop offset="0.5" stop-color="#4C2CA1"/>
<stop offset="0.503906" stop-color="#4C2CA2"/>
<stop offset="0.507812" stop-color="#4C2DA2"/>
<stop offset="0.511719" stop-color="#4D2DA3"/>
<stop offset="0.515625" stop-color="#4D2DA4"/>
<stop offset="0.519531" stop-color="#4D2DA4"/>
<stop offset="0.523438" stop-color="#4E2EA5"/>
<stop offset="0.527344" stop-color="#4E2EA5"/>
<stop offset="0.53125" stop-color="#4E2EA6"/>
<stop offset="0.535156" stop-color="#4F2EA6"/>
<stop offset="0.539062" stop-color="#4F2FA7"/>
<stop offset="0.542969" stop-color="#502FA8"/>
<stop offset="0.546875" stop-color="#502FA8"/>
<stop offset="0.550781" stop-color="#502FA9"/>
<stop offset="0.554688" stop-color="#5130A9"/>
<stop offset="0.558594" stop-color="#5130AA"/>
<stop offset="0.5625" stop-color="#5130AB"/>
<stop offset="0.566406" stop-color="#5230AB"/>
<stop offset="0.570312" stop-color="#5231AC"/>
<stop offset="0.574219" stop-color="#5231AC"/>
<stop offset="0.578125" stop-color="#5331AD"/>
<stop offset="0.582031" stop-color="#5331AD"/>
<stop offset="0.585938" stop-color="#5332AE"/>
<stop offset="0.589844" stop-color="#5432AF"/>
<stop offset="0.59375" stop-color="#5432AF"/>
<stop offset="0.597656" stop-color="#5532B0"/>
<stop offset="0.601562" stop-color="#5533B0"/>
<stop offset="0.605469" stop-color="#5533B1"/>
<stop offset="0.609375" stop-color="#5633B2"/>
<stop offset="0.613281" stop-color="#5633B2"/>
<stop offset="0.617188" stop-color="#5634B3"/>
<stop offset="0.621094" stop-color="#5734B3"/>
<stop offset="0.625" stop-color="#5734B4"/>
<stop offset="0.628906" stop-color="#5734B4"/>
<stop offset="0.632812" stop-color="#5835B5"/>
<stop offset="0.636719" stop-color="#5835B6"/>
<stop offset="0.640625" stop-color="#5835B6"/>
<stop offset="0.644531" stop-color="#5935B7"/>
<stop offset="0.648438" stop-color="#5936B7"/>
<stop offset="0.652344" stop-color="#5936B8"/>
<stop offset="0.65625" stop-color="#5A36B9"/>
<stop offset="0.660156" stop-color="#5A36B9"/>
<stop offset="0.664063" stop-color="#5B37BA"/>
<stop offset="0.667969" stop-color="#5B37BA"/>
<stop offset="0.671875" stop-color="#5B37BB"/>
<stop offset="0.675781" stop-color="#5C37BB"/>
<stop offset="0.679688" stop-color="#5C38BC"/>
<stop offset="0.683594" stop-color="#5C38BD"/>
<stop offset="0.6875" stop-color="#5D38BD"/>
<stop offset="0.691406" stop-color="#5D38BE"/>
<stop offset="0.695313" stop-color="#5D39BE"/>
<stop offset="0.699219" stop-color="#5E39BF"/>
<stop offset="0.703125" stop-color="#5E39C0"/>
<stop offset="0.707031" stop-color="#5E39C0"/>
<stop offset="0.710938" stop-color="#5F3AC1"/>
<stop offset="0.714844" stop-color="#5F3AC1"/>
<stop offset="0.71875" stop-color="#603AC2"/>
<stop offset="0.722656" stop-color="#603AC2"/>
<stop offset="0.726563" stop-color="#603BC3"/>
<stop offset="0.730469" stop-color="#613BC4"/>
<stop offset="0.734375" stop-color="#613BC4"/>
<stop offset="0.738281" stop-color="#613BC5"/>
<stop offset="0.742188" stop-color="#623CC5"/>
<stop offset="0.746094" stop-color="#623CC6"/>
<stop offset="0.75" stop-color="#623CC7"/>
<stop offset="0.753906" stop-color="#633CC7"/>
<stop offset="0.757813" stop-color="#633DC8"/>
<stop offset="0.761719" stop-color="#633DC8"/>
<stop offset="0.765625" stop-color="#643DC9"/>
<stop offset="0.769531" stop-color="#643DC9"/>
<stop offset="0.773438" stop-color="#653ECA"/>
<stop offset="0.777344" stop-color="#653ECB"/>
<stop offset="0.78125" stop-color="#653ECB"/>
<stop offset="0.785156" stop-color="#663ECC"/>
<stop offset="0.789063" stop-color="#663FCC"/>
<stop offset="0.792969" stop-color="#663FCD"/>
<stop offset="0.796875" stop-color="#673FCE"/>
<stop offset="0.800781" stop-color="#673FCE"/>
<stop offset="0.804687" stop-color="#6740CF"/>
<stop offset="0.808594" stop-color="#6840CF"/>
<stop offset="0.8125" stop-color="#6840D0"/>
<stop offset="0.816406" stop-color="#6840D0"/>
<stop offset="0.820312" stop-color="#6941D1"/>
<stop offset="0.824219" stop-color="#6941D2"/>
<stop offset="0.828125" stop-color="#6941D2"/>
<stop offset="0.832031" stop-color="#6A41D3"/>
<stop offset="0.835937" stop-color="#6A42D3"/>
<stop offset="0.839844" stop-color="#6B42D4"/>
<stop offset="0.84375" stop-color="#6B42D5"/>
<stop offset="0.847656" stop-color="#6B42D5"/>
<stop offset="0.851562" stop-color="#6C43D6"/>
<stop offset="0.855469" stop-color="#6C43D6"/>
<stop offset="0.859375" stop-color="#6C43D7"/>
<stop offset="0.863281" stop-color="#6D43D7"/>
<stop offset="0.867187" stop-color="#6D43D8"/>
<stop offset="0.871094" stop-color="#6D44D9"/>
<stop offset="0.875" stop-color="#6E44D9"/>
<stop offset="0.878906" stop-color="#6E44DA"/>
<stop offset="0.882812" stop-color="#6E44DA"/>
<stop offset="0.886719" stop-color="#6F45DB"/>
<stop offset="0.890625" stop-color="#6F45DC"/>
<stop offset="0.894531" stop-color="#7045DC"/>
<stop offset="0.898437" stop-color="#7045DD"/>
<stop offset="0.902344" stop-color="#7046DD"/>
<stop offset="0.90625" stop-color="#7146DE"/>
<stop offset="0.910156" stop-color="#7146DE"/>
<stop offset="0.914062" stop-color="#7146DF"/>
<stop offset="0.917969" stop-color="#7247E0"/>
<stop offset="0.921875" stop-color="#7247E0"/>
<stop offset="0.925781" stop-color="#7247E1"/>
<stop offset="0.929687" stop-color="#7347E1"/>
<stop offset="0.933594" stop-color="#7348E2"/>
<stop offset="0.9375" stop-color="#7348E3"/>
<stop offset="0.941406" stop-color="#7448E3"/>
<stop offset="0.945312" stop-color="#7448E4"/>
<stop offset="0.949219" stop-color="#7449E4"/>
<stop offset="0.953125" stop-color="#7549E5"/>
<stop offset="0.957031" stop-color="#7549E5"/>
<stop offset="0.960937" stop-color="#7649E6"/>
<stop offset="0.964844" stop-color="#764AE7"/>
<stop offset="0.96875" stop-color="#764AE7"/>
<stop offset="0.972656" stop-color="#774AE8"/>
<stop offset="0.976562" stop-color="#774AE8"/>
<stop offset="0.980469" stop-color="#774BE9"/>
<stop offset="0.984375" stop-color="#784BEA"/>
<stop offset="0.988281" stop-color="#784BEA"/>
<stop offset="0.992188" stop-color="#784BEB"/>
<stop offset="0.996094" stop-color="#794CEB"/>
<stop offset="1" stop-color="#794CEC"/>
</linearGradient>
</defs>
</svg>
