<svg width="644" height="549" viewBox="0 0 644 549" fill="none" xmlns="http://www.w3.org/2000/svg">
<path fill-rule="evenodd" clip-rule="evenodd" d="M319.223 548.902C332.987 520.483 339.795 488.173 337.517 454.507C330.677 353.612 244.808 278.695 145.715 287.174C46.6276 295.649 -28.1583 384.309 -21.3234 485.203C-19.7783 507.981 -14.2109 529.434 -5.3648 548.902H319.223Z" fill="#EEED56"/>
<path d="M462.42 394.679L480.987 387.184L547.424 359.881L569.836 428.105C550.666 443.623 530.136 454.015 507.986 458.283C504.582 458.938 501.12 459.242 497.648 459.189L455.706 459.571L462.42 394.679Z" fill="#C58E5B"/>
<path d="M471.801 386.912C459.629 384.932 446.828 382.062 446.828 382.062L436.107 456.225L460.797 464.018L471.801 386.912Z" fill="white"/>
<path d="M279.905 427.371C273.62 422.129 268.744 415.357 264.203 408.391C249.302 385.592 237.617 360.62 225.98 335.747C214.342 310.869 202.673 285.928 191.02 261.019C180.482 238.503 167.498 209.702 181.974 184.316C187.254 175.077 196.315 168.347 206.145 165.382C215.861 162.57 226.205 162.79 235.8 166.006C245.793 169.421 253.115 179.194 259.238 187.642C294.145 235.769 317.473 292.203 336.454 349.684C340.089 360.677 344.462 372.142 343.734 384.099C342.791 399.498 339.361 417.714 326.78 428.115C312.288 440.093 293.287 438.522 279.905 427.371Z" fill="#EEED56"/>
<path d="M40.1592 466.788C118.842 475.749 191.14 458.418 256.441 412.287C255.325 400.801 254.623 389.289 254.346 377.745C254.141 369.114 251.753 356.707 258.551 349.914C265.344 343.115 272.452 335.914 275.809 326.806C279.973 315.529 277.893 303.028 275.317 291.306C271.478 273.839 266.617 256.43 266.052 238.56C265.392 218.044 258.651 196.382 244.452 180.884C234.417 169.922 220.842 162.166 206.25 159.427C208.649 167.937 210.194 176.653 210.073 185.467C209.885 198.577 205.669 212.016 196.514 221.37C184.457 233.668 165.492 237.187 148.538 234.118C131.585 231.049 116.239 222.308 101.83 212.875C95.0636 208.444 88.4225 203.835 81.9019 199.048C70.2904 207.674 58.7941 216.447 47.4288 225.372C37.9752 232.793 28.4691 240.466 21.6761 250.381C7.92776 270.43 15.4435 297.083 24.981 317.677C30.7003 330.016 37.9542 341.591 43.5688 353.952C51.6502 371.785 56.233 391.007 57.0815 410.569C57.9352 430.324 54.2061 451.672 40.222 465.646L40.1697 466.788H40.1592Z" fill="#EEED56"/>
<path d="M442.607 456.403L442.387 457.361C441.795 459.948 441.156 462.63 439.517 464.73C437.637 467.134 434.62 468.417 431.671 469.24C418.3 472.985 399.178 472.073 385.534 469.873C369.502 467.286 354.025 462.138 338.701 456.89C321.192 450.898 303.337 445.352 287.436 435.652C270.603 425.386 261.312 411.664 250.46 395.884C244.033 386.529 227.179 357.985 234.815 346.327C239.608 338.999 252.937 341.068 260.243 341L293.213 340.654C304.008 340.555 314.1 337.145 324.806 337.371C335.092 337.596 346.442 342.666 356.026 345.981C385.775 356.273 415.162 367.994 446.168 374.012C449.232 374.588 451.668 377.092 453.396 379.736C455.612 383.109 455.727 387.629 455.779 391.898C451.94 413.586 447.514 434.945 442.607 456.403Z" fill="#EEED56"/>
<path d="M256.436 412.287C255.32 400.801 254.618 389.289 254.341 377.746C254.136 369.115 251.748 356.712 258.546 349.914C265.339 343.116 272.447 335.914 275.804 326.806C279.968 315.53 277.888 303.033 275.312 291.307C271.473 273.84 266.612 256.43 266.046 238.56" stroke="#333333" stroke-width="2.32411" stroke-linecap="round" stroke-linejoin="round"/>
<path d="M81.8759 199.064C88.3861 203.851 95.0272 208.455 101.81 212.891C116.218 222.324 131.564 231.07 148.518 234.134C165.466 237.193 184.431 233.668 196.493 221.386C205.669 212.027 209.885 198.588 210.053 185.483C210.173 176.669 208.628 167.954 206.229 159.443C205.245 159.265 204.26 159.092 203.27 158.961C196.749 158.049 190.145 158.364 183.567 158.468C157.154 158.861 112.808 175.663 81.8759 199.064Z" fill="#C58E5B"/>
<path d="M-48.0921 484.271C-49.171 475.666 -48.1497 466.94 -46.7775 458.377C-42.2523 430.236 -33.8671 402.875 -25.5081 375.625L-0.394421 293.758C7.1685 269.089 17.2297 237.884 45.3026 229.782C55.5471 226.865 66.8653 228.619 76.1827 233.742C85.2488 238.738 93.0788 247.165 97.7611 256.368C102.852 266.376 101.605 279.145 100.375 290.023C93.3721 352.009 72.1551 411.538 46.9471 468.611C42.1234 479.521 37.5406 491.342 28.8255 499.711C17.612 510.49 2.60666 521.504 -13.8443 519.849C-32.7568 517.979 -45.7876 502.597 -48.0974 484.271H-48.0921Z" fill="#EEED56"/>
<path d="M115.857 346.028L161.386 392.945L168.608 386.273L178.434 377.196L203.181 354.33L166.911 307.8L115.857 346.028Z" fill="#C58E5B"/>
<path d="M527.758 314.41L477.012 334.485L536.771 485.513C539.432 492.243 544.659 497.638 551.3 500.513C557.941 503.388 565.452 503.509 572.182 500.848C578.907 498.182 584.307 492.955 587.182 486.314C590.057 479.678 590.178 472.162 587.512 465.438L527.758 314.41Z" fill="#333333"/>
<path d="M558.68 360.976C560.712 363.809 560.639 367.685 559.628 371.021C557.931 376.646 553.945 381.25 550.064 385.671C543.214 393.48 535.965 401.577 526.338 405.432C522.997 406.757 518.461 407.207 516.502 404.227C515.235 402.3 515.638 399.739 516.44 397.581C519.168 390.269 525.589 385.089 531.105 379.543C536.127 374.478 540.558 368.848 544.298 362.772C546.236 359.635 546.586 356.597 550.572 356.891C553.584 357.095 556.883 358.462 558.68 360.976Z" fill="#C58E5B"/>
<path d="M578.813 391.724C580.845 394.558 580.772 398.433 579.761 401.77C578.064 407.395 574.078 411.998 570.197 416.419C563.341 424.233 556.098 432.33 546.466 436.185C543.13 437.505 538.594 437.95 536.635 434.975C535.368 433.053 535.771 430.487 536.572 428.329C539.301 421.017 545.722 415.837 551.237 410.291C556.26 405.226 560.691 399.596 564.431 393.521C566.368 390.383 566.714 387.351 570.705 387.639C573.717 387.843 577.016 389.21 578.813 391.724Z" fill="#C58E5B"/>
<path d="M570.402 376.442C572.544 379.37 572.402 383.429 571.245 386.933C569.302 392.856 564.902 397.743 560.618 402.435C553.045 410.742 545.073 419.353 534.525 423.527C530.88 424.967 525.946 425.528 523.882 422.406C522.531 420.426 523.029 417.729 523.961 415.445C527.04 407.725 534.111 402.205 540.181 396.308C545.702 390.944 550.604 384.979 554.794 378.526C556.946 375.201 557.381 372.021 561.697 372.262C564.934 372.472 568.49 373.839 570.402 376.442Z" fill="#C58E5B"/>
<path d="M582.133 416.718C581.499 420.74 579.551 424.422 577.639 428.02L570.81 440.831C568.898 444.419 566.929 448.08 563.933 450.829C562.393 452.243 560.34 453.443 558.308 452.951C556.679 452.552 555.48 451.138 554.799 449.619C552.793 445.157 554.422 439.977 556.234 435.452C559.8 426.48 564.116 417.603 570.48 410.244C572.486 407.934 576.409 402.446 579.677 405.263C582.185 407.411 582.573 413.779 582.133 416.718Z" fill="#C58E5B"/>
<path d="M488.079 371.477C492.185 365.213 496.789 359.017 503.115 355.063C508.924 351.438 515.759 349.946 522.279 347.866C529.266 345.641 536.002 342.697 542.376 339.073C545.34 337.386 548.833 335.501 551.976 336.826C556.402 338.701 556.176 345.332 553.542 349.37C547.555 358.588 534.881 360.929 527.229 368.79C522.196 373.944 519.729 381.035 515.581 386.922C512.271 391.547 507.971 395.381 502.995 398.131C498.019 400.885 492.489 402.493 486.811 402.839C483.967 402.991 480.93 402.755 478.604 401.116C469.491 394.658 484.381 377.113 488.079 371.477Z" fill="#C58E5B"/>
<path d="M121.162 335.134C112.017 343.43 101.846 351.684 101.846 351.684L153.283 406.175L174.741 391.678L121.162 335.134Z" fill="white"/>
<path d="M186.442 126.74C194.272 141.368 201.62 154.792 212.132 167.76C222.863 181.011 240.22 196.55 258.814 190.234C273.552 185.227 281.576 168.048 287.3 154.829C291.26 145.778 294.648 136.487 297.445 127.012C299.001 121.67 300.326 116.244 301.389 110.782C301.724 109.074 302.023 107.361 302.295 105.644C302.641 103.475 302.965 101.244 303.264 98.9501C304.757 87.1134 305.165 74.0302 301.368 63.0472C298.529 54.8243 292.747 47.8794 286.048 42.3434C261.411 21.9854 231.846 19.0262 203.354 33.4135C196.372 36.9436 189.647 41.2279 184.462 47.0834C175.459 57.2598 171.908 71.3957 172.311 84.9765C172.777 100.129 179.387 113.568 186.442 126.74Z" fill="#C58E5B"/>
<path d="M226.174 178.722C224.634 179.33 185.112 206.172 185.112 206.172L125.556 168.923L185.845 121.057L226.174 178.722Z" fill="#C58E5B"/>
<path d="M306.474 76.8534C305.244 83.4159 301.588 88.8472 293.47 88.622C288.567 88.4858 284.152 85.7623 280.156 82.9184C267.67 74.0147 256.76 63.0893 247.878 50.5927C244.615 60.6539 239.686 71.2598 234.81 80.6453C231.851 86.3489 228.509 92.0159 223.633 96.2059C218.757 100.396 212.064 102.92 205.81 101.412C201.531 100.38 199.541 108.477 199.965 112.856C200.395 117.229 202.914 121.1 205.417 124.713C207.921 128.333 210.555 132.093 211.194 136.451C212.184 142.94 208.602 149.419 209.309 155.945C210.272 164.796 218.899 171.929 218.129 180.786C217.835 184.232 216.097 187.448 215.897 190.905C215.609 195.634 218.191 200.494 216.631 204.973C214.997 209.66 209.235 211.818 204.312 211.064C199.384 210.31 195.141 207.324 191.072 204.522C186.997 201.72 182.666 198.824 177.732 198.242C174.689 197.881 171.62 198.42 168.561 198.557C163.057 198.735 157.589 197.603 152.608 195.252C147.627 192.895 143.28 189.391 139.928 185.023C135.602 179.267 133.03 172.081 127.505 167.456C122.896 163.612 116.836 162.046 111.352 159.637C106.068 157.301 101.218 154.101 96.9963 150.157C93.2515 146.658 89.8367 142.081 90.1509 136.964C90.3552 133.418 92.3507 130.181 94.8385 127.646C101.595 120.775 112.211 117.852 117.066 109.53C120.34 103.921 120.24 97.0648 120.911 90.607C122.1 79.1841 126.599 67.2898 136.241 61.0624C145.265 55.2279 158.888 56.2073 165.974 48.1363C173.851 39.154 179.539 29.3704 190.103 22.9702C208.303 11.9454 231.872 14.6427 251.68 22.4046C264.255 17.2666 280.753 24.7615 290.233 34.4874C297.869 42.3384 304.102 52.6039 306.223 63.4402C307.119 67.8606 307.202 72.4015 306.474 76.8534Z" fill="#333333"/>
<path d="M278.511 109.116L270.901 126.468C279.449 131.685 283.859 135.503 266.832 139.798" stroke="#333333" stroke-width="2.32411" stroke-linecap="round" stroke-linejoin="round"/>
<path d="M255.886 150.429C249.344 148.213 244.866 142.892 241.566 135.822" stroke="#333333" stroke-width="2.32411" stroke-linecap="round" stroke-linejoin="round"/>
<path d="M257.724 108.409C250.046 113.715 242.588 107.262 235.203 97.4839" stroke="#333333" stroke-width="2.32411" stroke-linecap="round" stroke-linejoin="round"/>
<path d="M253.089 110.243L254.288 115.229" stroke="#333333" stroke-width="2.32411" stroke-linecap="round" stroke-linejoin="round"/>
<path d="M264.931 93.8861C258.332 93.6923 252.471 91.6078 246.689 88.57C242.698 86.4698 240.231 81.5413 246.024 79.6401C247.239 79.3049 248.506 79.1845 249.768 79.2945C255.634 79.5249 260.275 81.0281 265.339 83.8511C268.089 85.3857 272.185 88.79 269.687 92.3306C268.665 93.7342 266.649 93.9332 264.931 93.8861Z" fill="#333333"/>
<path d="M291.83 106.853C294.868 108.498 298.074 109.812 301.389 110.781C301.724 109.079 302.023 107.366 302.295 105.648C302.641 103.48 302.965 101.249 303.264 98.955C300.551 98.117 297.738 97.6509 294.9 97.5618C293.643 97.4571 292.375 97.5723 291.155 97.9075C285.367 99.8244 287.834 104.753 291.83 106.853Z" fill="#333333"/>
<path d="M288.311 124.812C289.908 125.509 292.108 123.979 293.198 121.418C294.292 118.857 293.92 116.197 292.323 115.5C290.725 114.809 288.52 116.338 287.436 118.904C286.352 121.471 286.708 124.121 288.306 124.812H288.311Z" fill="#333333"/>
<path d="M504.655 331.373C417.022 366.045 317.866 323.114 283.194 235.48C248.522 147.842 291.453 48.6911 379.092 14.0138C466.726 -20.6583 565.876 22.2733 600.554 109.912C635.226 197.545 592.294 296.701 504.655 331.373Z" fill="white"/>
<path d="M504.655 331.373C417.022 366.045 317.866 323.114 283.194 235.48C248.522 147.842 291.453 48.6911 379.092 14.0138C466.726 -20.6583 565.876 22.2733 600.554 109.912C635.226 197.545 592.294 296.701 504.655 331.373V331.373Z" stroke="#333333" stroke-width="2.32411" stroke-linecap="round" stroke-linejoin="round"/>
<path d="M294.282 231.086C326.534 312.597 418.761 352.533 500.266 320.281C581.777 288.033 621.718 195.807 589.466 114.296C567.636 59.1295 518.346 23.0119 463.499 15.4228C434.855 11.5052 405.688 15.4699 379.134 26.9033C352.58 38.3315 329.65 56.7936 312.812 80.2942C282.518 122.676 273.704 179.062 294.282 231.086Z" fill="#C58E5B"/>
<path d="M194.183 124.273C180.367 129.736 164.733 122.969 159.265 109.152C153.797 95.3308 160.569 79.7022 174.385 74.2342C188.202 68.7663 203.836 75.5331 209.304 89.3548C214.772 103.171 208 118.805 194.183 124.273Z" fill="#C58E5B"/>
<path d="M162.496 326.922C161.37 320.186 161.664 315.174 165.66 309.392C169.478 303.877 174.972 299.812 180.079 295.57C194.712 283.409 210.508 272.714 227.237 263.642C232.411 260.84 237.832 258.143 243.688 257.567C247.941 257.153 252.225 257.871 256.42 258.73C266.225 260.741 275.862 263.496 285.247 266.968C290.055 268.744 294.795 270.703 299.467 272.834C303.316 274.61 308.769 275.814 311.188 279.648C314.163 284.383 310.832 288.164 305.799 288.845C303.233 289.196 300.65 288.725 298.095 288.232C285.273 285.724 272.651 282.277 260.05 278.836C273.327 284.708 288.793 287.195 301.279 294.585C304.238 296.34 307.36 299.116 306.883 302.52C306.516 305.17 304.034 307.051 301.509 307.925C295.628 309.989 289.165 308.339 283.163 306.684L251.355 297.896C262.406 300.635 273.41 306.784 283.252 312.471C288.049 315.253 293.088 318.275 295.706 323.166C296.277 324.24 296.738 325.466 296.518 326.654C296.261 327.959 295.23 328.99 294.083 329.65C289.872 332.049 284.603 330.258 280.109 328.425L243.195 313.419C255.482 320.417 268.718 327.796 278.705 337.816C279.957 339.073 281.188 340.408 281.848 342.053C282.508 343.692 282.492 345.719 281.382 347.086C280.193 348.552 278.119 348.945 276.228 348.872C270.006 348.668 263.805 345.342 258.599 342.246C251.701 338.177 244.761 334.181 237.78 330.253C224.55 339.329 214.07 350.396 199.033 355.974L162.496 326.922Z" fill="#C58E5B"/>
<path d="M159.354 400.377C161.899 417.106 151.958 433.232 140.237 445.467C124.09 462.352 104.114 475.022 84.264 487.298C67.9545 497.391 51.3884 507.421 33.2143 513.533C22.488 517.141 11.3007 520.41 -0.0226974 521.179C-9.66489 521.839 -19.7051 520.383 -27.9856 515.382C-40.1575 508.028 -47.0343 493.562 -47.2752 479.343C-47.5214 465.118 -41.7916 451.259 -33.3959 439.773C-19.5218 420.793 1.48569 404.441 20.5134 390.95C32.2663 382.601 44.6792 375.242 57.2439 368.203C68.5516 361.871 79.2517 354.397 91.2089 349.39C94.3985 348.06 97.7191 346.709 101.165 346.861C105.57 347.054 109.456 349.657 113.075 352.166L159.354 400.377Z" fill="#EEED56"/>
<path d="M159.354 400.377C161.899 417.105 151.958 433.232 140.237 445.466C133.051 452.867 125.242 459.644 116.909 465.725" stroke="#333333" stroke-width="2.32411" stroke-linecap="round" stroke-linejoin="round"/>
<path d="M-21.8052 426.02C-9.31379 411.911 -0.420559 406.144 20.4717 390.966C32.1356 382.492 44.6375 375.259 57.2022 368.22C68.5099 361.888 79.21 354.414 91.1672 349.407C94.3568 348.076 97.6774 346.725 101.124 346.877C102.868 346.976 104.58 347.395 106.178 348.108" stroke="#333333" stroke-width="2.32411" stroke-linecap="round" stroke-linejoin="round"/>
<path d="M462.96 236.182C398.392 261.731 335.385 255.488 322.229 222.235C309.072 188.988 350.752 141.321 415.32 115.778C479.887 90.2297 542.894 96.4728 556.051 129.726C569.207 162.973 527.527 210.639 462.96 236.182Z" fill="white"/>
<path d="M457.34 223.833C423.715 237.141 387.446 225.163 376.337 197.085C365.228 169.007 383.481 135.455 417.111 122.152C450.741 108.844 487.005 120.822 498.114 148.9C509.228 176.978 490.97 210.529 457.34 223.833Z" fill="#333333"/>
<path d="M312.812 80.2944C338.062 82.6303 365.176 79.0007 391.578 68.5572C421.521 56.71 446.132 37.8394 463.515 15.4178C434.871 11.4949 405.698 15.4597 379.139 26.8931C352.585 38.3265 329.65 56.7886 312.812 80.2944Z" fill="#333333"/>
<path d="M540.679 184.19L565.588 204.48" stroke="#333333" stroke-width="2.32411" stroke-linecap="round" stroke-linejoin="round"/>
<path d="M513.224 210.257L532.822 238.225" stroke="#333333" stroke-width="2.32411" stroke-linecap="round" stroke-linejoin="round"/>
<path d="M475.959 231.406L490.76 264.041" stroke="#333333" stroke-width="2.32411" stroke-linecap="round" stroke-linejoin="round"/>
<path d="M428.34 249.208L433.421 280.245" stroke="#333333" stroke-width="2.32411" stroke-linecap="round" stroke-linejoin="round"/>
<path d="M378.228 252.005L376.07 281.597" stroke="#333333" stroke-width="2.32411" stroke-linecap="round" stroke-linejoin="round"/>
<path d="M514.9 98.7668L521.651 67.0591" stroke="#333333" stroke-width="2.32411" stroke-linecap="round" stroke-linejoin="round"/>
<path d="M480.846 99.3741L478.766 63.843" stroke="#333333" stroke-width="2.32411" stroke-linecap="round" stroke-linejoin="round"/>
<path d="M442.633 105.88L435.253 72.5225" stroke="#333333" stroke-width="2.32411" stroke-linecap="round" stroke-linejoin="round"/>
<path d="M405.808 119.538L393.401 88.1816" stroke="#333333" stroke-width="2.32411" stroke-linecap="round" stroke-linejoin="round"/>
<path d="M371.629 138.242L352.999 111.468" stroke="#333333" stroke-width="2.32411" stroke-linecap="round" stroke-linejoin="round"/>
<path d="M341.351 164.188L317.127 142.735" stroke="#333333" stroke-width="2.32411" stroke-linecap="round" stroke-linejoin="round"/>
<path d="M91.167 349.406L99.8822 294.36" stroke="#333333" stroke-width="2.32411" stroke-linecap="round" stroke-linejoin="round"/>
<path d="M223.555 179.759L210.66 165.911" stroke="#333333" stroke-width="2.32411" stroke-linecap="round" stroke-linejoin="round"/>
<path d="M478.808 459.351L467.108 419.814L461.435 459.509L478.808 459.351Z" fill="#333333"/>
<path d="M143.867 359.101L168.608 386.273L178.434 377.196L143.867 359.101Z" fill="#333333"/>
<path d="M132.321 77.4063L134.867 65.2344L146.913 62.1443L134.741 59.5989L131.651 47.5527L129.106 59.7246L117.059 62.82L129.231 65.3654L132.316 77.4063H132.321Z" fill="#EEED56"/>
<path d="M623.918 328.275L627.05 313.327L641.84 309.535L626.893 306.403L623.101 291.612L619.969 306.565L605.178 310.357L620.131 313.489L623.918 328.275Z" fill="#EEED56"/>
<path d="M630.081 88.5711L632.357 77.7048L643.113 74.941L632.247 72.665L629.483 61.9092L627.207 72.7821L616.451 75.5458L627.324 77.8153L630.081 88.5711Z" fill="#EEED56"/>
<path d="M37.8831 209.112L40.3653 197.243L52.1124 194.229L40.2427 191.747L37.2293 180L34.7471 191.87L23 194.888L34.8697 197.37L37.878 209.112H37.8831Z" fill="#EEED56"/>
</svg>
