<svg width="232" height="110" viewBox="0 0 232 110" fill="none" xmlns="http://www.w3.org/2000/svg">
<path d="M72.2487 76.9285C76.4527 58.8969 65.4212 40.8293 47.6094 36.5734C29.7977 32.3175 11.9505 43.485 7.74655 61.5167C3.54259 79.5483 14.5737 97.6163 32.3855 101.872C50.1972 106.128 68.0448 94.9602 72.2487 76.9285Z" fill="white"/>
<path d="M223.675 76.8674C227.879 58.8358 216.848 40.7682 199.036 36.5123C181.224 32.2565 163.377 43.4239 159.173 61.4556C154.969 79.4872 166 97.5548 183.812 101.811C201.624 106.066 219.471 94.8991 223.675 76.8674Z" fill="white"/>
<path d="M149.325 0.200684H127.782V102.884H149.325V0.200684Z" fill="white"/>
<path d="M98.3109 102.884H76.768L97.9369 0.200684H119.555L98.3109 102.884Z" fill="white"/>
</svg>
