<svg width="669" height="653" viewBox="0 0 669 653" fill="none" xmlns="http://www.w3.org/2000/svg">
<g filter="url(#filter0_d_177_94)">
<path fill-rule="evenodd" clip-rule="evenodd" d="M347.428 57.5458L363.108 57.6184L363.369 1.219L347.689 1.14638L347.541 33.066L326.809 1.04967L311.129 0.977051L310.868 57.3764L326.548 57.4491L326.694 25.9294L347.428 57.5458ZM244.91 13.4954L253.008 45.1974C253.761 48.1428 255.013 50.2449 256.766 51.5036C258.571 52.749 260.868 53.0154 263.658 52.3026C266.449 51.5897 268.337 50.2542 269.323 48.2959C270.347 46.2727 270.49 43.8143 269.751 40.9205L261.652 9.21855L276.844 5.33765L284.943 37.0396C286.223 42.052 286.26 46.6115 285.052 50.7182C283.831 54.7733 281.617 58.1737 278.41 60.9195C275.242 63.6005 271.436 65.5085 266.992 66.6438C262.548 67.779 258.344 67.917 254.382 67.0577C250.458 66.1335 247.039 64.1719 244.126 61.1729C241.265 58.1607 239.187 54.1226 237.894 49.0585L229.795 17.3565L244.91 13.4954ZM168.485 108.372C173.707 108.607 179.046 106.905 184.504 103.265C188.098 100.868 190.775 98.153 192.534 95.1203C194.338 92.058 195.188 88.9589 195.084 85.823C195.024 82.6575 194.062 79.6771 192.198 76.8818C190.363 74.1309 188.144 72.3415 185.54 71.5137C182.951 70.612 180.355 70.3241 177.752 70.65C175.163 70.902 172.042 71.5091 168.389 72.4714C165.919 73.0932 164.026 73.5225 162.709 73.7595C161.363 73.952 160.128 73.9745 159.004 73.8268C157.894 73.6051 157.044 73.0506 156.452 72.1632C155.742 71.0984 155.505 70.0704 155.741 69.0792C155.978 68.0881 156.584 67.267 157.56 66.616C158.847 65.7578 160.126 65.4173 161.398 65.5945C162.715 65.7422 163.869 66.5111 164.86 67.9014L179.036 58.4463C175.737 53.9798 171.602 51.577 166.632 51.2378C161.676 50.8247 156.47 52.4381 151.012 56.0781C147.64 58.3271 144.993 60.8941 143.071 63.7789C141.148 66.6638 140.158 69.6964 140.099 72.8766C140.011 76.0126 140.973 79.0891 142.986 82.1063C144.969 85.079 147.269 87.0385 149.887 87.9846C152.521 88.8568 155.095 89.1595 157.609 88.8927C160.138 88.552 163.274 87.8709 167.016 86.8495C170.522 85.8577 173.17 85.3098 174.959 85.2059C176.749 85.102 178.103 85.7378 179.02 87.1133C179.73 88.1781 179.893 89.2875 179.509 90.4414C179.139 91.5212 178.356 92.4607 177.158 93.2597C175.827 94.1475 174.488 94.4954 173.142 94.3034C171.796 94.1114 170.509 93.2389 169.281 91.686L155.371 100.963C158.863 105.622 163.234 108.092 168.485 108.372ZM133.224 147.172C129.675 151.082 125.504 153.851 120.712 155.479C115.881 157.072 110.968 157.366 105.973 156.361C100.975 155.281 96.4225 152.877 92.3157 149.149C88.2089 145.421 85.3968 141.139 83.8794 136.304C82.3585 131.394 82.1774 126.475 83.3363 121.549C84.4952 116.622 86.8492 112.204 90.3981 108.295C93.983 104.346 98.1534 101.577 102.909 99.988C107.701 98.3595 112.596 98.0852 117.595 99.1651C122.553 100.209 127.086 102.595 131.193 106.324C135.3 110.052 138.132 114.351 139.689 119.222C141.206 124.057 141.405 128.956 140.285 133.918C139.127 138.845 136.773 143.263 133.224 147.172ZM122.443 137.386C125.132 134.424 126.279 131.216 125.886 127.761C125.528 124.267 123.73 121.05 120.492 118.111C117.175 115.1 113.78 113.602 110.308 113.619C106.831 113.561 103.749 115.012 101.06 117.974C98.3356 120.975 97.1701 124.203 97.5636 127.657C97.9176 131.076 99.7531 134.291 103.07 137.302C106.348 140.278 109.725 141.795 113.201 141.853C116.638 141.876 119.719 140.387 122.443 137.386ZM102.329 183.547L51.4294 159.253L43.2969 176.292L70.4019 204.565L31.2359 201.561L23.0689 218.672L73.9683 242.966L80.7224 228.815L52.4209 215.307L85.3401 219.141L90.9915 207.3L67.4898 184.293L95.5747 197.698L102.329 183.547ZM22.8468 274.038L31.8882 275.738L35.2161 258.049L46.9306 260.253L43.6027 277.942L53.5876 279.821L57.3592 259.772L69.7027 262.095L63.032 297.553L7.60435 287.125L14.275 251.667L26.6184 253.989L22.8468 274.038ZM17.1541 317.11L4.67871 317.449L5.91425 363.032L18.3897 362.694L17.9865 347.819L61.8904 346.629L61.4655 330.955L17.5616 332.145L17.1541 317.11ZM64.1894 377.259L68.3406 392.38L43.4732 420.86L73.8685 412.515L78.0197 427.635L23.6321 442.567L19.4809 427.446L44.7341 398.861L13.953 407.312L9.80181 392.191L64.1894 377.259ZM95.5943 481.365L85.5301 464.081L91.9506 456.825L83.6175 442.514L45.1843 488.593L54.2824 504.217L113.367 493.604L105.074 479.362L95.5943 481.365ZM64.4298 487.94L77.1327 473.507L83.2114 483.947L64.4298 487.94ZM81.1163 543.445L134.71 517.242L148.927 531.422L122.917 585.139L111.023 573.275L130.717 535.405L92.9542 555.253L81.1163 543.445ZM174.856 593.995L170.027 601.826L152.663 591.119L146.071 601.81L176.782 620.747L206.383 572.739L175.672 553.803L169.08 564.494L186.445 575.201L181.112 583.849L165.791 574.401L159.534 584.548L174.856 593.995ZM217.838 591.72L234.247 597.859L218.689 639.444L233.374 644.938L253.138 592.115L222.043 580.481L217.838 591.72ZM402.325 66.5072C395.962 64.913 391.112 62.1037 387.777 58.0792C384.455 54.0029 383.345 49.1064 384.447 43.3896L400.666 47.4528C400.341 49.4058 400.561 50.9452 401.323 52.071C402.086 53.1967 403.243 53.954 404.795 54.3428C406.192 54.6928 407.414 54.6417 408.462 54.1894C409.575 53.6984 410.287 52.8321 410.598 51.5905C411 49.9867 410.561 48.5572 409.281 47.3018C408.001 46.0465 405.815 44.4544 402.725 42.5255C399.453 40.4413 396.841 38.5773 394.889 36.9336C393.001 35.2511 391.495 33.1419 390.371 30.606C389.312 28.0314 389.216 25.011 390.085 21.5447C390.966 18.0268 392.597 15.2465 394.978 13.2039C397.372 11.1096 400.283 9.80459 403.711 9.28888C407.14 8.77317 410.82 9.00783 414.751 9.99285C421.115 11.587 425.809 14.3575 428.834 18.3042C431.923 22.2122 432.923 26.8888 431.834 32.334L415.305 28.193C415.668 26.5245 415.462 25.1533 414.686 24.0793C413.962 23.0182 412.85 22.2998 411.35 21.9239C410.212 21.6388 409.196 21.7418 408.304 22.2329C407.411 22.724 406.809 23.5903 406.498 24.8319C406.239 25.8666 406.4 26.8692 406.981 27.8396C407.628 28.7713 408.475 29.6707 409.522 30.5379C410.582 31.3533 412.173 32.4665 414.293 33.8775C417.461 35.9358 420.009 37.8385 421.935 39.5858C423.926 41.2942 425.458 43.4099 426.531 45.9328C427.668 48.4169 427.834 51.2627 427.031 54.4703C426.214 57.7295 424.654 60.4452 422.351 62.6171C420.099 64.8021 417.233 66.2559 413.753 66.9785C410.325 67.7141 406.515 67.557 402.325 66.5072ZM483.686 90.4307L500.324 101.528L497.748 110.869L511.525 120.057L525.782 61.7725L510.741 51.7404L462.341 87.2533L476.052 96.3976L483.686 90.4307ZM508.784 70.8217L503.722 89.3698L493.672 82.6669L508.784 70.8217ZM540.546 151.58C537.07 147.606 534.799 143.145 533.731 138.198C532.704 133.215 532.976 128.301 534.548 123.455C536.195 118.614 539.106 114.367 543.281 110.716C547.456 107.064 552.032 104.763 557.009 103.811C562.062 102.863 566.969 103.249 571.729 104.966C576.49 106.683 580.609 109.528 584.085 113.503C587.596 117.517 589.867 121.978 590.9 126.885C591.967 131.832 591.678 136.727 590.031 141.568C588.424 146.374 585.533 150.603 581.358 154.254C577.183 157.906 572.586 160.225 567.569 161.212C562.592 162.164 557.703 161.799 552.902 160.117C548.141 158.4 544.022 155.555 540.546 151.58ZM551.506 141.995C554.14 145.006 557.195 146.514 560.672 146.52C564.184 146.566 567.586 145.15 570.878 142.271C574.25 139.321 576.127 136.121 576.509 132.669C576.967 129.222 575.879 125.994 573.245 122.983C570.577 119.932 567.504 118.403 564.027 118.397C560.591 118.356 557.186 119.81 553.814 122.76C550.482 125.674 548.587 128.854 548.13 132.301C547.712 135.712 548.838 138.944 551.506 141.995ZM575.041 191.065C574.208 196.225 575.285 201.725 578.275 207.564C580.243 211.41 582.633 214.381 585.443 216.477C588.278 218.621 591.259 219.821 594.386 220.077C597.537 220.382 600.609 219.768 603.599 218.237C606.543 216.73 608.575 214.731 609.697 212.24C610.89 209.772 611.474 207.226 611.449 204.603C611.496 202.002 611.251 198.832 610.715 195.092C610.381 192.567 610.172 190.637 610.088 189.302C610.051 187.943 610.171 186.714 610.446 185.614C610.794 184.537 611.443 183.756 612.392 183.27C613.532 182.686 614.58 182.569 615.537 182.918C616.495 183.267 617.241 183.963 617.775 185.008C618.48 186.384 618.671 187.694 618.349 188.938C618.051 190.229 617.155 191.287 615.66 192.112L623.425 207.28C628.24 204.515 631.102 200.684 632.01 195.785C632.99 190.91 631.985 185.553 628.996 179.714C627.149 176.105 624.903 173.181 622.258 170.94C619.613 168.699 616.714 167.367 613.561 166.944C610.456 166.496 607.29 167.098 604.061 168.751C600.881 170.379 598.67 172.439 597.429 174.932C596.26 177.447 595.664 179.969 595.64 182.498C595.688 185.05 596.005 188.243 596.59 192.078C597.172 195.674 597.413 198.367 597.31 200.157C597.208 201.947 596.421 203.218 594.949 203.972C593.81 204.555 592.689 204.589 591.587 204.075C590.557 203.584 589.713 202.697 589.057 201.416C588.328 199.991 588.136 198.622 588.482 197.307C588.827 195.991 589.842 194.813 591.525 193.771L583.907 178.888C578.878 181.822 575.923 185.881 575.041 191.065ZM605.619 297.06C604.957 291.821 605.565 286.852 607.444 282.153C609.376 277.447 612.347 273.523 616.358 270.382C620.429 267.287 625.216 265.392 630.718 264.696C636.221 264.001 641.303 264.648 645.963 266.64C650.682 268.677 654.536 271.738 657.525 275.822C660.515 279.906 662.34 284.567 663.002 289.806C663.671 295.097 663.063 300.066 661.177 304.712C659.299 309.412 656.324 313.309 652.253 316.404C648.235 319.492 643.475 321.384 637.972 322.08C632.469 322.775 627.362 322.131 622.649 320.146C617.989 318.155 614.138 315.12 611.096 311.043C608.107 306.959 606.281 302.298 605.619 297.06ZM620.064 295.234C620.566 299.202 622.257 302.16 625.137 304.107C628.024 306.108 631.637 306.834 635.976 306.285C640.42 305.723 643.765 304.118 646.011 301.469C648.316 298.866 649.218 295.58 648.716 291.612C648.208 287.59 646.513 284.606 643.633 282.658C640.806 280.704 637.17 280.008 632.725 280.57C628.333 281.125 624.985 282.704 622.68 285.307C620.428 287.903 619.556 291.212 620.064 295.234ZM630.465 361.837L662.894 366.196L664.972 350.735L632.544 346.376C627.363 345.679 622.841 346.094 618.977 347.619C615.105 349.198 612.007 351.633 609.681 354.926C607.4 358.279 605.955 362.228 605.344 366.774C604.732 371.32 605.077 375.563 606.377 379.505C607.722 383.507 610.046 386.833 613.349 389.483C616.705 392.14 620.947 393.814 626.074 394.503L658.502 398.862L660.591 383.322L628.163 378.963C625.203 378.565 622.977 377.512 621.484 375.805C620.037 374.157 619.506 371.906 619.89 369.052C620.273 366.198 621.38 364.167 623.211 362.96C625.034 361.806 627.452 361.432 630.465 361.837ZM634.307 470.876L622.671 466.365L628.107 452.342L587.157 436.467L592.824 421.847L633.775 437.722L639.153 423.848L650.789 428.359L634.307 470.876ZM580.522 492.793L557.023 490.367L547.177 504.859L572.523 506.701C571.26 510.743 571.235 514.434 572.448 517.773C573.675 521.186 575.877 523.972 579.053 526.13C581.877 528.048 584.863 529.11 588.012 529.315C591.205 529.55 594.326 528.801 597.373 527.067C600.465 525.364 603.285 522.637 605.832 518.887L619.725 498.44L573.074 466.744L564.262 479.714L581.466 491.403L580.522 492.793ZM585.972 503.846L590.333 497.428L600.061 504.036L595.7 510.455C594.531 512.176 593.205 513.177 591.724 513.46C590.256 513.817 588.772 513.486 587.272 512.467C585.684 511.388 584.771 510.122 584.532 508.671C584.293 507.219 584.773 505.611 585.972 503.846ZM515.282 535.517C519.238 532.02 523.686 529.725 528.628 528.631C533.605 527.577 538.52 527.823 543.375 529.369C548.225 530.99 552.486 533.878 556.16 538.034C559.834 542.19 562.16 546.754 563.138 551.726C564.112 556.773 563.753 561.682 562.062 566.452C560.37 571.222 557.546 575.355 553.59 578.852C549.594 582.385 545.146 584.68 540.244 585.739C535.303 586.832 530.407 586.569 525.557 584.948C520.743 583.367 516.499 580.498 512.825 576.343C509.151 572.187 506.808 567.603 505.794 562.591C504.815 557.619 505.154 552.728 506.811 547.918C508.502 543.148 511.326 539.014 515.282 535.517ZM524.925 546.426C521.928 549.075 520.436 552.138 520.449 555.615C520.422 559.127 521.856 562.522 524.753 565.798C527.72 569.155 530.93 571.015 534.384 571.379C537.833 571.818 541.056 570.713 544.053 568.064C547.09 565.379 548.602 562.298 548.589 558.821C548.612 555.384 547.14 551.988 544.173 548.631C541.241 545.315 538.05 543.437 534.601 542.998C531.187 542.599 527.962 543.741 524.925 546.426ZM475.981 570.222C470.817 569.416 465.323 570.523 459.5 573.543C455.665 575.532 452.706 577.937 450.625 580.759C448.497 583.605 447.312 586.592 447.072 589.721C446.785 592.874 447.415 595.942 448.962 598.924C450.484 601.86 452.494 603.882 454.991 604.99C457.465 606.17 460.014 606.74 462.638 606.701C465.238 606.734 468.407 606.473 472.144 605.917C474.667 605.569 476.596 605.35 477.931 605.259C479.29 605.215 480.52 605.328 481.621 605.598C482.7 605.94 483.484 606.584 483.975 607.531C484.565 608.667 484.688 609.715 484.344 610.674C484 611.633 483.308 612.383 482.266 612.923C480.893 613.635 479.584 613.834 478.339 613.518C477.047 613.227 475.984 612.336 475.151 610.846L460.024 618.691C462.814 623.492 466.661 626.333 471.564 627.215C476.445 628.169 481.796 627.135 487.62 624.115C491.218 622.249 494.131 619.987 496.357 617.331C498.584 614.674 499.901 611.768 500.308 608.613C500.739 605.506 500.119 602.342 498.45 599.123C496.805 595.951 494.733 593.751 492.234 592.524C489.712 591.368 487.187 590.785 484.658 590.775C482.106 590.837 478.915 591.17 475.083 591.776C471.49 592.377 468.799 592.632 467.008 592.539C465.218 592.446 463.942 591.666 463.181 590.198C462.592 589.062 462.551 587.941 463.06 586.837C463.545 585.804 464.427 584.956 465.706 584.293C467.126 583.556 468.495 583.357 469.811 583.695C471.128 584.034 472.312 585.042 473.363 586.72L488.205 579.022C485.245 574.009 481.17 571.076 475.981 570.222Z" fill="#F7C300"/>
</g>
<defs>
<filter id="filter0_d_177_94" x="0.678711" y="0.977051" width="668.293" height="651.961" filterUnits="userSpaceOnUse" color-interpolation-filters="sRGB">
<feFlood flood-opacity="0" result="BackgroundImageFix"/>
<feColorMatrix in="SourceAlpha" type="matrix" values="0 0 0 0 0 0 0 0 0 0 0 0 0 0 0 0 0 0 127 0" result="hardAlpha"/>
<feOffset dy="4"/>
<feGaussianBlur stdDeviation="2"/>
<feComposite in2="hardAlpha" operator="out"/>
<feColorMatrix type="matrix" values="0 0 0 0 0 0 0 0 0 0 0 0 0 0 0 0 0 0 0.25 0"/>
<feBlend mode="normal" in2="BackgroundImageFix" result="effect1_dropShadow_177_94"/>
<feBlend mode="normal" in="SourceGraphic" in2="effect1_dropShadow_177_94" result="shape"/>
</filter>
</defs>
</svg>
