<svg width="86" height="41" viewBox="0 0 86 41" fill="none" xmlns="http://www.w3.org/2000/svg">
<path d="M26.8223 28.8561C28.3859 22.1494 24.2828 15.4293 17.6579 13.8464C11.033 12.2635 4.39485 16.4171 2.83123 23.1238C1.2676 29.8306 5.37054 36.5508 11.9955 38.1337C18.6204 39.7167 25.2586 35.5629 26.8223 28.8561Z" fill="#23BEBE"/>
<path d="M83.1441 28.8336C84.7077 22.1269 80.6047 15.4068 73.9797 13.8239C67.3548 12.2409 60.7167 16.3946 59.1531 23.1013C57.5895 29.808 61.6924 36.5281 68.3174 38.111C74.9423 39.6939 81.5805 35.5403 83.1441 28.8336Z" fill="#23BEBE"/>
<path d="M55.4902 0.318115H47.4776V38.5103H55.4902V0.318115Z" fill="#23BEBE"/>
<path d="M36.516 38.5103H28.5034L36.3769 0.318115H44.4175L36.516 38.5103Z" fill="#23BEBE"/>
</svg>
