<svg width="501" height="221" viewBox="0 0 501 221" fill="none" xmlns="http://www.w3.org/2000/svg">
<path d="M172.861 220.321C175.21 216.362 177.121 213.459 178.421 211.98L196.417 188.461C212.43 177.891 227.787 156.476 243.136 134.95L181.67 118.633C181.068 108.097 180.95 96.8904 180.255 86.48C192.893 64.619 215.359 49.857 228.465 28.2703C230.761 24.4902 232.82 20.2301 231.478 15.707C231.112 14.4723 230.437 13.352 229.518 12.4909C228.946 11.9612 228.279 11.523 227.527 11.2296C223.916 9.80443 220.892 12.1593 218.299 14.3694C214.931 17.235 211.564 20.0814 208.201 22.9127C209.093 21.0989 209.913 19.2469 210.637 17.3531C211.843 14.1865 212.796 10.7837 212.228 7.44571C211.843 5.16701 210.576 2.94546 208.746 1.60797C207.896 0.986848 206.923 0.552446 205.859 0.403835C201.34 -0.255388 197.717 3.88667 195.052 7.59051L189.93 14.7162C182.566 24.9666 175.195 35.2131 167.827 45.4634C169.395 37.3051 170.851 29.1277 172.182 20.9274C172.922 16.37 174.726 2.7778 168.384 0.571499C167.644 0.312383 166.798 0.205683 165.821 0.293326C163.263 0.514337 161.325 2.69778 160.055 4.93075C157.954 8.63078 156.921 12.8186 155.964 16.9682C155.918 17.1664 155.872 17.3683 155.826 17.5665C151.04 38.3796 146.312 59.1966 141.579 80.0212C138.833 83.8393 136.934 88.2443 136.057 92.9313C131.584 116.743 126.218 140.395 119.976 163.815L82.1232 220.321H172.861Z" fill="#EEED56"/>
<path d="M181.533 146.953C182.181 172.583 178.375 191.971 170.135 205.144" stroke="#333333" stroke-width="1.57764" stroke-linecap="round" stroke-linejoin="round"/>
<path d="M206.687 24.193L143.093 79.8802" stroke="#333333" stroke-width="1.57764" stroke-linecap="round" stroke-linejoin="round"/>
<path d="M167.08 46.5112L151.75 67.8312" stroke="#333333" stroke-width="1.57764" stroke-linecap="round" stroke-linejoin="round"/>
<path d="M409.09 220.321C406.741 216.362 404.834 213.459 403.534 211.98L385.538 188.461C369.521 177.891 354.164 156.476 338.819 134.95L400.285 118.633C400.887 108.097 401.002 96.8904 401.699 86.48C389.058 64.619 366.593 49.857 353.486 28.2703C351.194 24.4902 349.131 20.2301 350.473 15.707C350.843 14.4723 351.518 13.352 352.433 12.4909C353.005 11.9612 353.672 11.523 354.424 11.2296C358.035 9.80443 361.059 12.1593 363.656 14.3694C367.02 17.235 370.387 20.0814 373.754 22.9127C372.858 21.0989 372.042 19.2469 371.314 17.3531C370.109 14.1865 369.155 10.7837 369.723 7.44571C370.109 5.16701 371.375 2.94546 373.205 1.60797C374.056 0.986848 375.028 0.552446 376.092 0.403835C380.611 -0.255388 384.234 3.88667 386.899 7.59051L392.021 14.7162C399.388 24.9666 406.756 35.2131 414.124 45.4634C412.56 37.3051 411.103 29.1277 409.769 20.9274C409.029 16.37 407.225 2.7778 413.567 0.571499C414.307 0.312383 415.153 0.205683 416.133 0.293326C418.692 0.514337 420.626 2.69778 421.896 4.93075C424.001 8.63078 425.034 12.8186 425.991 16.9682C426.037 17.1664 426.083 17.3683 426.129 17.5665C430.914 38.3796 435.643 59.1966 440.372 80.0212C443.118 83.8393 445.017 88.2443 445.898 92.9313C450.371 116.743 455.736 140.395 461.975 163.815L499.828 220.321H409.09Z" fill="#EEED56"/>
<path d="M400.422 146.953C399.773 172.583 403.576 191.971 411.82 205.144" stroke="#333333" stroke-width="1.57764" stroke-linecap="round" stroke-linejoin="round"/>
<path d="M375.268 24.193L438.862 79.8802" stroke="#333333" stroke-width="1.57764" stroke-linecap="round" stroke-linejoin="round"/>
<path d="M414.875 46.5112L430.201 67.8312" stroke="#333333" stroke-width="1.57764" stroke-linecap="round" stroke-linejoin="round"/>
<path d="M227.608 172.19C263.836 172.19 293.203 142.845 293.203 106.645C293.203 70.4452 263.836 41.1003 227.608 41.1003C191.38 41.1003 162.012 70.4452 162.012 106.645C162.012 142.845 191.383 172.19 227.608 172.19Z" fill="#25C8C8"/>
<path d="M227.607 164.851C259.782 164.851 285.862 138.791 285.862 106.645C285.862 74.4997 259.782 48.4395 227.607 48.4395C195.433 48.4395 169.357 74.4959 169.357 106.645C169.357 138.795 195.437 164.851 227.607 164.851Z" fill="#333333"/>
<path d="M272.42 106.44C272.42 115.23 262.459 122.836 247.968 126.498C242.084 127.992 235.444 128.83 228.424 128.83C221.403 128.83 214.764 127.992 208.88 126.498C194.381 122.844 184.424 115.23 184.424 106.44C184.424 97.6486 194.381 90.039 208.88 86.3809C214.764 84.891 221.403 84.0526 228.424 84.0526C235.444 84.0526 242.084 84.891 247.968 86.3809C262.459 90.039 272.42 97.6448 272.42 106.44Z" fill="#EEED56"/>
<path d="M256.441 106.44C256.441 114.308 253.192 121.415 247.968 126.498C242.083 127.992 235.444 128.83 228.424 128.83C221.403 128.83 214.764 127.992 208.879 126.498C203.651 121.415 200.406 114.308 200.406 106.44C200.406 98.5708 203.647 91.4679 208.879 86.3809C214.764 84.891 221.403 84.0526 228.424 84.0526C235.444 84.0526 242.083 84.891 247.968 86.3809C253.192 91.4679 256.441 98.5746 256.441 106.44Z" fill="#333333"/>
<path d="M208.792 126.837L208.704 126.815L208.635 126.75C203.102 121.373 200.055 114.16 200.055 106.44C200.055 98.7195 203.102 91.51 208.635 86.1295L208.704 86.0647L208.792 86.0418C214.92 84.4871 221.525 83.6984 228.424 83.6984C235.322 83.6984 241.927 84.4871 248.055 86.0418L248.147 86.0647L248.216 86.1295C253.745 91.5176 256.792 98.7309 256.792 106.44C256.792 114.148 253.745 121.362 248.216 126.75L248.147 126.815L248.055 126.837C241.927 128.392 235.322 129.181 228.424 129.181C221.525 129.181 214.916 128.392 208.792 126.837ZM256.087 106.44C256.087 98.952 253.143 91.9482 247.788 86.7011C241.744 85.1769 235.231 84.4033 228.424 84.4033C221.617 84.4033 215.103 85.1731 209.059 86.7011C203.705 91.9406 200.761 98.9443 200.761 106.44C200.761 113.935 203.705 120.943 209.059 126.178C215.099 127.702 221.617 128.476 228.424 128.476C235.231 128.476 241.748 127.702 247.788 126.178C253.143 120.935 256.087 113.931 256.087 106.44Z" fill="#333333"/>
<path d="M231.501 141.862L263.073 131.235" stroke="#333333" stroke-width="1.57764" stroke-linecap="round" stroke-linejoin="round"/>
<path d="M358.596 172.19C394.824 172.19 424.191 142.845 424.191 106.645C424.191 70.4452 394.824 41.1003 358.596 41.1003C322.368 41.1003 293 70.4452 293 106.645C293 142.845 322.368 172.19 358.596 172.19Z" fill="#25C8C8"/>
<path d="M358.596 164.851C390.766 164.851 416.846 138.791 416.846 106.645C416.846 74.4997 390.766 48.4395 358.596 48.4395C326.425 48.4395 300.345 74.4959 300.345 106.645C300.345 138.795 326.425 164.851 358.596 164.851Z" fill="#333333"/>
<path d="M313.787 106.44C313.787 115.23 323.744 122.836 338.235 126.498C344.12 127.992 350.759 128.83 357.78 128.83C364.8 128.83 371.439 127.992 377.324 126.498C391.822 122.844 401.783 115.23 401.783 106.44C401.783 97.6486 391.822 90.039 377.324 86.3809C371.439 84.891 364.8 84.0526 357.78 84.0526C350.759 84.0526 344.12 84.891 338.235 86.3809C323.744 90.039 313.787 97.6448 313.787 106.44Z" fill="#EEED56"/>
<path d="M329.766 106.44C329.766 114.308 333.015 121.415 338.235 126.498C344.123 127.992 350.763 128.83 357.78 128.83C364.796 128.83 371.439 127.992 377.327 126.498C382.556 121.415 385.797 114.308 385.797 106.44C385.797 98.5708 382.556 91.4679 377.327 86.3809C371.439 84.891 364.8 84.0526 357.78 84.0526C350.759 84.0526 344.123 84.891 338.235 86.3809C333.015 91.4679 329.766 98.5746 329.766 106.44Z" fill="#333333"/>
<path d="M379.799 129.181C372.9 129.181 366.291 128.396 360.167 126.841L360.075 126.818L360.01 126.75C354.477 121.365 351.43 114.152 351.43 106.443C351.43 98.7347 354.477 91.5175 360.01 86.1332L360.075 86.0646L360.167 86.0418C366.295 84.4871 372.9 83.7021 379.799 83.7021C386.697 83.7021 393.302 84.4871 399.43 86.0418L399.522 86.0646L399.587 86.1294C405.12 91.5099 408.167 98.7233 408.167 106.443C408.167 114.164 405.12 121.373 399.587 126.754L399.522 126.818L399.43 126.841C393.302 128.396 386.697 129.181 379.799 129.181ZM360.434 126.178C366.474 127.702 372.991 128.476 379.799 128.476C386.606 128.476 393.123 127.706 399.163 126.178C404.517 120.942 407.462 113.935 407.462 106.44C407.462 98.9443 404.517 91.9405 399.163 86.701C393.119 85.1768 386.606 84.4033 379.799 84.4033C372.991 84.4033 366.478 85.1768 360.434 86.701C355.08 91.9443 352.136 98.9519 352.136 106.44C352.136 113.927 355.08 120.935 360.434 126.178Z" fill="#333333"/>
<path d="M386.725 141.862L355.153 131.235" stroke="#333333" stroke-width="1.57764" stroke-linecap="round" stroke-linejoin="round"/>
<path d="M83.7641 128.771L86.5631 115.411L99.7959 112.019L86.4259 109.223L83.0319 96L80.2328 109.364L67 112.759L80.3739 115.552L83.7641 128.771Z" fill="#EEED56"/>
<path d="M9.16379 186.598L10.693 179.297L17.9234 177.441L10.6167 175.913L8.75956 168.688L7.23036 175.993L0 177.845L7.31044 179.373L9.16379 186.598Z" fill="#EEED56"/>
<path d="M485.762 103.44L488.268 91.4788L500.116 88.4418L488.146 85.9383L485.106 74.099L482.601 86.0641L470.752 89.1011L482.727 91.6046L485.762 103.44Z" fill="#EEED56"/>
<path d="M471.211 66.099L472.416 60.3527L478.11 58.8933L472.359 57.6891L470.899 52L469.694 57.7501L464 59.2095L469.755 60.4137L471.211 66.099Z" fill="#EEED56"/>
</svg>
