<svg width="596" height="734" viewBox="0 0 596 734" fill="none" xmlns="http://www.w3.org/2000/svg">
<path d="M64.36 635.372L142.914 350.376L-78 298.092L125.869 232.567L12.8666 43.7084L207.31 145.771L278.768 0.28125L325.94 155.368L596 12.4727L392.386 254.125L553.962 385.122L356.644 367.672L389.064 566.358L264.008 430.478L64.36 635.372Z" fill="#DFE0F6"/>
<path d="M327.115 158.598C328.625 160.652 330.445 162.598 331.098 165.062C331.993 168.43 330.516 172.036 331.177 175.454C332.479 182.132 340.905 184.926 343.8 191.076C346.373 196.528 344.017 203.314 346.482 208.811C348.912 214.258 355.631 217.342 356.786 223.199C357.661 227.621 355.016 232.495 356.97 236.562C358.029 238.771 360.225 240.173 361.907 241.963C366.614 246.959 367.04 254.493 367.187 261.355C367.329 267.781 367.459 274.349 365.459 280.454C363.459 286.558 358.911 292.222 352.669 293.754C348.122 294.867 343.218 293.708 338.721 295.063C332.583 296.917 327.86 303.28 321.459 302.895C315.246 302.519 311.246 295.938 305.376 293.862C301.218 292.394 296.657 293.348 292.252 293.461C287.842 293.574 282.755 292.348 280.843 288.378C279.927 286.486 279.906 284.24 278.952 282.361C277.019 278.567 272.032 277.445 269.325 274.157C265.761 269.835 267.2 263.3 269.785 258.33C272.367 253.36 275.977 248.607 276.387 243.034C276.755 237.943 274.375 232.679 275.994 227.843C277.994 221.898 285.412 218.702 286.554 212.522C287.236 208.845 285.432 205.096 285.826 201.373C286.449 195.402 292.256 191.507 295.197 186.273C296.641 183.709 297.385 180.814 298.109 177.965L305.586 148.632C306.711 144.219 308.046 139.474 311.635 136.667C323.387 127.475 322.814 152.758 327.119 158.598H327.115Z" fill="#333333"/>
<path d="M89.7218 500.786L109.511 502.384L124.028 503.56L152.336 505.844L166.853 507.02L193.039 509.132L207.557 510.304L237.065 512.689L251.582 513.864L277.321 515.948L277.89 513.228L282.383 491.72L285.378 477.382L290.78 451.522L293.775 437.181L296.231 425.433L298.168 416.149C299.766 415.086 301.264 414.015 302.666 412.932C306.849 409.735 310.23 406.484 312.933 403.209C313.903 402.029 314.815 400.799 315.669 399.527C321.254 391.139 322.748 382.512 322.07 373.755C321.685 368.827 320.606 363.861 319.187 358.869C317.012 351.242 314.029 343.578 311.443 335.934L311.012 328.403L310.167 313.714L308.627 287.206L307.774 272.496L307.644 270.233L302.967 268.614L288.617 263.618L275.542 259.07C270.141 273.329 261.652 286.666 247.892 292.423C235.517 297.599 220.961 295.41 209.055 289.214C197.148 283.014 187.533 273.216 178.94 262.911C174.045 257.062 169.451 250.971 165.18 244.653L163.561 244.695L147.52 245.134L142.144 257.175L135.868 271.203L133.814 275.797L124.56 296.511L118.288 310.556L117.698 311.873L105.545 339.084L100.461 350.452L100.269 353.213L98.3989 379.416L97.3571 393.937L96.8509 400.958L95.5749 418.852L94.5373 433.373L92.6672 459.572L91.6296 474.098L89.7302 500.786H89.7218Z" fill="#EEED56"/>
<path d="M147.52 245.13C94.0391 226.541 65.6775 254.338 73.3003 348.56L60.6654 495.727L139.621 504.572L151.62 332.139L147.516 245.13H147.52Z" fill="#C58E5B"/>
<path d="M59.8668 390.448L62.0047 376.031L65.858 350.021L66.3558 346.657C66.042 342.783 65.7994 339.022 65.632 335.374C65.1258 324.483 65.2346 314.589 65.9626 305.698C66.3726 300.565 66.975 295.75 67.7741 291.256C68.4477 287.353 69.3305 283.491 70.414 279.684C71.7612 274.843 73.5728 270.141 75.8153 265.639C76.7901 263.702 77.8695 261.819 79.0576 260C80.9445 257.088 83.1326 254.385 85.5968 251.942C88.1782 249.369 91.0901 247.151 94.253 245.344C101.876 240.989 110.795 239.131 120.774 239.566C125.652 239.805 130.501 240.482 135.258 241.591C139.4 242.545 143.483 243.729 147.495 245.135L148.642 257.774L149.976 272.517L152.394 299.097L153.729 313.84L155.423 332.14L154.829 343.641L154.21 355.544L154.076 358.192L152.725 384.428L151.976 398.975L151.641 405.409L128.346 403.518L113.829 402.339L96.872 400.95L87.6427 400.201L73.1251 399.013L58.7916 397.841L59.8668 390.448Z" fill="#EEED56"/>
<path d="M165.167 244.649C169.439 250.967 174.028 257.062 178.923 262.907C187.516 273.212 197.131 283.018 209.038 289.21C220.945 295.402 235.508 297.582 247.875 292.419C261.652 286.662 270.116 273.329 275.526 259.066L264.054 255.084L262.702 254.845L248.243 252.293L218.857 247.109L199.624 243.712L165.163 244.649H165.167Z" fill="#C58E5B"/>
<path d="M278.739 215.76L264.527 267.868C253.381 284.821 224.853 274.566 189.203 253.183C206.457 231.742 216.016 202.054 221.418 167.91L278.739 215.76Z" fill="#C58E5B"/>
<path d="M307.636 270.237C342.101 263.61 371.538 287.508 394.8 348.875L485.762 498.577L410.915 525.106L299.431 347.933L307.636 270.237Z" fill="#C58E5B"/>
<path d="M289.935 367.505L292.169 370.977L298.16 380.269L310.226 399.012L312.924 403.196L320.233 414.542L321.585 416.663L335.24 437.883L336.688 440.134L362.196 422.086L366.765 418.856L377.22 411.455L385.014 405.932L417.969 382.62L418.794 382.03L410.096 367.27L397.942 346.657C396.545 342.975 395.118 339.436 393.654 336.039C391.315 330.587 388.888 325.491 386.378 320.751C384.772 317.714 383.136 314.819 381.475 312.07C377.082 304.807 372.496 298.515 367.714 293.193C367.547 292.996 367.376 292.8 367.2 292.611C360.661 285.399 353.808 279.939 346.708 276.102C345.235 275.308 343.754 274.588 342.269 273.939C337.679 271.902 332.843 270.488 327.881 269.731C321.149 268.739 314.296 268.911 307.623 270.237L307.218 272.454L304.607 286.825L301.411 304.418V304.443L299.896 312.752L297.285 327.127L291.972 356.342L289.935 367.505Z" fill="#EEED56"/>
<path d="M214.037 161.484C212.51 139.829 229.973 121.195 249.193 113.346C263.887 107.351 281.504 108.033 294.896 116.539C304.967 122.935 312.184 133.888 313.882 145.712C314.727 151.548 314.732 157.769 315.087 163.656C315.564 170.889 315.28 178.157 314.234 185.332C312.389 197.469 307.364 209.794 299.222 219.074C287.897 231.985 270.376 234.106 255.076 227.416C231.504 217.103 215.765 185.93 214.037 161.484Z" fill="#C58E5B"/>
<path d="M294.675 177.437C293.512 176.048 294.265 173.508 296.352 171.768C298.44 170.028 301.072 169.743 302.235 171.136C303.394 172.529 302.641 175.069 300.553 176.809C298.465 178.55 295.834 178.83 294.675 177.437Z" fill="#333333"/>
<path d="M270.56 173.349C268.823 171.249 268.551 168.605 269.953 167.446C271.354 166.291 273.898 167.057 275.634 169.157C277.371 171.262 277.643 173.906 276.241 175.06C274.839 176.219 272.296 175.454 270.56 173.349Z" fill="#333333"/>
<path d="M265.857 161.246C264.238 160.974 262.569 160.569 261.318 159.665C260.063 158.757 259.301 157.234 259.849 155.841C260.594 153.95 263.213 153.159 265.481 152.887C269.397 152.423 282.224 152.373 282.245 157.452C282.278 163.389 269.501 161.866 265.853 161.246H265.857Z" fill="#333333"/>
<path d="M298.511 166.049C297.135 165.137 295.783 164.099 295.001 162.761C294.219 161.426 294.147 159.723 295.214 158.673C296.658 157.255 299.377 157.594 301.561 158.263C305.339 159.43 317.062 164.593 315.024 169.25C312.648 174.684 301.59 168.099 298.511 166.049Z" fill="#333333"/>
<path d="M288.047 186.102C290.44 185.75 307.543 185.106 302.406 179.705C299.431 176.571 288.629 177.956 284.554 177.977L288.047 186.102Z" fill="#C58E5B"/>
<path d="M288.047 186.102C290.44 185.75 307.543 185.106 302.406 179.705C299.431 176.571 288.629 177.956 284.554 177.977" stroke="#333333" stroke-width="1.24581" stroke-linecap="round" stroke-linejoin="round"/>
<path d="M284.709 194.097C278.421 201.519 272.727 199.335 267.815 184.441C278.898 185.432 289.365 186.675 284.709 194.097Z" fill="#333333"/>
<path d="M286.817 194.097C280.107 194.381 273.492 189.578 266.911 182.934" stroke="#333333" stroke-width="1.24581" stroke-linecap="round" stroke-linejoin="round"/>
<path d="M118.644 250.059C117.769 246.009 118.455 241.306 115.82 238.093C114.037 235.93 111.109 234.976 109.255 232.868C105.921 229.085 107.256 223.073 109.845 218.739C112.435 214.409 116.125 210.577 117.347 205.677C118.501 201.059 118.075 194.812 122.518 193.101C124.861 192.197 127.651 193.168 129.923 192.064C134.082 190.034 132.726 183.562 135.324 179.721C137.738 176.14 143.064 175.621 145.717 172.212C149.423 167.442 147.227 158.2 153.009 156.481C154.77 155.958 156.758 156.481 158.439 155.732C162.987 153.728 160.506 145.817 164.338 142.649C167.426 140.102 172.765 142.244 175.685 139.491C178.116 137.185 177.408 132.663 180.069 130.625C183.04 128.362 187.751 130.935 190.872 128.91C195.035 126.207 193.951 117.12 198.9 117.526C200.344 117.643 201.511 118.748 202.896 119.187C207.218 120.555 210.493 115.501 212.799 111.623C216.246 105.807 220.066 107.406 225.371 106.908C227.609 106.699 243.173 107.803 243.67 107.414C257.088 97.0174 276.818 96.9379 291.75 105.017C306.682 113.091 318.961 125.831 321.45 142.612C322.697 151.004 312.154 153.017 305.912 152.749C283.541 151.783 265.225 146.934 246.691 134.976C248.524 136.156 249.934 151.82 250.515 159.163C251.436 170.89 246.766 183.658 240.428 193.49C238.186 196.971 235.479 200.623 235.776 204.761C235.972 207.522 237.525 210.271 236.746 212.932C236.002 215.497 233.395 216.965 231.613 218.961C226.526 224.692 229.575 231.361 229.404 238.051C229.354 239.846 229.015 241.904 227.479 242.825C226.375 243.49 224.961 243.369 223.768 243.846C218.066 246.189 223.969 257.041 218.853 260.472C218.041 261.012 217.041 261.258 216.133 261.664C209.109 264.806 209.565 276.521 202.503 279.541C196.331 282.19 189.294 276.094 182.805 277.813C179.157 278.78 175.722 282.152 172.204 280.784C168.945 279.525 167.715 274.692 164.238 274.337C161.335 274.04 158.548 277.244 155.866 276.073C154.373 275.416 153.708 273.667 152.482 272.613C150.679 271.073 148.051 271.262 145.687 271.124H145.629C142.813 270.952 140.202 268.915 138.194 267.969C137.872 267.818 136.504 263.38 135.701 262.543C133.877 260.652 131.492 261.087 129.442 259.991C124.308 257.238 120.292 257.706 118.648 250.059H118.644Z" fill="#333333"/>
<path d="M246.699 134.972L243.658 107.401" stroke="#333333" stroke-width="1.24581" stroke-linecap="round" stroke-linejoin="round"/>
<path d="M218.857 247.105L248.247 252.293L262.706 254.841L264.053 255.079L218.861 247.105H218.857Z" fill="#C58E5B"/>
<path d="M314 716.5L66.5002 733.5C61.5425 699.453 63.4312 568.433 75.4971 534.666C75.631 534.293 75.7691 533.921 75.8988 533.553C79.957 522.407 84.5716 511.471 89.726 500.786L145.37 505.283L150.315 505.681L152.344 505.844L166.862 507.015L277.321 515.931L301 661L314 716.5Z" fill="#333333"/>
<path d="M207.21 511.835L194.044 636.36" stroke="#333333" stroke-width="1.24581" stroke-linecap="round" stroke-linejoin="round"/>
<path d="M357.548 298.891L404.08 504.443C418.007 567.45 487.763 558.639 487.968 505.986L425.73 293.49L357.548 298.891Z" fill="#C58E5B"/>
<path d="M382.525 407.573L399.963 481.323" stroke="#333333" stroke-width="1.24581" stroke-linecap="round" stroke-linejoin="round"/>
<path d="M298.16 416.149C335.274 391.298 320.727 363.459 311.426 335.926L309.414 293.323" stroke="#333333" stroke-width="1.24581" stroke-linecap="round" stroke-linejoin="round"/>
<path d="M219.045 198.887C206.088 198.887 195.587 188.386 195.587 175.429C195.587 162.472 206.088 151.97 219.045 151.97C232.002 151.97 242.504 162.472 242.504 175.429C242.504 188.386 232.002 198.887 219.045 198.887Z" fill="#C58E5B"/>
<path d="M234.429 175.429C234.504 173.362 234.165 171.296 233.429 169.363C232.693 167.43 231.571 165.664 230.132 164.171C228.697 162.681 226.973 161.493 225.07 160.686C223.166 159.874 221.116 159.456 219.045 159.456C216.974 159.456 214.924 159.874 213.021 160.686C211.117 161.493 209.393 162.681 207.958 164.171C206.523 165.664 205.402 167.43 204.662 169.363C203.925 171.296 203.582 173.362 203.662 175.429" stroke="#333333" stroke-width="1.24581" stroke-linecap="round" stroke-linejoin="round"/>
<path d="M219.045 160.045C218.347 169.802 222.091 178.483 228.978 186.403" stroke="#333333" stroke-width="1.24581" stroke-linecap="round" stroke-linejoin="round"/>
<path d="M426.341 298.209C426.91 292.138 426.88 286.03 426.249 279.968C424.822 266.32 421.446 245.025 413.802 213.124C413.48 206.644 412.338 199.519 407.405 195.281C402.916 191.423 396.193 191.005 390.599 192.954C389.905 193.197 389.223 193.465 388.553 193.762C384.231 191.348 378.671 191.293 373.918 192.954C372.772 193.356 371.655 193.837 370.58 194.398C366.141 191.369 360.045 191.155 354.912 192.954C354.125 193.222 353.355 193.544 352.602 193.892C348.251 191.356 342.578 191.273 337.746 192.954C332.152 194.9 327.496 198.862 323.337 203.079C320.383 206.066 317.61 209.844 315.024 213.153H340.219C342.708 243.711 344.026 284.365 357.405 301.163L426.341 298.209Z" fill="#C58E5B"/>
<path d="M378.973 227.236L378.801 228.09C378.395 230.018 377.341 231.751 375.814 232.993C374.283 234.24 372.371 234.918 370.4 234.918C369.191 234.918 367.995 234.662 366.89 234.165C365.786 233.671 364.798 232.947 363.991 232.043C363.187 231.135 362.585 230.073 362.221 228.918C361.857 227.759 361.744 226.542 361.886 225.341L363.263 213.125" stroke="#333333" stroke-width="1.24581" stroke-linecap="round" stroke-linejoin="round"/>
<path d="M316.137 242.013C316.137 244.151 316.555 246.268 317.375 248.242C318.191 250.217 319.392 252.012 320.902 253.526C322.417 255.037 324.211 256.238 326.186 257.053C328.161 257.873 330.278 258.292 332.416 258.292H342.511C339.766 253.217 338.507 247.468 338.884 241.707C339.256 235.946 341.252 230.411 344.632 225.734H332.407C328.09 225.734 323.952 227.453 320.902 230.503C317.852 233.557 316.137 237.695 316.137 242.013Z" fill="white"/>
<path d="M338.826 243.695C338.826 251.816 342.051 259.606 347.795 265.346C353.536 271.09 361.322 274.32 369.442 274.32H406.92C401.469 271.325 396.908 266.94 393.699 261.61C390.491 256.28 388.75 250.197 388.654 243.976C388.553 237.759 390.106 231.621 393.143 226.195C396.185 220.768 400.603 216.242 405.958 213.074H369.442C365.422 213.074 361.439 213.865 357.723 215.405C354.008 216.944 350.636 219.199 347.791 222.044C344.946 224.885 342.691 228.261 341.156 231.977C339.616 235.692 338.826 239.675 338.826 243.695Z" fill="white"/>
<path d="M316.137 242.013C316.137 244.151 316.555 246.268 317.375 248.242C318.191 250.217 319.392 252.012 320.902 253.526C322.417 255.037 324.211 256.238 326.186 257.053C328.161 257.873 330.278 258.292 332.416 258.292H342.511C339.766 253.217 338.507 247.468 338.884 241.707C339.256 235.946 341.252 230.411 344.632 225.734H332.407C328.09 225.734 323.952 227.453 320.902 230.503C317.852 233.557 316.137 237.695 316.137 242.013Z" stroke="#333333" stroke-width="1.24581" stroke-linecap="round" stroke-linejoin="round"/>
<path d="M338.826 243.695C338.826 251.816 342.051 259.606 347.795 265.346C353.536 271.09 361.322 274.32 369.442 274.32H406.92C401.469 271.325 396.908 266.94 393.699 261.61C390.491 256.28 388.75 250.197 388.654 243.976C388.553 237.759 390.106 231.621 393.143 226.195C396.185 220.768 400.603 216.242 405.958 213.074H369.442C365.422 213.074 361.439 213.865 357.723 215.405C354.008 216.944 350.636 219.199 347.791 222.044C344.946 224.885 342.691 228.261 341.156 231.977C339.616 235.692 338.826 239.675 338.826 243.695V243.695Z" stroke="#333333" stroke-width="1.24581" stroke-linecap="round" stroke-linejoin="round"/>
<path d="M342.946 209.15L324.63 228.278C323.718 229.232 322.596 229.96 321.35 230.399C320.107 230.839 318.777 230.977 317.467 230.809C315.999 230.621 314.606 230.048 313.43 229.148C312.254 228.249 311.334 227.057 310.765 225.688C310.196 224.325 309.995 222.831 310.188 221.362C310.38 219.894 310.953 218.501 311.857 217.325L316.597 211.163" stroke="#333333" stroke-width="1.24581" stroke-linecap="round" stroke-linejoin="round"/>
<path d="M247.055 242.013C247.055 244.151 247.478 246.268 248.294 248.242C249.11 250.217 250.31 252.012 251.821 253.526C253.331 255.037 255.126 256.238 257.101 257.053C259.075 257.873 261.192 258.292 263.33 258.292H273.434C270.685 253.217 269.43 247.468 269.802 241.707C270.179 235.946 272.17 230.411 275.555 225.734H263.33C259.013 225.734 254.871 227.449 251.817 230.503C248.762 233.553 247.047 237.695 247.047 242.013H247.055Z" fill="white"/>
<path d="M269.744 243.695C269.744 251.82 272.969 259.606 278.714 265.35C284.458 271.095 292.244 274.32 300.369 274.32H337.842C332.391 271.325 327.831 266.936 324.626 261.61C321.417 256.28 319.677 250.197 319.58 243.976C319.48 237.759 321.032 231.621 324.07 226.195C327.111 220.768 331.529 216.242 336.884 213.074H300.369C296.344 213.074 292.361 213.865 288.646 215.405C284.931 216.944 281.555 219.199 278.71 222.044C275.865 224.885 273.61 228.266 272.07 231.981C270.535 235.696 269.74 239.679 269.744 243.704V243.695V243.695Z" stroke="#333333" stroke-width="1.24581" stroke-linecap="round" stroke-linejoin="round"/>
<path d="M247.055 242.013C247.055 244.151 247.478 246.268 248.294 248.242C249.11 250.217 250.31 252.012 251.821 253.526C253.331 255.037 255.126 256.238 257.101 257.053C259.075 257.873 261.192 258.292 263.33 258.292H273.434C270.685 253.217 269.43 247.468 269.802 241.707C270.179 235.946 272.17 230.411 275.555 225.734H263.33C259.013 225.734 254.871 227.449 251.817 230.503C248.762 233.553 247.047 237.695 247.047 242.013H247.055Z" fill="white"/>
<path d="M269.744 243.695C269.744 251.82 272.969 259.606 278.714 265.35C284.458 271.095 292.244 274.32 300.369 274.32H337.842C332.391 271.325 327.831 266.936 324.626 261.61C321.417 256.28 319.677 250.197 319.58 243.976C319.48 237.759 321.032 231.621 324.07 226.195C327.111 220.768 331.529 216.242 336.884 213.074H300.369C296.344 213.074 292.361 213.865 288.646 215.405C284.931 216.944 281.555 219.199 278.71 222.044C275.865 224.885 273.61 228.266 272.07 231.981C270.535 235.696 269.74 239.679 269.744 243.704V243.695Z" fill="white"/>
<path d="M247.055 242.013C247.055 244.151 247.478 246.268 248.294 248.242C249.11 250.217 250.31 252.012 251.821 253.526C253.331 255.037 255.126 256.238 257.101 257.053C259.075 257.873 261.192 258.292 263.33 258.292H273.434C270.685 253.217 269.43 247.468 269.802 241.707C270.179 235.946 272.17 230.411 275.555 225.734H263.33C259.013 225.734 254.871 227.449 251.817 230.503C248.762 233.553 247.047 237.695 247.047 242.013H247.055Z" stroke="#333333" stroke-width="1.24581" stroke-linecap="round" stroke-linejoin="round"/>
<path d="M269.744 243.695C269.744 251.82 272.969 259.606 278.714 265.35C284.458 271.095 292.244 274.32 300.369 274.32H337.842C332.391 271.325 327.831 266.936 324.626 261.61C321.417 256.28 319.677 250.197 319.58 243.976C319.48 237.759 321.032 231.621 324.07 226.195C327.111 220.768 331.529 216.242 336.884 213.074H300.369C296.344 213.074 292.361 213.865 288.646 215.405C284.931 216.944 281.555 219.199 278.71 222.044C275.865 224.885 273.61 228.266 272.07 231.981C270.535 235.696 269.74 239.679 269.744 243.704V243.695V243.695Z" stroke="#333333" stroke-width="1.24581" stroke-linecap="round" stroke-linejoin="round"/>
<path d="M401.017 203.511L395.904 228.09C395.503 230.019 394.449 231.751 392.921 232.998C391.39 234.24 389.478 234.918 387.508 234.918C386.299 234.918 385.098 234.663 383.993 234.165C382.889 233.671 381.906 232.948 381.098 232.04C380.295 231.136 379.693 230.069 379.329 228.914C378.965 227.76 378.852 226.542 378.99 225.342C379.801 214.97 380.667 204.691 383.228 199.976L401.017 203.511Z" fill="#C58E5B"/>
<path d="M388.561 193.771C387.875 194.172 387.436 194.754 386.825 195.281C381.892 199.519 380.75 206.627 380.428 213.125" stroke="#333333" stroke-width="1.24581" stroke-linecap="round" stroke-linejoin="round"/>
<path d="M370.588 194.398C365.656 198.636 363.585 206.631 363.263 213.124" stroke="#333333" stroke-width="1.24581" stroke-linecap="round" stroke-linejoin="round"/>
<path d="M350.665 195.281C345.737 199.519 344.591 206.627 344.273 213.124" stroke="#333333" stroke-width="1.24581" stroke-linecap="round" stroke-linejoin="round"/>
<path d="M401.017 203.51L395.904 228.09C395.503 230.019 394.449 231.751 392.921 232.997C391.39 234.24 389.478 234.918 387.508 234.918C386.299 234.918 385.098 234.663 383.993 234.165C382.889 233.671 381.906 232.947 381.098 232.039C380.295 231.136 379.693 230.073 379.329 228.914C378.965 227.759 378.852 226.542 378.99 225.341L380.425 213.125" stroke="#333333" stroke-width="1.24581" stroke-linecap="round" stroke-linejoin="round"/>
<path d="M155.411 326.446L153.151 375.797" stroke="#333333" stroke-width="1.24581" stroke-linecap="round" stroke-linejoin="round"/>
<path d="M378.973 227.236L378.801 228.09C378.395 230.018 377.341 231.751 375.814 232.993C374.283 234.24 372.371 234.918 370.4 234.918C369.191 234.918 367.995 234.662 366.89 234.165C365.786 233.671 364.798 232.947 363.991 232.043C363.187 231.135 362.585 230.073 362.221 228.918C361.857 227.759 361.744 226.542 361.886 225.341L363.263 213.125" stroke="#333333" stroke-width="1.24581" stroke-linecap="round" stroke-linejoin="round"/>
<path d="M65.6315 335.381L73.7312 365.956" stroke="#333333" stroke-width="1.24581" stroke-linecap="round" stroke-linejoin="round"/>
<path d="M405.957 213.074C411.388 209.857 417.584 208.166 423.893 208.175H438.348C447.699 208.175 456.664 211.89 463.275 218.5C469.885 225.111 473.6 234.076 473.6 243.427C473.6 252.778 469.885 261.739 463.275 268.35C456.664 274.96 447.699 278.675 438.348 278.675H423.893C416.166 278.675 408.652 276.131 402.506 271.441C396.364 266.751 391.934 260.174 389.896 252.719C387.859 245.264 388.323 237.344 391.226 230.181C394.13 223.019 399.305 217.007 405.957 213.074Z" fill="white"/>
<path d="M403.113 243.419C403.117 250.695 405.376 257.786 409.577 263.723C413.777 269.664 419.714 274.153 426.571 276.583C433.424 279.01 440.863 279.257 447.866 277.286C454.866 275.316 461.087 271.228 465.672 265.58C470.254 259.932 472.977 253.008 473.467 245.749C473.952 238.495 472.182 231.265 468.396 225.052C464.61 218.844 458.995 213.957 452.322 211.07C445.645 208.179 438.24 207.426 431.123 208.916C423.203 210.577 416.095 214.915 410.995 221.199C405.895 227.483 403.113 235.328 403.113 243.419V243.419Z" stroke="#333333" stroke-width="1.24581" stroke-linecap="round" stroke-linejoin="round"/>
<path d="M388.645 243.419C388.641 248.051 389.553 252.636 391.323 256.912C393.093 261.192 395.691 265.078 398.962 268.35C402.238 271.626 406.125 274.22 410.401 275.99C414.681 277.763 419.262 278.671 423.893 278.671H438.348C435.922 278.671 433.499 278.42 431.123 277.927C423.199 276.27 416.087 271.931 410.982 265.647C405.878 259.368 403.092 251.515 403.092 243.419C403.092 235.324 405.878 227.475 410.982 221.191C416.087 214.911 423.199 210.573 431.123 208.916C433.499 208.418 435.922 208.171 438.348 208.171H423.893C419.262 208.171 414.681 209.079 410.401 210.849C406.125 212.623 402.238 215.217 398.962 218.492C395.691 221.764 393.093 225.651 391.323 229.931C389.553 234.207 388.641 238.792 388.645 243.419Z" stroke="#333333" stroke-width="1.24581" stroke-linecap="round" stroke-linejoin="round"/>
<path d="M438.348 272.551C422.262 272.551 409.217 259.51 409.217 243.419C409.217 227.329 422.262 214.288 438.348 214.288C454.435 214.288 467.48 227.333 467.48 243.419C467.48 259.506 454.439 272.551 438.348 272.551Z" fill="#333333"/>
<path d="M363.263 211.995L359.912 228.094C359.51 230.023 358.456 231.755 356.929 232.997C355.401 234.24 353.49 234.918 351.519 234.918C350.31 234.918 349.113 234.663 348.009 234.165C346.904 233.671 345.917 232.947 345.114 232.039C344.306 231.136 343.704 230.069 343.34 228.914C342.976 227.759 342.863 226.542 343.005 225.341L344.277 213.125" stroke="#333333" stroke-width="1.24581" stroke-linecap="round" stroke-linejoin="round"/>
<path d="M61.9334 493.205L111.465 428.106L234.692 277.29L300.582 301.159L269.12 337.369L147.612 509.504C121.204 564.274 52.6622 543.895 61.9334 493.205Z" fill="#C58E5B"/>
<path d="M231.735 279.968C233.161 266.32 236.533 245.025 244.177 213.124C244.499 206.644 245.641 199.519 250.574 195.281C255.067 191.423 261.786 191.005 267.38 192.954C268.074 193.197 268.756 193.465 269.422 193.762C273.743 191.348 279.308 191.293 284.056 192.954C285.203 193.356 286.32 193.837 287.399 194.398C291.838 191.369 297.917 191.155 303.051 192.954C303.837 193.222 304.607 193.544 305.36 193.892C309.711 191.356 315.38 191.273 320.216 192.954C325.806 194.9 330.462 198.862 334.625 203.079C337.575 206.066 340.349 209.844 342.938 213.153H317.752C315.259 243.711 313.945 284.365 300.565 301.163L231.73 279.968H231.735Z" fill="#C58E5B"/>
<path d="M305.364 193.896C304.67 194.298 304.017 194.762 303.41 195.285C298.482 199.523 297.336 206.631 297.013 213.129" stroke="#333333" stroke-width="1.24581" stroke-linecap="round" stroke-linejoin="round"/>
<path d="M305.364 193.896C304.611 193.545 303.837 193.231 303.055 192.955C297.457 191.009 290.738 191.424 286.249 195.285C281.316 199.523 280.174 206.631 279.852 213.129" stroke="#333333" stroke-width="1.24581" stroke-linecap="round" stroke-linejoin="round"/>
<path d="M287.236 194.319C286.207 193.792 285.14 193.336 284.048 192.955C278.454 191.005 271.735 191.424 267.242 195.281C262.309 199.519 261.167 206.627 260.845 213.125" stroke="#333333" stroke-width="1.24581" stroke-linecap="round" stroke-linejoin="round"/>
<path d="M342.938 213.154C340.352 209.845 337.574 206.067 334.625 203.08C330.462 198.862 325.81 194.9 320.216 192.955C315.384 191.273 309.715 191.357 305.364 193.892C304.607 193.545 303.837 193.231 303.05 192.955C297.917 191.168 291.838 191.369 287.399 194.398C286.319 193.838 285.207 193.357 284.06 192.955C279.308 191.302 273.743 191.353 269.421 193.762C268.756 193.465 268.074 193.193 267.38 192.955C261.786 191.005 255.067 191.424 250.574 195.281C245.641 199.519 244.495 206.627 244.177 213.125C236.533 245.026 233.161 266.321 231.734 279.968L221.2 293.49" stroke="#333333" stroke-width="1.24581" stroke-linecap="round" stroke-linejoin="round"/>
<path d="M317.773 213.15V207.313" stroke="#333333" stroke-width="1.24581" stroke-linecap="round" stroke-linejoin="round"/>
<path d="M336.884 213.074C342.315 209.857 348.511 208.166 354.82 208.175H369.275C378.625 208.175 387.591 211.89 394.201 218.5C400.812 225.111 404.523 234.076 404.523 243.427C404.523 252.778 400.812 261.739 394.201 268.35C387.591 274.96 378.625 278.675 369.275 278.675H354.82C347.088 278.675 339.574 276.131 333.433 271.441C327.291 266.751 322.86 260.174 320.819 252.719C318.781 245.264 319.25 237.344 322.153 230.181C325.057 223.019 330.232 217.007 336.884 213.074Z" fill="white"/>
<path d="M334.027 243.419C334.031 250.694 336.291 257.782 340.491 263.723C344.687 269.659 350.624 274.148 357.477 276.579C364.33 279.006 371.769 279.257 378.768 277.286C385.768 275.32 391.989 271.232 396.574 265.589C401.16 259.945 403.883 253.021 404.373 245.766C404.866 238.511 403.097 231.282 399.315 225.069C395.532 218.86 389.922 213.974 383.249 211.079C376.576 208.188 369.175 207.43 362.054 208.916C354.134 210.577 347.022 214.911 341.918 221.195C336.814 227.479 334.027 235.328 334.027 243.419V243.419Z" stroke="#333333" stroke-width="1.24581" stroke-linecap="round" stroke-linejoin="round"/>
<path d="M319.568 243.419C319.568 248.051 320.476 252.636 322.246 256.912C324.019 261.192 326.613 265.078 329.889 268.354C333.161 271.626 337.048 274.224 341.328 275.994C345.603 277.763 350.189 278.671 354.82 278.671H369.275C366.848 278.671 364.43 278.42 362.054 277.927C354.134 276.266 347.026 271.927 341.922 265.647C336.822 259.363 334.035 251.515 334.035 243.419C334.035 235.324 336.822 227.479 341.922 221.195C347.026 214.911 354.134 210.577 362.054 208.916C364.434 208.418 366.857 208.171 369.288 208.171H354.829C350.201 208.171 345.616 209.079 341.34 210.849C337.06 212.623 333.174 215.217 329.902 218.492C326.626 221.764 324.032 225.651 322.258 229.931C320.488 234.207 319.581 238.792 319.581 243.419H319.568V243.419Z" stroke="#333333" stroke-width="1.24581" stroke-linecap="round" stroke-linejoin="round"/>
<path d="M369.275 272.551C353.189 272.551 340.144 259.51 340.144 243.419C340.144 227.329 353.189 214.288 369.275 214.288C385.362 214.288 398.407 227.333 398.407 243.419C398.407 259.506 385.366 272.551 369.275 272.551Z" fill="#333333"/>
<path d="M368.773 251.322C359.594 251.184 352.209 247.226 352.28 242.49C352.352 237.75 359.853 234.022 369.036 234.16C378.215 234.299 385.6 238.256 385.529 242.992C385.457 247.732 377.956 251.46 368.773 251.322Z" fill="white"/>
<path d="M369.898 250.322C365.475 248.306 363.438 243.273 365.35 239.076C367.262 234.884 372.4 233.123 376.822 235.135C381.244 237.152 383.277 242.185 381.365 246.381C379.453 250.573 374.32 252.339 369.898 250.322Z" fill="#333333"/>
<path d="M437.624 252.673C428.445 252.531 421.061 248.577 421.132 243.837C421.203 239.101 428.705 235.373 437.888 235.512C447.067 235.65 454.451 239.603 454.38 244.343C454.309 249.084 446.808 252.811 437.624 252.673Z" fill="white"/>
<path d="M438.754 251.678C434.332 249.661 432.299 244.628 434.211 240.436C436.123 236.244 441.256 234.478 445.678 236.495C450.1 238.512 452.134 243.545 450.222 247.737C448.31 251.929 443.176 253.694 438.754 251.678Z" fill="#333333"/>
<path d="M336.884 213.07L317.773 213.149" stroke="#333333" stroke-width="1.24581" stroke-linecap="round" stroke-linejoin="round"/>
<path d="M128.325 403.505L73.7311 469.022" stroke="#333333" stroke-width="1.24581" stroke-linecap="round" stroke-linejoin="round"/>
<path d="M154.657 115.154L156.691 105.431L166.313 102.963L156.59 100.929L154.122 91.3069L152.089 101.03L142.466 103.502L152.189 105.536L154.653 115.154H154.657Z" fill="#EEED56"/>
<path d="M-18.5437 366.078L-14.392 346.469L5.24513 341.489L-14.5934 337.382L-19.6344 317.976L-23.7861 337.591L-43.4232 342.571L-23.578 346.678L-18.547 366.078H-18.5437Z" fill="#EEED56"/>
<path d="M469.542 317.647L472.044 305.706L483.858 302.677L471.918 300.175L468.889 288.36L466.387 300.305L454.572 303.334L466.517 305.836L469.542 317.647Z" fill="#EEED56"/>
<path d="M566.877 220.166L568.233 213.685L574.646 212.037L568.166 210.681L566.517 204.268L565.162 210.753L558.748 212.397L565.233 213.752L566.877 220.166Z" fill="#EEED56"/>
</svg>
